<svg xmlns="http://www.w3.org/2000/svg" viewBox="0 0 880 620">
<defs>
  <pattern id="grid" width="40" height="40" patternUnits="userSpaceOnUse">
    <path d="M 40 0 L 0 0 0 40" fill="none" stroke="#1e293b" stroke-width="0.5"/>
  </pattern>
  <marker id="arrowhead-solid" markerWidth="10" markerHeight="7" refX="9" refY="3.5" orient="auto">
    <polygon points="0 0, 10 3.5, 0 7" fill="#64748b"/>
  </marker>
  <marker id="arrowhead-dashed" markerWidth="10" markerHeight="7" refX="9" refY="3.5" orient="auto">
    <polygon points="0 0, 10 3.5, 0 7" fill="#fbbf24"/>
  </marker>
</defs>

<rect width="880" height="620" fill="url(#grid)"/>
<text x="100" y="36" fill="#94a3b8" font-size="11" font-weight="600" text-anchor="middle">UPSTREAM (deps)</text>
<text x="460" y="36" fill="#94a3b8" font-size="11" font-weight="600" text-anchor="middle">FOCUS</text>
<text x="720" y="36" fill="#94a3b8" font-size="11" font-weight="600" text-anchor="middle">DOWNSTREAM (consumers)</text>
<line x1="260" y1="110" x2="360" y2="330" stroke="#64748b" stroke-width="1.5"  marker-end="url(#arrowhead-solid)"><title>required · http://supabase:&lt;port&gt;</title></line>
<line x1="260" y1="210" x2="360" y2="330" stroke="#64748b" stroke-width="1.5"  marker-end="url(#arrowhead-solid)"><title>required · http://litellm:&lt;port&gt;</title></line>
<line x1="260" y1="310" x2="360" y2="330" stroke="#64748b" stroke-width="1.5"  marker-end="url(#arrowhead-solid)"><title>required · http://ollama:&lt;port&gt;</title></line>
<line x1="260" y1="410" x2="360" y2="330" stroke="#fbbf24" stroke-width="1.5" stroke-dasharray="4,4" marker-end="url(#arrowhead-dashed)"><title>adaptive · COMFYUI_HOST_URL=${COMFYUI_ENDPOINT}</title></line>
<line x1="560" y1="330" x2="620" y2="110" stroke="#64748b" stroke-width="1.5"  marker-end="url(#arrowhead-solid)"><title>required · kong declares comfyui in depends_on.required</title></line>
<line x1="560" y1="330" x2="620" y2="210" stroke="#fbbf24" stroke-width="1.5" stroke-dasharray="4,4" marker-end="url(#arrowhead-dashed)"><title>adaptive · hermes adapts_to comfyui</title></line>
<line x1="560" y1="330" x2="620" y2="310" stroke="#94a3b8" stroke-width="1.5" stroke-dasharray="2,3" marker-end="url(#arrowhead-solid)"><title>optional · hermes lists comfyui as optional dep</title></line>
<line x1="560" y1="330" x2="620" y2="410" stroke="#fbbf24" stroke-width="1.5" stroke-dasharray="4,4" marker-end="url(#arrowhead-dashed)"><title>adaptive · jupyterhub adapts_to comfyui</title></line>
<line x1="560" y1="330" x2="620" y2="510" stroke="#94a3b8" stroke-width="1.5" stroke-dasharray="2,3" marker-end="url(#arrowhead-solid)"><title>optional · jupyterhub lists comfyui as optional dep</title></line>
<g class="box-required">
  <rect x="60" y="80" width="200" height="60" rx="6" fill="#0f172a"/>
  <rect x="60" y="80" width="200" height="60" rx="6"
        fill="rgba(15, 23, 42, 0.7)" stroke="#7dcfff" stroke-width="1.5"/>
  <text x="160" y="102" fill="white" font-size="11" font-weight="600" text-anchor="middle">supabase</text>
  <text x="160" y="118" fill="#94a3b8" font-size="9" text-anchor="middle">required</text>
</g>

<g class="box-required">
  <rect x="60" y="180" width="200" height="60" rx="6" fill="#0f172a"/>
  <rect x="60" y="180" width="200" height="60" rx="6"
        fill="rgba(15, 23, 42, 0.7)" stroke="#e0af68" stroke-width="1.5"/>
  <text x="160" y="202" fill="white" font-size="11" font-weight="600" text-anchor="middle">litellm</text>
  <text x="160" y="218" fill="#94a3b8" font-size="9" text-anchor="middle">required</text>
</g>

<g class="box-required">
  <rect x="60" y="280" width="200" height="60" rx="6" fill="#0f172a"/>
  <rect x="60" y="280" width="200" height="60" rx="6"
        fill="rgba(15, 23, 42, 0.7)" stroke="#e0af68" stroke-width="1.5"/>
  <text x="160" y="302" fill="white" font-size="11" font-weight="600" text-anchor="middle">ollama</text>
  <text x="160" y="318" fill="#94a3b8" font-size="9" text-anchor="middle">required</text>
</g>

<g class="box-adaptive">
  <rect x="60" y="380" width="200" height="60" rx="6" fill="#0f172a"/>
  <rect x="60" y="380" width="200" height="60" rx="6"
        fill="rgba(15, 23, 42, 0.7)" stroke="#7aa2f7" stroke-width="1.5"/>
  <text x="160" y="402" fill="white" font-size="11" font-weight="600" text-anchor="middle">comfyui</text>
  <text x="160" y="418" fill="#94a3b8" font-size="9" text-anchor="middle">adaptive</text>
</g>

<g class="box-focus">
  <rect x="360" y="270" width="200" height="120" rx="6" fill="#0f172a"/>
  <rect x="360" y="270" width="200" height="120" rx="6"
        fill="rgba(15, 23, 42, 0.7)" stroke="#7aa2f7" stroke-width="1.5"/>
  <text x="460" y="294" fill="white" font-size="14" font-weight="600" text-anchor="middle">COMFYUI</text>
  <text x="460" y="314" fill="#94a3b8" font-size="9" text-anchor="middle">media · container-cpu</text>
</g>

<g class="box-required">
  <rect x="620" y="80" width="200" height="60" rx="6" fill="#0f172a"/>
  <rect x="620" y="80" width="200" height="60" rx="6"
        fill="rgba(15, 23, 42, 0.7)" stroke="#f7768e" stroke-width="1.5"/>
  <text x="720" y="102" fill="white" font-size="11" font-weight="600" text-anchor="middle">kong</text>
  <text x="720" y="118" fill="#94a3b8" font-size="9" text-anchor="middle">required</text>
</g>

<g class="box-adaptive">
  <rect x="620" y="180" width="200" height="60" rx="6" fill="#0f172a"/>
  <rect x="620" y="180" width="200" height="60" rx="6"
        fill="rgba(15, 23, 42, 0.7)" stroke="#9ece6a" stroke-width="1.5"/>
  <text x="720" y="202" fill="white" font-size="11" font-weight="600" text-anchor="middle">hermes</text>
  <text x="720" y="218" fill="#94a3b8" font-size="9" text-anchor="middle">adaptive</text>
</g>

<g class="box-optional">
  <rect x="620" y="280" width="200" height="60" rx="6" fill="#0f172a"/>
  <rect x="620" y="280" width="200" height="60" rx="6"
        fill="rgba(15, 23, 42, 0.7)" stroke="#9ece6a" stroke-width="1.5"/>
  <text x="720" y="302" fill="white" font-size="11" font-weight="600" text-anchor="middle">hermes</text>
  <text x="720" y="318" fill="#94a3b8" font-size="9" text-anchor="middle">optional</text>
</g>

<g class="box-adaptive">
  <rect x="620" y="380" width="200" height="60" rx="6" fill="#0f172a"/>
  <rect x="620" y="380" width="200" height="60" rx="6"
        fill="rgba(15, 23, 42, 0.7)" stroke="#bb9af7" stroke-width="1.5"/>
  <text x="720" y="402" fill="white" font-size="11" font-weight="600" text-anchor="middle">jupyterhub</text>
  <text x="720" y="418" fill="#94a3b8" font-size="9" text-anchor="middle">adaptive</text>
</g>

<g class="box-optional">
  <rect x="620" y="480" width="200" height="60" rx="6" fill="#0f172a"/>
  <rect x="620" y="480" width="200" height="60" rx="6"
        fill="rgba(15, 23, 42, 0.7)" stroke="#bb9af7" stroke-width="1.5"/>
  <text x="720" y="502" fill="white" font-size="11" font-weight="600" text-anchor="middle">jupyterhub</text>
  <text x="720" y="518" fill="#94a3b8" font-size="9" text-anchor="middle">optional</text>
</g>

</svg>