<?xml version="1.0" encoding="UTF-8" standalone="no"?>
<!DOCTYPE svg PUBLIC "-//W3C//DTD SVG 1.1//EN"
 "http://www.w3.org/Graphics/SVG/1.1/DTD/svg11.dtd">
<!-- Generated by graphviz version 12.2.1 (20241206.2353)
 -->
<!-- Title: stack Pages: 1 -->
<svg width="1589pt" height="334pt"
 viewBox="0.00 0.00 1589.00 333.50" xmlns="http://www.w3.org/2000/svg" xmlns:xlink="http://www.w3.org/1999/xlink">
<g id="graph0" class="graph" transform="scale(1 1) rotate(0) translate(4 329.5)">
<title>stack</title>
<polygon fill="#0e0f18" stroke="none" points="-4,4 -4,-329.5 1585,-329.5 1585,4 -4,4"/>
<g id="clust1" class="cluster">
<title>cluster_infra</title>
<polygon fill="#0e0f18" stroke="#f7768e" points="897,-80 897,-156.5 1115,-156.5 1115,-80 897,-80"/>
<text text-anchor="middle" x="1006" y="-139.2" font-family="Times,serif" font-size="14.00" fill="#f7768e">Infrastructure</text>
</g>
<g id="clust2" class="cluster">
<title>cluster_data</title>
<polygon fill="#0e0f18" stroke="#7dcfff" points="901,-164.5 901,-317.5 1203,-317.5 1203,-164.5 901,-164.5"/>
<text text-anchor="middle" x="1052" y="-300.2" font-family="Times,serif" font-size="14.00" fill="#7dcfff">Data</text>
</g>
<g id="clust3" class="cluster">
<title>cluster_llm</title>
<polygon fill="#0e0f18" stroke="#e0af68" points="8,-80 8,-241 206,-241 206,-80 8,-80"/>
<text text-anchor="middle" x="107" y="-223.7" font-family="Times,serif" font-size="14.00" fill="#e0af68">LLM Core</text>
</g>
<g id="clust4" class="cluster">
<title>cluster_media</title>
<polygon fill="#0e0f18" stroke="#7aa2f7" points="214,-8 214,-156.5 640,-156.5 640,-8 214,-8"/>
<text text-anchor="middle" x="427" y="-139.2" font-family="Times,serif" font-size="14.00" fill="#7aa2f7">Media</text>
</g>
<g id="clust5" class="cluster">
<title>cluster_agents</title>
<polygon fill="#0e0f18" stroke="#9ece6a" points="648,-80 648,-156.5 889,-156.5 889,-80 648,-80"/>
<text text-anchor="middle" x="768.5" y="-139.2" font-family="Times,serif" font-size="14.00" fill="#9ece6a">Agents &amp; Workflows</text>
</g>
<g id="clust6" class="cluster">
<title>cluster_apps</title>
<polygon fill="#0e0f18" stroke="#bb9af7" points="1123,-80 1123,-156.5 1573,-156.5 1573,-80 1123,-80"/>
<text text-anchor="middle" x="1348" y="-139.2" font-family="Times,serif" font-size="14.00" fill="#bb9af7">Apps &amp; UIs</text>
</g>
<!-- globals -->
<g id="node1" class="node">
<title>globals</title>
<path fill="#f7768e" fill-opacity="0.200000" stroke="#2b2f4a" d="M951.38,-124C951.38,-124 916.62,-124 916.62,-124 910.62,-124 904.62,-118 904.62,-112 904.62,-112 904.62,-100 904.62,-100 904.62,-94 910.62,-88 916.62,-88 916.62,-88 951.38,-88 951.38,-88 957.38,-88 963.38,-94 963.38,-100 963.38,-100 963.38,-112 963.38,-112 963.38,-118 957.38,-124 951.38,-124"/>
<text text-anchor="middle" x="934" y="-100.2" font-family="Helvetica,sans-Serif" font-size="14.00" fill="#c0caf5">globals</text>
</g>
<!-- kong -->
<g id="node2" class="node">
<title>kong</title>
<path fill="#f7768e" fill-opacity="0.200000" stroke="#2b2f4a" d="M1095,-124C1095,-124 1065,-124 1065,-124 1059,-124 1053,-118 1053,-112 1053,-112 1053,-100 1053,-100 1053,-94 1059,-88 1065,-88 1065,-88 1095,-88 1095,-88 1101,-88 1107,-94 1107,-100 1107,-100 1107,-112 1107,-112 1107,-118 1101,-124 1095,-124"/>
<text text-anchor="middle" x="1080" y="-100.2" font-family="Helvetica,sans-Serif" font-size="14.00" fill="#c0caf5">kong</text>
</g>
<!-- ray -->
<g id="node3" class="node">
<title>ray</title>
<path fill="#f7768e" fill-opacity="0.200000" stroke="#2b2f4a" d="M1023,-124C1023,-124 993,-124 993,-124 987,-124 981,-118 981,-112 981,-112 981,-100 981,-100 981,-94 987,-88 993,-88 993,-88 1023,-88 1023,-88 1029,-88 1035,-94 1035,-100 1035,-100 1035,-112 1035,-112 1035,-118 1029,-124 1023,-124"/>
<text text-anchor="middle" x="1008" y="-100.2" font-family="Helvetica,sans-Serif" font-size="14.00" fill="#c0caf5">ray</text>
</g>
<!-- supabase -->
<g id="node4" class="node">
<title>supabase</title>
<path fill="#7dcfff" fill-opacity="0.200000" stroke="#2b2f4a" d="M1002.25,-285C1002.25,-285 951.75,-285 951.75,-285 945.75,-285 939.75,-279 939.75,-273 939.75,-273 939.75,-261 939.75,-261 939.75,-255 945.75,-249 951.75,-249 951.75,-249 1002.25,-249 1002.25,-249 1008.25,-249 1014.25,-255 1014.25,-261 1014.25,-261 1014.25,-273 1014.25,-273 1014.25,-279 1008.25,-285 1002.25,-285"/>
<text text-anchor="middle" x="977" y="-261.2" font-family="Helvetica,sans-Serif" font-size="14.00" fill="#c0caf5">supabase</text>
</g>
<!-- supabase&#45;&gt;kong -->
<g id="edge13" class="edge">
<title>supabase&#45;&gt;kong</title>
<path fill="none" stroke="#3d4261" d="M939.3,-263.08C924.58,-259.88 909.09,-253.51 900,-241 880.01,-213.5 876.63,-189.2 900,-164.5 911.01,-152.86 1029.93,-164.17 1044,-156.5 1053.36,-151.4 1060.91,-142.71 1066.63,-134.01"/>
<polygon fill="#3d4261" stroke="#3d4261" points="1069.47,-136.08 1071.54,-125.69 1063.44,-132.52 1069.47,-136.08"/>
</g>
<!-- supabase&#45;&gt;ray -->
<g id="edge32" class="edge">
<title>supabase&#45;&gt;ray</title>
<path fill="none" stroke="#3d4261" d="M939.33,-262.42C911.15,-258.87 876.01,-252.29 867,-241 845.79,-214.43 843.89,-189.44 867,-164.5 882.91,-147.34 951.57,-167.9 972,-156.5 981.2,-151.36 988.68,-142.78 994.39,-134.18"/>
<polygon fill="#3d4261" stroke="#3d4261" points="997.39,-135.98 999.49,-125.6 991.37,-132.4 997.39,-135.98"/>
</g>
<!-- minio -->
<g id="node5" class="node">
<title>minio</title>
<path fill="#7dcfff" fill-opacity="0.200000" stroke="#2b2f4a" d="M951,-208.5C951,-208.5 921,-208.5 921,-208.5 915,-208.5 909,-202.5 909,-196.5 909,-196.5 909,-184.5 909,-184.5 909,-178.5 915,-172.5 921,-172.5 921,-172.5 951,-172.5 951,-172.5 957,-172.5 963,-178.5 963,-184.5 963,-184.5 963,-196.5 963,-196.5 963,-202.5 957,-208.5 951,-208.5"/>
<text text-anchor="middle" x="936" y="-184.7" font-family="Helvetica,sans-Serif" font-size="14.00" fill="#c0caf5">minio</text>
</g>
<!-- supabase&#45;&gt;minio -->
<g id="edge20" class="edge">
<title>supabase&#45;&gt;minio</title>
<path fill="none" stroke="#3d4261" d="M967.49,-248.72C962.61,-239.85 956.55,-228.84 951.05,-218.85"/>
<polygon fill="#3d4261" stroke="#3d4261" points="954.22,-217.34 946.33,-210.27 948.08,-220.72 954.22,-217.34"/>
</g>
<!-- neo4j -->
<g id="node6" class="node">
<title>neo4j</title>
<path fill="#7dcfff" fill-opacity="0.200000" stroke="#2b2f4a" d="M1023,-208.5C1023,-208.5 993,-208.5 993,-208.5 987,-208.5 981,-202.5 981,-196.5 981,-196.5 981,-184.5 981,-184.5 981,-178.5 987,-172.5 993,-172.5 993,-172.5 1023,-172.5 1023,-172.5 1029,-172.5 1035,-178.5 1035,-184.5 1035,-184.5 1035,-196.5 1035,-196.5 1035,-202.5 1029,-208.5 1023,-208.5"/>
<text text-anchor="middle" x="1008" y="-184.7" font-family="Helvetica,sans-Serif" font-size="14.00" fill="#c0caf5">neo4j</text>
</g>
<!-- supabase&#45;&gt;neo4j -->
<g id="edge24" class="edge">
<title>supabase&#45;&gt;neo4j</title>
<path fill="none" stroke="#3d4261" d="M984.19,-248.72C987.8,-240.04 992.27,-229.3 996.36,-219.48"/>
<polygon fill="#3d4261" stroke="#3d4261" points="999.55,-220.92 1000.16,-210.34 993.09,-218.23 999.55,-220.92"/>
</g>
<!-- redis -->
<g id="node7" class="node">
<title>redis</title>
<path fill="#7dcfff" fill-opacity="0.200000" stroke="#2b2f4a" d="M1095,-208.5C1095,-208.5 1065,-208.5 1065,-208.5 1059,-208.5 1053,-202.5 1053,-196.5 1053,-196.5 1053,-184.5 1053,-184.5 1053,-178.5 1059,-172.5 1065,-172.5 1065,-172.5 1095,-172.5 1095,-172.5 1101,-172.5 1107,-178.5 1107,-184.5 1107,-184.5 1107,-196.5 1107,-196.5 1107,-202.5 1101,-208.5 1095,-208.5"/>
<text text-anchor="middle" x="1080" y="-184.7" font-family="Helvetica,sans-Serif" font-size="14.00" fill="#c0caf5">redis</text>
</g>
<!-- supabase&#45;&gt;redis -->
<g id="edge34" class="edge">
<title>supabase&#45;&gt;redis</title>
<path fill="none" stroke="#3d4261" d="M1014.45,-256.37C1024.66,-252.63 1035.3,-247.61 1044,-241 1052.06,-234.88 1059.11,-226.46 1064.78,-218.3"/>
<polygon fill="#3d4261" stroke="#3d4261" points="1067.7,-220.22 1070.17,-209.92 1061.82,-216.43 1067.7,-220.22"/>
</g>
<!-- weaviate -->
<g id="node8" class="node">
<title>weaviate</title>
<path fill="#7dcfff" fill-opacity="0.200000" stroke="#2b2f4a" d="M1182.62,-208.5C1182.62,-208.5 1137.38,-208.5 1137.38,-208.5 1131.38,-208.5 1125.38,-202.5 1125.38,-196.5 1125.38,-196.5 1125.38,-184.5 1125.38,-184.5 1125.38,-178.5 1131.38,-172.5 1137.38,-172.5 1137.38,-172.5 1182.62,-172.5 1182.62,-172.5 1188.62,-172.5 1194.62,-178.5 1194.62,-184.5 1194.62,-184.5 1194.62,-196.5 1194.62,-196.5 1194.62,-202.5 1188.62,-208.5 1182.62,-208.5"/>
<text text-anchor="middle" x="1160" y="-184.7" font-family="Helvetica,sans-Serif" font-size="14.00" fill="#c0caf5">weaviate</text>
</g>
<!-- supabase&#45;&gt;weaviate -->
<g id="edge39" class="edge">
<title>supabase&#45;&gt;weaviate</title>
<path fill="none" stroke="#3d4261" d="M1014.64,-265.82C1043.96,-264.18 1084.78,-258.51 1116,-241 1126.02,-235.38 1134.91,-226.62 1142.04,-218.01"/>
<polygon fill="#3d4261" stroke="#3d4261" points="1144.81,-220.15 1148.13,-210.09 1139.26,-215.89 1144.81,-220.15"/>
</g>
<!-- litellm -->
<g id="node9" class="node">
<title>litellm</title>
<path fill="#e0af68" fill-opacity="0.200000" stroke="#2b2f4a" d="M186,-208.5C186,-208.5 156,-208.5 156,-208.5 150,-208.5 144,-202.5 144,-196.5 144,-196.5 144,-184.5 144,-184.5 144,-178.5 150,-172.5 156,-172.5 156,-172.5 186,-172.5 186,-172.5 192,-172.5 198,-178.5 198,-184.5 198,-184.5 198,-196.5 198,-196.5 198,-202.5 192,-208.5 186,-208.5"/>
<text text-anchor="middle" x="171" y="-184.7" font-family="Helvetica,sans-Serif" font-size="14.00" fill="#c0caf5">litellm</text>
</g>
<!-- supabase&#45;&gt;litellm -->
<g id="edge15" class="edge">
<title>supabase&#45;&gt;litellm</title>
<path fill="none" stroke="#3d4261" d="M939.26,-263.75C875.21,-259.83 741.14,-251.18 628,-241 472.64,-227.03 288.1,-205.53 209.51,-196.15"/>
<polygon fill="#3d4261" stroke="#3d4261" points="210.11,-192.7 199.77,-194.98 209.28,-199.65 210.11,-192.7"/>
</g>
<!-- ollama -->
<g id="node11" class="node">
<title>ollama</title>
<path fill="#e0af68" fill-opacity="0.200000" stroke="#2b2f4a" d="M60.25,-124C60.25,-124 27.75,-124 27.75,-124 21.75,-124 15.75,-118 15.75,-112 15.75,-112 15.75,-100 15.75,-100 15.75,-94 21.75,-88 27.75,-88 27.75,-88 60.25,-88 60.25,-88 66.25,-88 72.25,-94 72.25,-100 72.25,-100 72.25,-112 72.25,-112 72.25,-118 66.25,-124 60.25,-124"/>
<text text-anchor="middle" x="44" y="-100.2" font-family="Helvetica,sans-Serif" font-size="14.00" fill="#c0caf5">ollama</text>
</g>
<!-- supabase&#45;&gt;ollama -->
<g id="edge25" class="edge">
<title>supabase&#45;&gt;ollama</title>
<path fill="none" stroke="#3d4261" d="M939.35,-265.83C780.38,-265.01 170.66,-260.57 135,-241 93.32,-218.12 67,-167.02 53.94,-134.95"/>
<polygon fill="#3d4261" stroke="#3d4261" points="57.3,-133.94 50.41,-125.89 50.77,-136.48 57.3,-133.94"/>
</g>
<!-- comfyui -->
<g id="node13" class="node">
<title>comfyui</title>
<path fill="#7aa2f7" fill-opacity="0.200000" stroke="#2b2f4a" d="M537.62,-124C537.62,-124 498.38,-124 498.38,-124 492.38,-124 486.38,-118 486.38,-112 486.38,-112 486.38,-100 486.38,-100 486.38,-94 492.38,-88 498.38,-88 498.38,-88 537.62,-88 537.62,-88 543.62,-88 549.62,-94 549.62,-100 549.62,-100 549.62,-112 549.62,-112 549.62,-118 543.62,-124 537.62,-124"/>
<text text-anchor="middle" x="518" y="-100.2" font-family="Helvetica,sans-Serif" font-size="14.00" fill="#c0caf5">comfyui</text>
</g>
<!-- supabase&#45;&gt;comfyui -->
<g id="edge6" class="edge">
<title>supabase&#45;&gt;comfyui</title>
<path fill="none" stroke="#3d4261" d="M939.41,-261.23C908.9,-256.99 864.87,-250.08 827,-241 705.55,-211.88 662.62,-226.22 559,-156.5 549.99,-150.44 541.9,-141.82 535.34,-133.48"/>
<polygon fill="#3d4261" stroke="#3d4261" points="538.25,-131.53 529.5,-125.54 532.6,-135.67 538.25,-131.53"/>
</g>
<!-- n8n -->
<g id="node20" class="node">
<title>n8n</title>
<path fill="#9ece6a" fill-opacity="0.200000" stroke="#2b2f4a" d="M869,-124C869,-124 839,-124 839,-124 833,-124 827,-118 827,-112 827,-112 827,-100 827,-100 827,-94 833,-88 839,-88 839,-88 869,-88 869,-88 875,-88 881,-94 881,-100 881,-100 881,-112 881,-112 881,-118 875,-124 869,-124"/>
<text text-anchor="middle" x="854" y="-100.2" font-family="Helvetica,sans-Serif" font-size="14.00" fill="#c0caf5">n8n</text>
</g>
<!-- supabase&#45;&gt;n8n -->
<g id="edge21" class="edge">
<title>supabase&#45;&gt;n8n</title>
<path fill="none" stroke="#3d4261" d="M939.56,-264.04C905.13,-261.35 857.7,-255.14 846,-241 821.5,-211.38 831.89,-164.31 842.38,-134.56"/>
<polygon fill="#3d4261" stroke="#3d4261" points="845.55,-136.09 845.8,-125.5 839,-133.62 845.55,-136.09"/>
</g>
<!-- backend -->
<g id="node22" class="node">
<title>backend</title>
<path fill="#bb9af7" fill-opacity="0.200000" stroke="#2b2f4a" d="M1455.5,-124C1455.5,-124 1412.5,-124 1412.5,-124 1406.5,-124 1400.5,-118 1400.5,-112 1400.5,-112 1400.5,-100 1400.5,-100 1400.5,-94 1406.5,-88 1412.5,-88 1412.5,-88 1455.5,-88 1455.5,-88 1461.5,-88 1467.5,-94 1467.5,-100 1467.5,-100 1467.5,-112 1467.5,-112 1467.5,-118 1461.5,-124 1455.5,-124"/>
<text text-anchor="middle" x="1434" y="-100.2" font-family="Helvetica,sans-Serif" font-size="14.00" fill="#c0caf5">backend</text>
</g>
<!-- supabase&#45;&gt;backend -->
<g id="edge1" class="edge">
<title>supabase&#45;&gt;backend</title>
<path fill="none" stroke="#3d4261" d="M1014.64,-265.5C1084.74,-264.13 1232.47,-259.13 1280,-241 1337.26,-219.16 1387.44,-165.68 1413.97,-133.27"/>
<polygon fill="#3d4261" stroke="#3d4261" points="1416.65,-135.52 1420.17,-125.52 1411.19,-131.14 1416.65,-135.52"/>
</g>
<!-- jupyterhub -->
<g id="node23" class="node">
<title>jupyterhub</title>
<path fill="#bb9af7" fill-opacity="0.200000" stroke="#2b2f4a" d="M1552.5,-124C1552.5,-124 1497.5,-124 1497.5,-124 1491.5,-124 1485.5,-118 1485.5,-112 1485.5,-112 1485.5,-100 1485.5,-100 1485.5,-94 1491.5,-88 1497.5,-88 1497.5,-88 1552.5,-88 1552.5,-88 1558.5,-88 1564.5,-94 1564.5,-100 1564.5,-100 1564.5,-112 1564.5,-112 1564.5,-118 1558.5,-124 1552.5,-124"/>
<text text-anchor="middle" x="1525" y="-100.2" font-family="Helvetica,sans-Serif" font-size="14.00" fill="#c0caf5">jupyterhub</text>
</g>
<!-- supabase&#45;&gt;jupyterhub -->
<g id="edge10" class="edge">
<title>supabase&#45;&gt;jupyterhub</title>
<path fill="none" stroke="#3d4261" d="M1014.52,-265.85C1095.88,-265.14 1286.15,-261.29 1347,-241 1411,-219.66 1470.42,-165.2 1501.79,-132.65"/>
<polygon fill="#3d4261" stroke="#3d4261" points="1504.14,-135.26 1508.47,-125.59 1499.05,-130.45 1504.14,-135.26"/>
</g>
<!-- open&#45;webui -->
<g id="node24" class="node">
<title>open&#45;webui</title>
<path fill="#bb9af7" fill-opacity="0.200000" stroke="#2b2f4a" d="M1370.88,-124C1370.88,-124 1309.12,-124 1309.12,-124 1303.12,-124 1297.12,-118 1297.12,-112 1297.12,-112 1297.12,-100 1297.12,-100 1297.12,-94 1303.12,-88 1309.12,-88 1309.12,-88 1370.88,-88 1370.88,-88 1376.88,-88 1382.88,-94 1382.88,-100 1382.88,-100 1382.88,-112 1382.88,-112 1382.88,-118 1376.88,-124 1370.88,-124"/>
<text text-anchor="middle" x="1340" y="-100.2" font-family="Helvetica,sans-Serif" font-size="14.00" fill="#c0caf5">open&#45;webui</text>
</g>
<!-- supabase&#45;&gt;open&#45;webui -->
<g id="edge27" class="edge">
<title>supabase&#45;&gt;open&#45;webui</title>
<path fill="none" stroke="#3d4261" d="M1014.32,-265.67C1074.78,-264.56 1191.01,-259.96 1227,-241 1272.72,-216.91 1307.5,-165.82 1325.74,-134.15"/>
<polygon fill="#3d4261" stroke="#3d4261" points="1328.73,-135.98 1330.55,-125.54 1322.62,-132.57 1328.73,-135.98"/>
</g>
<!-- local&#45;deep&#45;researcher -->
<g id="node25" class="node">
<title>local&#45;deep&#45;researcher</title>
<path fill="#bb9af7" fill-opacity="0.200000" stroke="#2b2f4a" d="M1266.62,-124C1266.62,-124 1143.38,-124 1143.38,-124 1137.38,-124 1131.38,-118 1131.38,-112 1131.38,-112 1131.38,-100 1131.38,-100 1131.38,-94 1137.38,-88 1143.38,-88 1143.38,-88 1266.62,-88 1266.62,-88 1272.62,-88 1278.62,-94 1278.62,-100 1278.62,-100 1278.62,-112 1278.62,-112 1278.62,-118 1272.62,-124 1266.62,-124"/>
<text text-anchor="middle" x="1205" y="-100.2" font-family="Helvetica,sans-Serif" font-size="14.00" fill="#c0caf5">local&#45;deep&#45;researcher</text>
</g>
<!-- supabase&#45;&gt;local&#45;deep&#45;researcher -->
<g id="edge17" class="edge">
<title>supabase&#45;&gt;local&#45;deep&#45;researcher</title>
<path fill="none" stroke="#3d4261" d="M1014.39,-264.55C1075.56,-261.79 1191.55,-254.8 1204,-241 1229.6,-212.64 1222.77,-165.53 1214.58,-135.39"/>
<polygon fill="#3d4261" stroke="#3d4261" points="1217.94,-134.42 1211.75,-125.82 1211.23,-136.41 1217.94,-134.42"/>
</g>
<!-- redis&#45;&gt;kong -->
<g id="edge14" class="edge">
<title>redis&#45;&gt;kong</title>
<path fill="none" stroke="#3d4261" d="M1080,-172C1080,-161.5 1080,-147.89 1080,-135.83"/>
<polygon fill="#3d4261" stroke="#3d4261" points="1083.5,-135.98 1080,-125.98 1076.5,-135.98 1083.5,-135.98"/>
</g>
<!-- redis&#45;&gt;ray -->
<g id="edge33" class="edge">
<title>redis&#45;&gt;ray</title>
<path fill="none" stroke="#3d4261" d="M1059.51,-172.02C1054.25,-167.19 1048.74,-161.81 1044,-156.5 1037.63,-149.37 1031.29,-141.13 1025.75,-133.45"/>
<polygon fill="#3d4261" stroke="#3d4261" points="1028.69,-131.55 1020.08,-125.38 1022.96,-135.57 1028.69,-131.55"/>
</g>
<!-- redis&#45;&gt;litellm -->
<g id="edge16" class="edge">
<title>redis&#45;&gt;litellm</title>
<path fill="none" stroke="#3d4261" d="M1072.5,-208.83C1065.36,-223.12 1053,-241.18 1035,-245 1009.46,-250.42 826.09,-246.13 800,-245 575.82,-235.31 307.96,-206.27 209.63,-195.02"/>
<polygon fill="#3d4261" stroke="#3d4261" points="210.06,-191.55 199.73,-193.88 209.26,-198.5 210.06,-191.55"/>
</g>
<!-- searxng -->
<g id="node15" class="node">
<title>searxng</title>
<path fill="#7aa2f7" fill-opacity="0.200000" stroke="#2b2f4a" d="M620,-124C620,-124 580,-124 580,-124 574,-124 568,-118 568,-112 568,-112 568,-100 568,-100 568,-94 574,-88 580,-88 580,-88 620,-88 620,-88 626,-88 632,-94 632,-100 632,-100 632,-112 632,-112 632,-118 626,-124 620,-124"/>
<text text-anchor="middle" x="600" y="-100.2" font-family="Helvetica,sans-Serif" font-size="14.00" fill="#c0caf5">searxng</text>
</g>
<!-- redis&#45;&gt;searxng -->
<g id="edge35" class="edge">
<title>redis&#45;&gt;searxng</title>
<path fill="none" stroke="#3d4261" d="M1059.41,-172.19C1054.62,-169.06 1049.36,-166.24 1044,-164.5 1001.71,-150.79 684.37,-175.12 644,-156.5 633.15,-151.5 623.86,-142.4 616.65,-133.36"/>
<polygon fill="#3d4261" stroke="#3d4261" points="619.53,-131.36 610.8,-125.35 613.87,-135.49 619.53,-131.36"/>
</g>
<!-- redis&#45;&gt;n8n -->
<g id="edge22" class="edge">
<title>redis&#45;&gt;n8n</title>
<path fill="none" stroke="#3d4261" d="M1058.97,-172.07C1054.3,-169.03 1049.18,-166.28 1044,-164.5 1012.21,-153.61 922.83,-171.96 893,-156.5 883.26,-151.45 875.17,-142.76 868.93,-134.06"/>
<polygon fill="#3d4261" stroke="#3d4261" points="871.88,-132.18 863.5,-125.7 866,-135.99 871.88,-132.18"/>
</g>
<!-- redis&#45;&gt;backend -->
<g id="edge2" class="edge">
<title>redis&#45;&gt;backend</title>
<path fill="none" stroke="#3d4261" d="M1100.6,-172.23C1105.39,-169.09 1110.65,-166.26 1116,-164.5 1145.14,-154.91 1364.35,-169.79 1392,-156.5 1402.55,-151.43 1411.46,-142.32 1418.32,-133.28"/>
<polygon fill="#3d4261" stroke="#3d4261" points="1421.02,-135.53 1423.84,-125.31 1415.27,-131.54 1421.02,-135.53"/>
</g>
<!-- redis&#45;&gt;jupyterhub -->
<g id="edge11" class="edge">
<title>redis&#45;&gt;jupyterhub</title>
<path fill="none" stroke="#3d4261" d="M1100.6,-172.2C1105.38,-169.07 1110.65,-166.24 1116,-164.5 1154.15,-152.09 1440.23,-172.55 1477,-156.5 1488.52,-151.47 1498.67,-142.24 1506.62,-133.1"/>
<polygon fill="#3d4261" stroke="#3d4261" points="1509.34,-135.32 1512.88,-125.33 1503.88,-130.93 1509.34,-135.32"/>
</g>
<!-- redis&#45;&gt;open&#45;webui -->
<g id="edge28" class="edge">
<title>redis&#45;&gt;open&#45;webui</title>
<path fill="none" stroke="#3d4261" d="M1101.02,-172.05C1105.69,-169.01 1110.81,-166.26 1116,-164.5 1152.24,-152.22 1252.81,-171.53 1288,-156.5 1300.29,-151.25 1311.4,-141.72 1320.17,-132.41"/>
<polygon fill="#3d4261" stroke="#3d4261" points="1322.55,-135.01 1326.53,-125.19 1317.29,-130.38 1322.55,-135.01"/>
</g>
<!-- litellm&#45;&gt;weaviate -->
<g id="edge40" class="edge">
<title>litellm&#45;&gt;weaviate</title>
<path fill="none" stroke="#3d4261" d="M198.27,-193.53C288.99,-203.44 588.99,-234.84 838,-245 867.86,-246.22 1077.76,-251.2 1107,-245 1122.18,-241.78 1134.59,-230.02 1143.58,-218.25"/>
<polygon fill="#3d4261" stroke="#3d4261" points="1146.34,-220.41 1149.18,-210.21 1140.59,-216.41 1146.34,-220.41"/>
</g>
<!-- cloud&#45;providers -->
<g id="node10" class="node">
<title>cloud&#45;providers</title>
<path fill="#e0af68" fill-opacity="0.200000" stroke="#2b2f4a" d="M186.12,-124C186.12,-124 101.88,-124 101.88,-124 95.88,-124 89.88,-118 89.88,-112 89.88,-112 89.88,-100 89.88,-100 89.88,-94 95.88,-88 101.88,-88 101.88,-88 186.12,-88 186.12,-88 192.12,-88 198.12,-94 198.12,-100 198.12,-100 198.12,-112 198.12,-112 198.12,-118 192.12,-124 186.12,-124"/>
<text text-anchor="middle" x="144" y="-100.2" font-family="Helvetica,sans-Serif" font-size="14.00" fill="#c0caf5">cloud&#45;providers</text>
</g>
<!-- litellm&#45;&gt;cloud&#45;providers -->
<g id="edge5" class="edge">
<title>litellm&#45;&gt;cloud&#45;providers</title>
<path fill="none" stroke="#3d4261" d="M165.27,-172C161.77,-161.28 157.2,-147.32 153.19,-135.08"/>
<polygon fill="#3d4261" stroke="#3d4261" points="156.63,-134.32 150.19,-125.91 149.97,-136.5 156.63,-134.32"/>
</g>
<!-- litellm&#45;&gt;ollama -->
<g id="edge26" class="edge">
<title>litellm&#45;&gt;ollama</title>
<path fill="none" stroke="#3d4261" d="M143.53,-181.33C120.97,-174.27 91.14,-164.06 81,-156.5 72.71,-150.33 65.42,-141.79 59.56,-133.55"/>
<polygon fill="#3d4261" stroke="#3d4261" points="62.62,-131.83 54.18,-125.42 56.78,-135.69 62.62,-131.83"/>
</g>
<!-- litellm&#45;&gt;comfyui -->
<g id="edge7" class="edge">
<title>litellm&#45;&gt;comfyui</title>
<path fill="none" stroke="#3d4261" d="M198.29,-189.15C264,-187.91 429.11,-182.24 477,-156.5 486.96,-151.15 495.46,-142.27 502.09,-133.51"/>
<polygon fill="#3d4261" stroke="#3d4261" points="504.86,-135.66 507.68,-125.45 499.11,-131.68 504.86,-135.66"/>
</g>
<!-- parakeet -->
<g id="node14" class="node">
<title>parakeet</title>
<path fill="#7aa2f7" fill-opacity="0.200000" stroke="#2b2f4a" d="M456.25,-124C456.25,-124 411.75,-124 411.75,-124 405.75,-124 399.75,-118 399.75,-112 399.75,-112 399.75,-100 399.75,-100 399.75,-94 405.75,-88 411.75,-88 411.75,-88 456.25,-88 456.25,-88 462.25,-88 468.25,-94 468.25,-100 468.25,-100 468.25,-112 468.25,-112 468.25,-118 462.25,-124 456.25,-124"/>
<text text-anchor="middle" x="434" y="-100.2" font-family="Helvetica,sans-Serif" font-size="14.00" fill="#c0caf5">parakeet</text>
</g>
<!-- litellm&#45;&gt;parakeet -->
<g id="edge31" class="edge">
<title>litellm&#45;&gt;parakeet</title>
<path fill="none" stroke="#3d4261" d="M198.48,-187.75C249.88,-184.09 358.33,-174.44 391,-156.5 401.11,-150.95 409.96,-142.03 416.95,-133.29"/>
<polygon fill="#3d4261" stroke="#3d4261" points="419.76,-135.38 422.89,-125.25 414.13,-131.21 419.76,-135.38"/>
</g>
<!-- tts&#45;provider -->
<g id="node16" class="node">
<title>tts&#45;provider</title>
<path fill="#7aa2f7" fill-opacity="0.200000" stroke="#2b2f4a" d="M369.75,-124C369.75,-124 310.25,-124 310.25,-124 304.25,-124 298.25,-118 298.25,-112 298.25,-112 298.25,-100 298.25,-100 298.25,-94 304.25,-88 310.25,-88 310.25,-88 369.75,-88 369.75,-88 375.75,-88 381.75,-94 381.75,-100 381.75,-100 381.75,-112 381.75,-112 381.75,-118 375.75,-124 369.75,-124"/>
<text text-anchor="middle" x="340" y="-100.2" font-family="Helvetica,sans-Serif" font-size="14.00" fill="#c0caf5">tts&#45;provider</text>
</g>
<!-- litellm&#45;&gt;tts&#45;provider -->
<g id="edge38" class="edge">
<title>litellm&#45;&gt;tts&#45;provider</title>
<path fill="none" stroke="#3d4261" d="M198.26,-185.81C223.18,-181.56 260.41,-172.93 289,-156.5 299.75,-150.32 309.92,-141.37 318.31,-132.76"/>
<polygon fill="#3d4261" stroke="#3d4261" points="320.8,-135.22 325.03,-125.51 315.67,-130.47 320.8,-135.22"/>
</g>
<!-- hermes -->
<g id="node19" class="node">
<title>hermes</title>
<path fill="#9ece6a" fill-opacity="0.200000" stroke="#2b2f4a" d="M705.88,-124C705.88,-124 668.12,-124 668.12,-124 662.12,-124 656.12,-118 656.12,-112 656.12,-112 656.12,-100 656.12,-100 656.12,-94 662.12,-88 668.12,-88 668.12,-88 705.88,-88 705.88,-88 711.88,-88 717.88,-94 717.88,-100 717.88,-100 717.88,-112 717.88,-112 717.88,-118 711.88,-124 705.88,-124"/>
<text text-anchor="middle" x="687" y="-100.2" font-family="Helvetica,sans-Serif" font-size="14.00" fill="#c0caf5">hermes</text>
</g>
<!-- litellm&#45;&gt;hermes -->
<g id="edge9" class="edge">
<title>litellm&#45;&gt;hermes</title>
<path fill="none" stroke="#3d4261" d="M198.46,-188.81C293.4,-186.24 604.13,-176.38 644,-156.5 654.43,-151.3 663.4,-142.33 670.41,-133.45"/>
<polygon fill="#3d4261" stroke="#3d4261" points="673.05,-135.76 676.09,-125.61 667.39,-131.66 673.05,-135.76"/>
</g>
<!-- litellm&#45;&gt;n8n -->
<g id="edge23" class="edge">
<title>litellm&#45;&gt;n8n</title>
<path fill="none" stroke="#3d4261" d="M198.3,-188.76C317.83,-185.45 790.37,-171.47 818,-156.5 827.37,-151.42 834.92,-142.73 840.64,-134.03"/>
<polygon fill="#3d4261" stroke="#3d4261" points="843.49,-136.1 845.55,-125.71 837.46,-132.54 843.49,-136.1"/>
</g>
<!-- openclaw -->
<g id="node21" class="node">
<title>openclaw</title>
<path fill="#9ece6a" fill-opacity="0.200000" stroke="#2b2f4a" d="M796.5,-124C796.5,-124 747.5,-124 747.5,-124 741.5,-124 735.5,-118 735.5,-112 735.5,-112 735.5,-100 735.5,-100 735.5,-94 741.5,-88 747.5,-88 747.5,-88 796.5,-88 796.5,-88 802.5,-88 808.5,-94 808.5,-100 808.5,-100 808.5,-112 808.5,-112 808.5,-118 802.5,-124 796.5,-124"/>
<text text-anchor="middle" x="772" y="-100.2" font-family="Helvetica,sans-Serif" font-size="14.00" fill="#c0caf5">openclaw</text>
</g>
<!-- litellm&#45;&gt;openclaw -->
<g id="edge30" class="edge">
<title>litellm&#45;&gt;openclaw</title>
<path fill="none" stroke="#3d4261" d="M198.41,-189.08C303.74,-187.31 679.08,-179.42 727,-156.5 737.73,-151.37 747.08,-142.42 754.43,-133.53"/>
<polygon fill="#3d4261" stroke="#3d4261" points="757.16,-135.73 760.43,-125.65 751.59,-131.49 757.16,-135.73"/>
</g>
<!-- litellm&#45;&gt;backend -->
<g id="edge3" class="edge">
<title>litellm&#45;&gt;backend</title>
<path fill="none" stroke="#3d4261" d="M198.36,-188.38C294.29,-184.48 624.36,-171.4 897,-164.5 910.75,-164.15 1379.57,-162.38 1392,-156.5 1402.59,-151.49 1411.5,-142.4 1418.35,-133.35"/>
<polygon fill="#3d4261" stroke="#3d4261" points="1421.06,-135.59 1423.87,-125.37 1415.31,-131.61 1421.06,-135.59"/>
</g>
<!-- litellm&#45;&gt;jupyterhub -->
<g id="edge12" class="edge">
<title>litellm&#45;&gt;jupyterhub</title>
<path fill="none" stroke="#3d4261" d="M198.36,-188.35C294.28,-184.38 624.35,-171.07 897,-164.5 913.11,-164.11 1462.21,-162.88 1477,-156.5 1488.54,-151.52 1498.69,-142.3 1506.65,-133.15"/>
<polygon fill="#3d4261" stroke="#3d4261" points="1509.36,-135.36 1512.9,-125.37 1503.91,-130.98 1509.36,-135.36"/>
</g>
<!-- litellm&#45;&gt;open&#45;webui -->
<g id="edge29" class="edge">
<title>litellm&#45;&gt;open&#45;webui</title>
<path fill="none" stroke="#3d4261" d="M198.36,-188.42C294.29,-184.66 624.38,-171.98 897,-164.5 918.72,-163.9 1267.91,-164.77 1288,-156.5 1300.35,-151.41 1311.48,-141.91 1320.24,-132.58"/>
<polygon fill="#3d4261" stroke="#3d4261" points="1322.63,-135.15 1326.59,-125.33 1317.37,-130.54 1322.63,-135.15"/>
</g>
<!-- litellm&#45;&gt;local&#45;deep&#45;researcher -->
<g id="edge19" class="edge">
<title>litellm&#45;&gt;local&#45;deep&#45;researcher</title>
<path fill="none" stroke="#3d4261" d="M198.31,-188.56C353.49,-183.22 1117.58,-156.91 1119,-156.5 1137.89,-151.1 1157.01,-140.69 1172.41,-130.8"/>
<polygon fill="#3d4261" stroke="#3d4261" points="1174.32,-133.74 1180.7,-125.28 1170.43,-127.92 1174.32,-133.74"/>
</g>
<!-- ollama&#45;&gt;comfyui -->
<g id="edge8" class="edge">
<title>ollama&#45;&gt;comfyui</title>
<path fill="none" stroke="#3d4261" d="M51.78,-124.31C59.16,-138.6 71.83,-156.64 90,-160.5 110.54,-164.86 447.46,-164.86 468,-160.5 482.87,-157.35 494.67,-145.46 503.07,-133.59"/>
<polygon fill="#3d4261" stroke="#3d4261" points="505.8,-135.82 508.26,-125.51 499.91,-132.04 505.8,-135.82"/>
</g>
<!-- docling -->
<g id="node12" class="node">
<title>docling</title>
<path fill="#7aa2f7" fill-opacity="0.200000" stroke="#2b2f4a" d="M268.38,-124C268.38,-124 233.62,-124 233.62,-124 227.62,-124 221.62,-118 221.62,-112 221.62,-112 221.62,-100 221.62,-100 221.62,-94 227.62,-88 233.62,-88 233.62,-88 268.38,-88 268.38,-88 274.38,-88 280.38,-94 280.38,-100 280.38,-100 280.38,-112 280.38,-112 280.38,-118 274.38,-124 268.38,-124"/>
<text text-anchor="middle" x="251" y="-100.2" font-family="Helvetica,sans-Serif" font-size="14.00" fill="#c0caf5">docling</text>
</g>
<!-- speaches -->
<g id="node18" class="node">
<title>speaches</title>
<path fill="#7aa2f7" fill-opacity="0.200000" stroke="#2b2f4a" d="M458.88,-52C458.88,-52 409.12,-52 409.12,-52 403.12,-52 397.12,-46 397.12,-40 397.12,-40 397.12,-28 397.12,-28 397.12,-22 403.12,-16 409.12,-16 409.12,-16 458.88,-16 458.88,-16 464.88,-16 470.88,-22 470.88,-28 470.88,-28 470.88,-40 470.88,-40 470.88,-46 464.88,-52 458.88,-52"/>
<text text-anchor="middle" x="434" y="-28.2" font-family="Helvetica,sans-Serif" font-size="14.00" fill="#c0caf5">speaches</text>
</g>
<!-- parakeet&#45;&gt;speaches -->
<g id="edge36" class="edge">
<title>parakeet&#45;&gt;speaches</title>
<path fill="none" stroke="#3d4261" d="M434,-87.7C434,-80.41 434,-71.73 434,-63.54"/>
<polygon fill="#3d4261" stroke="#3d4261" points="437.5,-63.62 434,-53.62 430.5,-63.62 437.5,-63.62"/>
</g>
<!-- searxng&#45;&gt;local&#45;deep&#45;researcher -->
<g id="edge18" class="edge">
<title>searxng&#45;&gt;local&#45;deep&#45;researcher</title>
<path fill="none" stroke="#3d4261" d="M609.96,-124.46C618.96,-138.62 633.76,-156.42 653,-160.5 677.84,-165.77 1085.16,-165.77 1110,-160.5 1132.91,-155.64 1155.77,-142.83 1173.32,-130.86"/>
<polygon fill="#3d4261" stroke="#3d4261" points="1175.13,-133.87 1181.26,-125.22 1171.08,-128.16 1175.13,-133.87"/>
</g>
<!-- chatterbox -->
<g id="node17" class="node">
<title>chatterbox</title>
<path fill="#7aa2f7" fill-opacity="0.200000" stroke="#2b2f4a" d="M367.5,-52C367.5,-52 312.5,-52 312.5,-52 306.5,-52 300.5,-46 300.5,-40 300.5,-40 300.5,-28 300.5,-28 300.5,-22 306.5,-16 312.5,-16 312.5,-16 367.5,-16 367.5,-16 373.5,-16 379.5,-22 379.5,-28 379.5,-28 379.5,-40 379.5,-40 379.5,-46 373.5,-52 367.5,-52"/>
<text text-anchor="middle" x="340" y="-28.2" font-family="Helvetica,sans-Serif" font-size="14.00" fill="#c0caf5">chatterbox</text>
</g>
<!-- tts&#45;provider&#45;&gt;chatterbox -->
<g id="edge4" class="edge">
<title>tts&#45;provider&#45;&gt;chatterbox</title>
<path fill="none" stroke="#3d4261" d="M340,-87.7C340,-80.41 340,-71.73 340,-63.54"/>
<polygon fill="#3d4261" stroke="#3d4261" points="343.5,-63.62 340,-53.62 336.5,-63.62 343.5,-63.62"/>
</g>
<!-- tts&#45;provider&#45;&gt;speaches -->
<g id="edge37" class="edge">
<title>tts&#45;provider&#45;&gt;speaches</title>
<path fill="none" stroke="#3d4261" d="M363.24,-87.7C374.87,-79.03 389.15,-68.4 401.82,-58.96"/>
<polygon fill="#3d4261" stroke="#3d4261" points="403.56,-62.03 409.49,-53.25 399.38,-56.42 403.56,-62.03"/>
</g>
</g>
</svg>
