<?xml version="1.0" encoding="UTF-8"?>
<svg xmlns="http://www.w3.org/2000/svg" viewBox="0 0 1400 1240" preserveAspectRatio="xMidYMid meet" font-family="'JetBrains Mono', 'Fira Code', Menlo, Consolas, monospace">
  <title>Atlas — Architecture</title>
  <desc>Topologically-ordered architecture diagram of the Atlas stack: external clients enter via Kong, the gateway routes to Apps and Agents, which call the LLM Core (LiteLLM → Ollama + cloud + TEI Reranker) and the Media + Data layers; Ray + Spark supply distributed compute; Prometheus + Grafana provide observability.</desc>

  <defs>
    <pattern id="grid" width="40" height="40" patternUnits="userSpaceOnUse">
      <path d="M 40 0 L 0 0 0 40" fill="none" stroke="#1e293b" stroke-width="0.5"/>
    </pattern>

    <marker id="arrow" markerWidth="10" markerHeight="7" refX="9" refY="3.5" orient="auto">
      <polygon points="0 0, 10 3.5, 0 7" fill="#64748b"/>
    </marker>
    <marker id="arrow-cyan" markerWidth="10" markerHeight="7" refX="9" refY="3.5" orient="auto">
      <polygon points="0 0, 10 3.5, 0 7" fill="#22d3ee"/>
    </marker>
    <marker id="arrow-emerald" markerWidth="10" markerHeight="7" refX="9" refY="3.5" orient="auto">
      <polygon points="0 0, 10 3.5, 0 7" fill="#34d399"/>
    </marker>
    <marker id="arrow-amber" markerWidth="10" markerHeight="7" refX="9" refY="3.5" orient="auto">
      <polygon points="0 0, 10 3.5, 0 7" fill="#fbbf24"/>
    </marker>
    <marker id="arrow-rose" markerWidth="10" markerHeight="7" refX="9" refY="3.5" orient="auto">
      <polygon points="0 0, 10 3.5, 0 7" fill="#fb7185"/>
    </marker>
    <marker id="arrow-slate" markerWidth="10" markerHeight="7" refX="9" refY="3.5" orient="auto">
      <polygon points="0 0, 10 3.5, 0 7" fill="#94a3b8"/>
    </marker>
  </defs>

  <!-- Background -->
  <rect width="1400" height="1240" fill="#020617"/>
  <rect width="1400" height="1240" fill="url(#grid)"/>

  <!-- ─────────────────  HEADER  ───────────────── -->
  <g transform="translate(60, 30)">
    <circle cx="0" cy="22" r="6" fill="#22d3ee">
      <animate attributeName="opacity" values="0.4;1;0.4" dur="2s" repeatCount="indefinite"/>
    </circle>
    <text x="20" y="22" fill="#e2e8f0" font-size="22" font-weight="700" dominant-baseline="middle">Atlas — Architecture</text>
    <text x="20" y="46" fill="#94a3b8" font-size="11" dominant-baseline="middle">Topologically-ordered • SOURCE-configurable • Kong-fronted • LiteLLM-routed</text>
  </g>

  <!-- ─────────────────  FLOW ARROWS (drawn first to render behind boxes)  ───────────────── -->

  <!-- External clients → Kong -->
  <line x1="450" y1="160" x2="610" y2="208" stroke="#94a3b8" stroke-width="1.5" marker-end="url(#arrow)"/>
  <line x1="700" y1="160" x2="700" y2="208" stroke="#94a3b8" stroke-width="1.5" marker-end="url(#arrow)"/>
  <line x1="950" y1="160" x2="790" y2="208" stroke="#94a3b8" stroke-width="1.5" marker-end="url(#arrow)"/>

  <!-- Kong → Apps (rose trunk + dashed tee fan-out, 5 stems) -->
  <line x1="700" y1="258" x2="700" y2="295" stroke="#fb7185" stroke-width="2" marker-end="url(#arrow-rose)"/>
  <line x1="200" y1="295" x2="1200" y2="295" stroke="#fb7185" stroke-width="1" stroke-dasharray="3,3" opacity="0.55"/>
  <line x1="200" y1="295" x2="200" y2="308" stroke="#fb7185" stroke-width="1" stroke-dasharray="3,3" opacity="0.55"/>
  <line x1="450" y1="295" x2="450" y2="308" stroke="#fb7185" stroke-width="1" stroke-dasharray="3,3" opacity="0.55"/>
  <line x1="700" y1="295" x2="700" y2="308" stroke="#fb7185" stroke-width="1" stroke-dasharray="3,3" opacity="0.55"/>
  <line x1="950" y1="295" x2="950" y2="308" stroke="#fb7185" stroke-width="1" stroke-dasharray="3,3" opacity="0.55"/>
  <line x1="1200" y1="295" x2="1200" y2="308" stroke="#fb7185" stroke-width="1" stroke-dasharray="3,3" opacity="0.55"/>

  <!-- Kong → Agents (fan-out for Hermes, n8n, OpenClaw, LightRAG, Airflow that have Kong host-aliases) -->
  <line x1="450" y1="258" x2="450" y2="295" stroke="#fb7185" stroke-width="1" stroke-dasharray="3,3" opacity="0.4"/>
  <line x1="950" y1="258" x2="950" y2="295" stroke="#fb7185" stroke-width="1" stroke-dasharray="3,3" opacity="0.4"/>

  <!-- Apps → Agents (cyan, partial) -->
  <line x1="450" y1="360" x2="450" y2="428" stroke="#22d3ee" stroke-width="1.5" marker-end="url(#arrow-cyan)" opacity="0.55"/>
  <line x1="700" y1="360" x2="700" y2="428" stroke="#22d3ee" stroke-width="1.5" marker-end="url(#arrow-cyan)" opacity="0.55"/>

  <!-- Apps → LLM (Open WebUI + Backend → LiteLLM) -->
  <line x1="200" y1="360" x2="200" y2="548" stroke="#22d3ee" stroke-width="1.5" marker-end="url(#arrow-cyan)" opacity="0.6"/>

  <!-- Agents → LLM (Hermes, n8n, LightRAG, Airflow → LiteLLM) -->
  <line x1="200" y1="480" x2="200" y2="548" stroke="#34d399" stroke-width="1.5" marker-end="url(#arrow-emerald)" opacity="0.65"/>
  <line x1="700" y1="480" x2="700" y2="548" stroke="#34d399" stroke-width="1.5" marker-end="url(#arrow-emerald)" opacity="0.6"/>

  <!-- LiteLLM → Ollama + Cloud + TEI Reranker (within LLM band) -->
  <line x1="375" y1="574" x2="405" y2="574" stroke="#fbbf24" stroke-width="1.5" marker-end="url(#arrow-amber)"/>
  <line x1="685" y1="574" x2="715" y2="574" stroke="#fbbf24" stroke-width="1.5" marker-end="url(#arrow-amber)"/>

  <!-- Apps → Media (Open WebUI tools, Backend RAG) -->
  <line x1="450" y1="360" x2="450" y2="668" stroke="#22d3ee" stroke-width="1.5" marker-end="url(#arrow-cyan)" opacity="0.5"/>

  <!-- Agents → Media (Hermes media skills + n8n actions + LightRAG ingest pipeline) -->
  <line x1="450" y1="480" x2="450" y2="668" stroke="#34d399" stroke-width="1.5" marker-end="url(#arrow-emerald)" opacity="0.5"/>

  <!-- Apps → Data (Backend writes to data tier; Zeppelin reads via JDBC/S3A) -->
  <line x1="700" y1="360" x2="700" y2="788" stroke="#22d3ee" stroke-width="1.5" marker-end="url(#arrow-cyan)" opacity="0.45"/>
  <line x1="1200" y1="360" x2="1200" y2="788" stroke="#22d3ee" stroke-width="1.5" marker-end="url(#arrow-cyan)" opacity="0.4"/>

  <!-- Agents → Data (n8n / LightRAG / Airflow writes) -->
  <line x1="950" y1="480" x2="950" y2="788" stroke="#34d399" stroke-width="1.5" marker-end="url(#arrow-emerald)" opacity="0.45"/>

  <!-- Apps → Compute (Backend → Ray; Zeppelin → Spark Connect) -->
  <line x1="700" y1="360" x2="700" y2="928" stroke="#22d3ee" stroke-width="1.5" marker-end="url(#arrow-cyan)" opacity="0.35"/>
  <line x1="1200" y1="360" x2="1020" y2="928" stroke="#22d3ee" stroke-width="1.5" marker-end="url(#arrow-cyan)" opacity="0.35"/>

  <!-- Agents → Compute (Airflow → Spark) -->
  <line x1="1200" y1="480" x2="1020" y2="928" stroke="#34d399" stroke-width="1.5" marker-end="url(#arrow-emerald)" opacity="0.35"/>

  <!-- Prometheus scrape indicator: dashed slate line across the stack -->
  <line x1="60" y1="985" x2="1340" y2="985" stroke="#64748b" stroke-width="1" stroke-dasharray="2,3" opacity="0.4"/>

  <!-- ─────────────────  EXTERNAL CLIENTS  ───────────────── -->
  <g>
    <rect x="60" y="92" width="1280" height="76" rx="8" fill="none" stroke="#334155" stroke-width="1" stroke-dasharray="6,4"/>
    <text x="76" y="108" fill="#64748b" font-size="10" font-weight="600" letter-spacing="2">EXTERNAL CLIENTS</text>

    <rect x="350" y="116" width="200" height="44" rx="6" fill="#0f172a"/>
    <rect x="350" y="116" width="200" height="44" rx="6" fill="rgba(30, 41, 59, 0.5)" stroke="#94a3b8" stroke-width="1.5"/>
    <text x="450" y="135" fill="#e2e8f0" font-size="12" font-weight="600" text-anchor="middle">Browser</text>
    <text x="450" y="151" fill="#94a3b8" font-size="9" text-anchor="middle">*.localhost UIs</text>

    <rect x="600" y="116" width="200" height="44" rx="6" fill="#0f172a"/>
    <rect x="600" y="116" width="200" height="44" rx="6" fill="rgba(30, 41, 59, 0.5)" stroke="#94a3b8" stroke-width="1.5"/>
    <text x="700" y="135" fill="#e2e8f0" font-size="12" font-weight="600" text-anchor="middle">Python / IDE</text>
    <text x="700" y="151" fill="#94a3b8" font-size="9" text-anchor="middle">OpenAI SDK ▸ LiteLLM</text>

    <rect x="850" y="116" width="200" height="44" rx="6" fill="#0f172a"/>
    <rect x="850" y="116" width="200" height="44" rx="6" fill="rgba(30, 41, 59, 0.5)" stroke="#94a3b8" stroke-width="1.5"/>
    <text x="950" y="135" fill="#e2e8f0" font-size="12" font-weight="600" text-anchor="middle">CLI</text>
    <text x="950" y="151" fill="#94a3b8" font-size="9" text-anchor="middle">./start.sh wizard</text>
  </g>

  <!-- ─────────────────  INFRA / KONG  ───────────────── -->
  <g>
    <rect x="60" y="180" width="1280" height="92" rx="10" fill="none" stroke="#fb7185" stroke-width="1" stroke-dasharray="6,4" opacity="0.6"/>
    <text x="76" y="198" fill="#fb7185" font-size="10" font-weight="600" letter-spacing="2">INFRA — API GATEWAY</text>

    <rect x="400" y="208" width="600" height="50" rx="6" fill="#0f172a"/>
    <rect x="400" y="208" width="600" height="50" rx="6" fill="rgba(136, 19, 55, 0.4)" stroke="#fb7185" stroke-width="1.5"/>
    <text x="700" y="227" fill="#fecdd3" font-size="13" font-weight="700" text-anchor="middle">Kong API Gateway</text>
    <text x="700" y="244" fill="#fda4af" font-size="9" text-anchor="middle">dynamic routes • *.localhost aliases • basic-auth + ACLs</text>
  </g>

  <!-- ─────────────────  APPS & UIs  ───────────────── -->
  <g>
    <rect x="60" y="280" width="1280" height="92" rx="10" fill="none" stroke="#22d3ee" stroke-width="1" stroke-dasharray="6,4" opacity="0.5"/>
    <text x="76" y="298" fill="#22d3ee" font-size="10" font-weight="600" letter-spacing="2">APPS &amp; UIs</text>

    <rect x="85" y="308" width="230" height="52" rx="6" fill="#0f172a"/>
    <rect x="85" y="308" width="230" height="52" rx="6" fill="rgba(8, 51, 68, 0.4)" stroke="#22d3ee" stroke-width="1.5"/>
    <text x="200" y="328" fill="#cffafe" font-size="12" font-weight="600" text-anchor="middle">Open WebUI</text>
    <text x="200" y="346" fill="#67e8f9" font-size="9" text-anchor="middle">main chat UI ▸ LiteLLM</text>

    <rect x="335" y="308" width="230" height="52" rx="6" fill="#0f172a"/>
    <rect x="335" y="308" width="230" height="52" rx="6" fill="rgba(8, 51, 68, 0.4)" stroke="#22d3ee" stroke-width="1.5"/>
    <text x="450" y="328" fill="#cffafe" font-size="12" font-weight="600" text-anchor="middle">JupyterHub</text>
    <text x="450" y="346" fill="#67e8f9" font-size="9" text-anchor="middle">notebooks ▸ data science IDE</text>

    <rect x="585" y="308" width="230" height="52" rx="6" fill="#0f172a"/>
    <rect x="585" y="308" width="230" height="52" rx="6" fill="rgba(8, 51, 68, 0.4)" stroke="#22d3ee" stroke-width="1.5"/>
    <text x="700" y="328" fill="#cffafe" font-size="12" font-weight="600" text-anchor="middle">Backend API</text>
    <text x="700" y="346" fill="#67e8f9" font-size="9" text-anchor="middle">FastAPI orchestrator</text>

    <rect x="835" y="308" width="230" height="52" rx="6" fill="#0f172a"/>
    <rect x="835" y="308" width="230" height="52" rx="6" fill="rgba(8, 51, 68, 0.4)" stroke="#22d3ee" stroke-width="1.5"/>
    <text x="950" y="328" fill="#cffafe" font-size="12" font-weight="600" text-anchor="middle">Local Deep Researcher</text>
    <text x="950" y="346" fill="#67e8f9" font-size="9" text-anchor="middle">LangGraph research ▸ SearxNG</text>

    <rect x="1085" y="308" width="230" height="52" rx="6" fill="#0f172a"/>
    <rect x="1085" y="308" width="230" height="52" rx="6" fill="rgba(8, 51, 68, 0.4)" stroke="#22d3ee" stroke-width="1.5"/>
    <text x="1200" y="328" fill="#cffafe" font-size="12" font-weight="600" text-anchor="middle">Zeppelin</text>
    <text x="1200" y="346" fill="#67e8f9" font-size="9" text-anchor="middle">Spark notebook ▸ SQL + Scala</text>
  </g>

  <!-- ─────────────────  AGENTS & WORKFLOWS  ───────────────── -->
  <g>
    <rect x="60" y="400" width="1280" height="92" rx="10" fill="none" stroke="#34d399" stroke-width="1" stroke-dasharray="6,4" opacity="0.5"/>
    <text x="76" y="418" fill="#34d399" font-size="10" font-weight="600" letter-spacing="2">AGENTS &amp; WORKFLOWS</text>

    <rect x="85" y="428" width="230" height="52" rx="6" fill="#0f172a"/>
    <rect x="85" y="428" width="230" height="52" rx="6" fill="rgba(6, 78, 59, 0.4)" stroke="#34d399" stroke-width="1.5"/>
    <text x="200" y="448" fill="#d1fae5" font-size="12" font-weight="600" text-anchor="middle">Hermes Agent</text>
    <text x="200" y="466" fill="#6ee7b7" font-size="9" text-anchor="middle">Nous Research ▸ /v1 + dashboard</text>

    <rect x="335" y="428" width="230" height="52" rx="6" fill="#0f172a"/>
    <rect x="335" y="428" width="230" height="52" rx="6" fill="rgba(6, 78, 59, 0.4)" stroke="#34d399" stroke-width="1.5"/>
    <text x="450" y="448" fill="#d1fae5" font-size="12" font-weight="600" text-anchor="middle">OpenClaw</text>
    <text x="450" y="466" fill="#6ee7b7" font-size="9" text-anchor="middle">messaging-platform agent</text>

    <rect x="585" y="428" width="230" height="52" rx="6" fill="#0f172a"/>
    <rect x="585" y="428" width="230" height="52" rx="6" fill="rgba(6, 78, 59, 0.4)" stroke="#34d399" stroke-width="1.5"/>
    <text x="700" y="448" fill="#d1fae5" font-size="12" font-weight="600" text-anchor="middle">n8n + Workers</text>
    <text x="700" y="466" fill="#6ee7b7" font-size="9" text-anchor="middle">workflow automation</text>

    <rect x="835" y="428" width="230" height="52" rx="6" fill="#0f172a"/>
    <rect x="835" y="428" width="230" height="52" rx="6" fill="rgba(6, 78, 59, 0.4)" stroke="#34d399" stroke-width="1.5"/>
    <text x="950" y="448" fill="#d1fae5" font-size="12" font-weight="600" text-anchor="middle">LightRAG</text>
    <text x="950" y="466" fill="#6ee7b7" font-size="9" text-anchor="middle">graph-augmented RAG server</text>

    <rect x="1085" y="428" width="230" height="52" rx="6" fill="#0f172a"/>
    <rect x="1085" y="428" width="230" height="52" rx="6" fill="rgba(6, 78, 59, 0.4)" stroke="#34d399" stroke-width="1.5"/>
    <text x="1200" y="448" fill="#d1fae5" font-size="12" font-weight="600" text-anchor="middle">Airflow</text>
    <text x="1200" y="466" fill="#6ee7b7" font-size="9" text-anchor="middle">DAG orchestrator ▸ REST API</text>
  </g>

  <!-- ─────────────────  LLM CORE  ───────────────── -->
  <g>
    <rect x="60" y="520" width="1280" height="92" rx="10" fill="none" stroke="#fbbf24" stroke-width="1" stroke-dasharray="6,4" opacity="0.5"/>
    <text x="76" y="538" fill="#fbbf24" font-size="10" font-weight="600" letter-spacing="2">LLM CORE</text>

    <rect x="95" y="548" width="280" height="52" rx="6" fill="#0f172a"/>
    <rect x="95" y="548" width="280" height="52" rx="6" fill="rgba(120, 53, 15, 0.3)" stroke="#fbbf24" stroke-width="1.5"/>
    <text x="235" y="568" fill="#fde68a" font-size="12" font-weight="600" text-anchor="middle">LiteLLM Gateway</text>
    <text x="235" y="586" fill="#fcd34d" font-size="9" text-anchor="middle">OpenAI-compatible router ▸ public.llms</text>

    <rect x="405" y="548" width="280" height="52" rx="6" fill="#0f172a"/>
    <rect x="405" y="548" width="280" height="52" rx="6" fill="rgba(120, 53, 15, 0.3)" stroke="#fbbf24" stroke-width="1.5"/>
    <text x="545" y="568" fill="#fde68a" font-size="12" font-weight="600" text-anchor="middle">Ollama</text>
    <text x="545" y="586" fill="#fcd34d" font-size="9" text-anchor="middle">local engine ▸ qwen3 / nomic-embed</text>

    <rect x="715" y="548" width="280" height="52" rx="6" fill="#0f172a"/>
    <rect x="715" y="548" width="280" height="52" rx="6" fill="rgba(120, 53, 15, 0.3)" stroke="#fbbf24" stroke-width="1.5" stroke-dasharray="3,3"/>
    <text x="855" y="568" fill="#fde68a" font-size="12" font-weight="600" text-anchor="middle">Cloud Providers</text>
    <text x="855" y="586" fill="#fcd34d" font-size="9" text-anchor="middle">OpenAI · Anthropic · OpenRouter</text>

    <rect x="1025" y="548" width="280" height="52" rx="6" fill="#0f172a"/>
    <rect x="1025" y="548" width="280" height="52" rx="6" fill="rgba(120, 53, 15, 0.3)" stroke="#fbbf24" stroke-width="1.5"/>
    <text x="1165" y="568" fill="#fde68a" font-size="12" font-weight="600" text-anchor="middle">TEI Reranker</text>
    <text x="1165" y="586" fill="#fcd34d" font-size="9" text-anchor="middle">HF text-embeddings-inference</text>
  </g>

  <!-- ─────────────────  MEDIA  ───────────────── -->
  <g>
    <rect x="60" y="640" width="1280" height="92" rx="10" fill="none" stroke="#fb923c" stroke-width="1" stroke-dasharray="6,4" opacity="0.5"/>
    <text x="76" y="658" fill="#fb923c" font-size="10" font-weight="600" letter-spacing="2">MEDIA</text>

    <rect x="85" y="668" width="230" height="52" rx="6" fill="#0f172a"/>
    <rect x="85" y="668" width="230" height="52" rx="6" fill="rgba(251, 146, 60, 0.3)" stroke="#fb923c" stroke-width="1.5"/>
    <text x="200" y="688" fill="#fed7aa" font-size="12" font-weight="600" text-anchor="middle">STT Provider</text>
    <text x="200" y="706" fill="#fdba74" font-size="9" text-anchor="middle">Speaches · Parakeet · whisper</text>

    <rect x="335" y="668" width="230" height="52" rx="6" fill="#0f172a"/>
    <rect x="335" y="668" width="230" height="52" rx="6" fill="rgba(251, 146, 60, 0.3)" stroke="#fb923c" stroke-width="1.5"/>
    <text x="450" y="688" fill="#fed7aa" font-size="12" font-weight="600" text-anchor="middle">TTS Provider</text>
    <text x="450" y="706" fill="#fdba74" font-size="9" text-anchor="middle">Speaches · Chatterbox</text>

    <rect x="585" y="668" width="230" height="52" rx="6" fill="#0f172a"/>
    <rect x="585" y="668" width="230" height="52" rx="6" fill="rgba(251, 146, 60, 0.3)" stroke="#fb923c" stroke-width="1.5"/>
    <text x="700" y="688" fill="#fed7aa" font-size="12" font-weight="600" text-anchor="middle">Docling</text>
    <text x="700" y="706" fill="#fdba74" font-size="9" text-anchor="middle">PDF/docs ▸ markdown + JSON</text>

    <rect x="835" y="668" width="230" height="52" rx="6" fill="#0f172a"/>
    <rect x="835" y="668" width="230" height="52" rx="6" fill="rgba(251, 146, 60, 0.3)" stroke="#fb923c" stroke-width="1.5"/>
    <text x="950" y="688" fill="#fed7aa" font-size="12" font-weight="600" text-anchor="middle">ComfyUI</text>
    <text x="950" y="706" fill="#fdba74" font-size="9" text-anchor="middle">node-graph image generation</text>

    <rect x="1085" y="668" width="230" height="52" rx="6" fill="#0f172a"/>
    <rect x="1085" y="668" width="230" height="52" rx="6" fill="rgba(251, 146, 60, 0.3)" stroke="#fb923c" stroke-width="1.5"/>
    <text x="1200" y="688" fill="#fed7aa" font-size="12" font-weight="600" text-anchor="middle">SearxNG</text>
    <text x="1200" y="706" fill="#fdba74" font-size="9" text-anchor="middle">privacy metasearch ▸ web RAG</text>
  </g>

  <!-- ─────────────────  DATA  ───────────────── -->
  <g>
    <rect x="60" y="760" width="1280" height="112" rx="10" fill="none" stroke="#a78bfa" stroke-width="1" stroke-dasharray="6,4" opacity="0.5"/>
    <text x="76" y="778" fill="#a78bfa" font-size="10" font-weight="600" letter-spacing="2">DATA</text>

    <rect x="85" y="788" width="380" height="72" rx="6" fill="#0f172a"/>
    <rect x="85" y="788" width="380" height="72" rx="6" fill="rgba(76, 29, 149, 0.4)" stroke="#a78bfa" stroke-width="1.5"/>
    <text x="275" y="810" fill="#ddd6fe" font-size="12" font-weight="600" text-anchor="middle">Supabase Ecosystem</text>
    <text x="275" y="828" fill="#c4b5fd" font-size="9" text-anchor="middle">Postgres + pgvector · Auth · Storage · Realtime · Studio</text>
    <text x="275" y="848" fill="#a78bfa" font-size="8" text-anchor="middle" opacity="0.85">single source of truth for public.llms</text>

    <rect x="490" y="788" width="170" height="72" rx="6" fill="#0f172a"/>
    <rect x="490" y="788" width="170" height="72" rx="6" fill="rgba(76, 29, 149, 0.4)" stroke="#a78bfa" stroke-width="1.5"/>
    <text x="575" y="816" fill="#ddd6fe" font-size="12" font-weight="600" text-anchor="middle">Weaviate</text>
    <text x="575" y="834" fill="#c4b5fd" font-size="9" text-anchor="middle">vector DB</text>
    <text x="575" y="848" fill="#a78bfa" font-size="8" text-anchor="middle" opacity="0.85">RAG · semantic search</text>

    <rect x="685" y="788" width="170" height="72" rx="6" fill="#0f172a"/>
    <rect x="685" y="788" width="170" height="72" rx="6" fill="rgba(76, 29, 149, 0.4)" stroke="#a78bfa" stroke-width="1.5"/>
    <text x="770" y="816" fill="#ddd6fe" font-size="12" font-weight="600" text-anchor="middle">Neo4j</text>
    <text x="770" y="834" fill="#c4b5fd" font-size="9" text-anchor="middle">graph DB</text>
    <text x="770" y="848" fill="#a78bfa" font-size="8" text-anchor="middle" opacity="0.85">KGs · LightRAG backend</text>

    <rect x="880" y="788" width="170" height="72" rx="6" fill="#0f172a"/>
    <rect x="880" y="788" width="170" height="72" rx="6" fill="rgba(76, 29, 149, 0.4)" stroke="#a78bfa" stroke-width="1.5"/>
    <text x="965" y="816" fill="#ddd6fe" font-size="12" font-weight="600" text-anchor="middle">Redis</text>
    <text x="965" y="834" fill="#c4b5fd" font-size="9" text-anchor="middle">cache + queue</text>
    <text x="965" y="848" fill="#a78bfa" font-size="8" text-anchor="middle" opacity="0.85">sessions · websockets</text>

    <rect x="1075" y="788" width="240" height="72" rx="6" fill="#0f172a"/>
    <rect x="1075" y="788" width="240" height="72" rx="6" fill="rgba(76, 29, 149, 0.4)" stroke="#a78bfa" stroke-width="1.5"/>
    <text x="1195" y="816" fill="#ddd6fe" font-size="12" font-weight="600" text-anchor="middle">MinIO</text>
    <text x="1195" y="834" fill="#c4b5fd" font-size="9" text-anchor="middle">S3-compatible blob</text>
    <text x="1195" y="848" fill="#a78bfa" font-size="8" text-anchor="middle" opacity="0.85">Spark history · ComfyUI outputs</text>
  </g>

  <!-- ─────────────────  DISTRIBUTED COMPUTE (Ray + Spark)  ───────────────── -->
  <g>
    <rect x="60" y="900" width="1280" height="72" rx="10" fill="none" stroke="#94a3b8" stroke-width="1" stroke-dasharray="6,4" opacity="0.5"/>
    <text x="76" y="918" fill="#94a3b8" font-size="10" font-weight="600" letter-spacing="2">DISTRIBUTED COMPUTE  (opt-in)</text>

    <rect x="80" y="928" width="600" height="36" rx="6" fill="#0f172a"/>
    <rect x="80" y="928" width="600" height="36" rx="6" fill="rgba(30, 41, 59, 0.5)" stroke="#94a3b8" stroke-width="1.5"/>
    <text x="380" y="952" fill="#e2e8f0" font-size="12" font-weight="600" text-anchor="middle">Ray Head + Workers (1..N)  ▸  RAY_SOURCE</text>

    <rect x="720" y="928" width="600" height="36" rx="6" fill="#0f172a"/>
    <rect x="720" y="928" width="600" height="36" rx="6" fill="rgba(30, 41, 59, 0.5)" stroke="#94a3b8" stroke-width="1.5"/>
    <text x="1020" y="952" fill="#e2e8f0" font-size="12" font-weight="600" text-anchor="middle">Spark Master + Workers + History + Connect  ▸  SPARK_SOURCE</text>
  </g>

  <!-- ─────────────────  OBSERVABILITY  ───────────────── -->
  <g>
    <rect x="60" y="1000" width="1280" height="72" rx="10" fill="none" stroke="#94a3b8" stroke-width="1" stroke-dasharray="6,4" opacity="0.5"/>
    <text x="76" y="1018" fill="#94a3b8" font-size="10" font-weight="600" letter-spacing="2">OBSERVABILITY  (opt-in)</text>

    <rect x="80" y="1028" width="600" height="36" rx="6" fill="#0f172a"/>
    <rect x="80" y="1028" width="600" height="36" rx="6" fill="rgba(30, 41, 59, 0.5)" stroke="#94a3b8" stroke-width="1.5"/>
    <text x="380" y="1052" fill="#e2e8f0" font-size="12" font-weight="600" text-anchor="middle">Prometheus  ▸  scrapes Kong · LiteLLM · n8n · Backend · Weaviate · MinIO · DB sidecars</text>

    <rect x="720" y="1028" width="600" height="36" rx="6" fill="#0f172a"/>
    <rect x="720" y="1028" width="600" height="36" rx="6" fill="rgba(30, 41, 59, 0.5)" stroke="#94a3b8" stroke-width="1.5"/>
    <text x="1020" y="1052" fill="#e2e8f0" font-size="12" font-weight="600" text-anchor="middle">Grafana  ▸  pre-provisioned stack dashboards</text>
  </g>

  <!-- ─────────────────  LEGEND  ───────────────── -->
  <g transform="translate(60, 1100)">
    <text x="0" y="0" fill="#64748b" font-size="10" font-weight="600" letter-spacing="2">CATEGORY LEGEND</text>

    <g transform="translate(0, 16)">
      <rect x="0" y="0" width="14" height="14" rx="3" fill="rgba(136, 19, 55, 0.4)" stroke="#fb7185" stroke-width="1.5"/>
      <text x="22" y="11" fill="#e2e8f0" font-size="10">Infra — Kong gateway</text>

      <rect x="200" y="0" width="14" height="14" rx="3" fill="rgba(8, 51, 68, 0.4)" stroke="#22d3ee" stroke-width="1.5"/>
      <text x="222" y="11" fill="#e2e8f0" font-size="10">Apps &amp; UIs</text>

      <rect x="360" y="0" width="14" height="14" rx="3" fill="rgba(6, 78, 59, 0.4)" stroke="#34d399" stroke-width="1.5"/>
      <text x="382" y="11" fill="#e2e8f0" font-size="10">Agents &amp; Workflows</text>

      <rect x="560" y="0" width="14" height="14" rx="3" fill="rgba(120, 53, 15, 0.3)" stroke="#fbbf24" stroke-width="1.5"/>
      <text x="582" y="11" fill="#e2e8f0" font-size="10">LLM Core</text>

      <rect x="700" y="0" width="14" height="14" rx="3" fill="rgba(251, 146, 60, 0.3)" stroke="#fb923c" stroke-width="1.5"/>
      <text x="722" y="11" fill="#e2e8f0" font-size="10">Media</text>

      <rect x="810" y="0" width="14" height="14" rx="3" fill="rgba(76, 29, 149, 0.4)" stroke="#a78bfa" stroke-width="1.5"/>
      <text x="832" y="11" fill="#e2e8f0" font-size="10">Data</text>

      <rect x="910" y="0" width="14" height="14" rx="3" fill="rgba(30, 41, 59, 0.5)" stroke="#94a3b8" stroke-width="1.5"/>
      <text x="932" y="11" fill="#e2e8f0" font-size="10">Compute / Observability</text>
    </g>

    <g transform="translate(0, 46)">
      <line x1="0" y1="7" x2="40" y2="7" stroke="#94a3b8" stroke-width="1.5" marker-end="url(#arrow)"/>
      <text x="50" y="11" fill="#94a3b8" font-size="9">user request</text>

      <line x1="180" y1="7" x2="220" y2="7" stroke="#22d3ee" stroke-width="1.5" marker-end="url(#arrow-cyan)"/>
      <text x="230" y="11" fill="#94a3b8" font-size="9">apps → downstream</text>

      <line x1="380" y1="7" x2="420" y2="7" stroke="#34d399" stroke-width="1.5" marker-end="url(#arrow-emerald)"/>
      <text x="430" y="11" fill="#94a3b8" font-size="9">agents → downstream</text>

      <line x1="600" y1="7" x2="640" y2="7" stroke="#fbbf24" stroke-width="1.5" marker-end="url(#arrow-amber)"/>
      <text x="650" y="11" fill="#94a3b8" font-size="9">LLM routing</text>

      <line x1="770" y1="7" x2="810" y2="7" stroke="#fb7185" stroke-width="2" marker-end="url(#arrow-rose)"/>
      <text x="820" y="11" fill="#94a3b8" font-size="9">Kong route fan-out</text>
    </g>

    <text x="0" y="78" fill="#475569" font-size="9">All edges are runtime / request-path. Init-time bootstrap calls (LiteLLM-init reading public.llms, Ollama-pull warming models, Prometheus scrape config) are omitted for clarity.</text>
  </g>
</svg>
