<?xml version="1.0" encoding="UTF-8" standalone="no"?>
<!DOCTYPE svg PUBLIC "-//W3C//DTD SVG 1.1//EN"
 "http://www.w3.org/Graphics/SVG/1.1/DTD/svg11.dtd">
<!-- Generated by graphviz version 12.2.1 (20241206.2353)
 -->
<!-- Title: stack Pages: 1 -->
<svg width="1589pt" height="334pt"
 viewBox="0.00 0.00 1589.00 333.50" xmlns="http://www.w3.org/2000/svg" xmlns:xlink="http://www.w3.org/1999/xlink">
<g id="graph0" class="graph" transform="scale(1 1) rotate(0) translate(4 329.5)">
<title>stack</title>
<polygon fill="#0e0f18" stroke="none" points="-4,4 -4,-329.5 1585,-329.5 1585,4 -4,4"/>
<g id="clust1" class="cluster">
<title>cluster_infra</title>
<polygon fill="#0e0f18" stroke="#f7768e" points="897,-80 897,-156.5 1115,-156.5 1115,-80 897,-80"/>
<text text-anchor="middle" x="1006" y="-139.2" font-family="Times,serif" font-size="14.00" fill="#f7768e">Infrastructure</text>
</g>
<g id="clust2" class="cluster">
<title>cluster_data</title>
<polygon fill="#0e0f18" stroke="#7dcfff" points="921,-164.5 921,-317.5 1223,-317.5 1223,-164.5 921,-164.5"/>
<text text-anchor="middle" x="1072" y="-300.2" font-family="Times,serif" font-size="14.00" fill="#7dcfff">Data</text>
</g>
<g id="clust3" class="cluster">
<title>cluster_llm</title>
<polygon fill="#0e0f18" stroke="#e0af68" points="8,-80 8,-241 206,-241 206,-80 8,-80"/>
<text text-anchor="middle" x="107" y="-223.7" font-family="Times,serif" font-size="14.00" fill="#e0af68">LLM Core</text>
</g>
<g id="clust4" class="cluster">
<title>cluster_media</title>
<polygon fill="#0e0f18" stroke="#7aa2f7" points="463,-8 463,-156.5 889,-156.5 889,-8 463,-8"/>
<text text-anchor="middle" x="676" y="-139.2" font-family="Times,serif" font-size="14.00" fill="#7aa2f7">Media</text>
</g>
<g id="clust5" class="cluster">
<title>cluster_agents</title>
<polygon fill="#0e0f18" stroke="#9ece6a" points="214,-80 214,-156.5 455,-156.5 455,-80 214,-80"/>
<text text-anchor="middle" x="334.5" y="-139.2" font-family="Times,serif" font-size="14.00" fill="#9ece6a">Agents &amp; Workflows</text>
</g>
<g id="clust6" class="cluster">
<title>cluster_apps</title>
<polygon fill="#0e0f18" stroke="#bb9af7" points="1123,-80 1123,-156.5 1573,-156.5 1573,-80 1123,-80"/>
<text text-anchor="middle" x="1348" y="-139.2" font-family="Times,serif" font-size="14.00" fill="#bb9af7">Apps &amp; UIs</text>
</g>
<!-- globals -->
<g id="node1" class="node">
<title>globals</title>
<path fill="#f7768e" fill-opacity="0.200000" stroke="#2b2f4a" d="M951.38,-124C951.38,-124 916.62,-124 916.62,-124 910.62,-124 904.62,-118 904.62,-112 904.62,-112 904.62,-100 904.62,-100 904.62,-94 910.62,-88 916.62,-88 916.62,-88 951.38,-88 951.38,-88 957.38,-88 963.38,-94 963.38,-100 963.38,-100 963.38,-112 963.38,-112 963.38,-118 957.38,-124 951.38,-124"/>
<text text-anchor="middle" x="934" y="-100.2" font-family="Helvetica,sans-Serif" font-size="14.00" fill="#c0caf5">globals</text>
</g>
<!-- kong -->
<g id="node2" class="node">
<title>kong</title>
<path fill="#f7768e" fill-opacity="0.200000" stroke="#2b2f4a" d="M1023,-124C1023,-124 993,-124 993,-124 987,-124 981,-118 981,-112 981,-112 981,-100 981,-100 981,-94 987,-88 993,-88 993,-88 1023,-88 1023,-88 1029,-88 1035,-94 1035,-100 1035,-100 1035,-112 1035,-112 1035,-118 1029,-124 1023,-124"/>
<text text-anchor="middle" x="1008" y="-100.2" font-family="Helvetica,sans-Serif" font-size="14.00" fill="#c0caf5">kong</text>
</g>
<!-- ray -->
<g id="node3" class="node">
<title>ray</title>
<path fill="#f7768e" fill-opacity="0.200000" stroke="#2b2f4a" d="M1095,-124C1095,-124 1065,-124 1065,-124 1059,-124 1053,-118 1053,-112 1053,-112 1053,-100 1053,-100 1053,-94 1059,-88 1065,-88 1065,-88 1095,-88 1095,-88 1101,-88 1107,-94 1107,-100 1107,-100 1107,-112 1107,-112 1107,-118 1101,-124 1095,-124"/>
<text text-anchor="middle" x="1080" y="-100.2" font-family="Helvetica,sans-Serif" font-size="14.00" fill="#c0caf5">ray</text>
</g>
<!-- supabase -->
<g id="node4" class="node">
<title>supabase</title>
<path fill="#7dcfff" fill-opacity="0.200000" stroke="#2b2f4a" d="M991.25,-285C991.25,-285 940.75,-285 940.75,-285 934.75,-285 928.75,-279 928.75,-273 928.75,-273 928.75,-261 928.75,-261 928.75,-255 934.75,-249 940.75,-249 940.75,-249 991.25,-249 991.25,-249 997.25,-249 1003.25,-255 1003.25,-261 1003.25,-261 1003.25,-273 1003.25,-273 1003.25,-279 997.25,-285 991.25,-285"/>
<text text-anchor="middle" x="966" y="-261.2" font-family="Helvetica,sans-Serif" font-size="14.00" fill="#c0caf5">supabase</text>
</g>
<!-- supabase&#45;&gt;kong -->
<g id="edge13" class="edge">
<title>supabase&#45;&gt;kong</title>
<path fill="none" stroke="#3d4261" d="M928.58,-263.59C913.12,-260.52 896.61,-254.11 887,-241 866.91,-213.57 864.11,-189.64 887,-164.5 899.77,-150.47 955.52,-165.89 972,-156.5 981.16,-151.28 988.62,-142.68 994.33,-134.09"/>
<polygon fill="#3d4261" stroke="#3d4261" points="997.33,-135.91 999.45,-125.53 991.32,-132.32 997.33,-135.91"/>
</g>
<!-- supabase&#45;&gt;ray -->
<g id="edge32" class="edge">
<title>supabase&#45;&gt;ray</title>
<path fill="none" stroke="#3d4261" d="M928.66,-250.73C925.24,-247.97 922.23,-244.75 920,-241 902.62,-211.78 896.75,-189.3 920,-164.5 929.44,-154.43 1031.91,-163.16 1044,-156.5 1053.23,-151.42 1060.72,-142.84 1066.42,-134.24"/>
<polygon fill="#3d4261" stroke="#3d4261" points="1069.43,-136.04 1071.52,-125.65 1063.41,-132.46 1069.43,-136.04"/>
</g>
<!-- minio -->
<g id="node5" class="node">
<title>minio</title>
<path fill="#7dcfff" fill-opacity="0.200000" stroke="#2b2f4a" d="M1203,-208.5C1203,-208.5 1173,-208.5 1173,-208.5 1167,-208.5 1161,-202.5 1161,-196.5 1161,-196.5 1161,-184.5 1161,-184.5 1161,-178.5 1167,-172.5 1173,-172.5 1173,-172.5 1203,-172.5 1203,-172.5 1209,-172.5 1215,-178.5 1215,-184.5 1215,-184.5 1215,-196.5 1215,-196.5 1215,-202.5 1209,-208.5 1203,-208.5"/>
<text text-anchor="middle" x="1188" y="-184.7" font-family="Helvetica,sans-Serif" font-size="14.00" fill="#c0caf5">minio</text>
</g>
<!-- supabase&#45;&gt;minio -->
<g id="edge20" class="edge">
<title>supabase&#45;&gt;minio</title>
<path fill="none" stroke="#3d4261" d="M1003.53,-264.42C1050.48,-261.85 1127.66,-255.52 1152,-241 1161.05,-235.6 1168.49,-226.95 1174.21,-218.39"/>
<polygon fill="#3d4261" stroke="#3d4261" points="1177.19,-220.24 1179.35,-209.86 1171.19,-216.62 1177.19,-220.24"/>
</g>
<!-- neo4j -->
<g id="node6" class="node">
<title>neo4j</title>
<path fill="#7dcfff" fill-opacity="0.200000" stroke="#2b2f4a" d="M971,-208.5C971,-208.5 941,-208.5 941,-208.5 935,-208.5 929,-202.5 929,-196.5 929,-196.5 929,-184.5 929,-184.5 929,-178.5 935,-172.5 941,-172.5 941,-172.5 971,-172.5 971,-172.5 977,-172.5 983,-178.5 983,-184.5 983,-184.5 983,-196.5 983,-196.5 983,-202.5 977,-208.5 971,-208.5"/>
<text text-anchor="middle" x="956" y="-184.7" font-family="Helvetica,sans-Serif" font-size="14.00" fill="#c0caf5">neo4j</text>
</g>
<!-- supabase&#45;&gt;neo4j -->
<g id="edge24" class="edge">
<title>supabase&#45;&gt;neo4j</title>
<path fill="none" stroke="#3d4261" d="M963.68,-248.72C962.54,-240.23 961.14,-229.76 959.84,-220.12"/>
<polygon fill="#3d4261" stroke="#3d4261" points="963.34,-219.89 958.54,-210.44 956.4,-220.82 963.34,-219.89"/>
</g>
<!-- redis -->
<g id="node7" class="node">
<title>redis</title>
<path fill="#7dcfff" fill-opacity="0.200000" stroke="#2b2f4a" d="M1043,-208.5C1043,-208.5 1013,-208.5 1013,-208.5 1007,-208.5 1001,-202.5 1001,-196.5 1001,-196.5 1001,-184.5 1001,-184.5 1001,-178.5 1007,-172.5 1013,-172.5 1013,-172.5 1043,-172.5 1043,-172.5 1049,-172.5 1055,-178.5 1055,-184.5 1055,-184.5 1055,-196.5 1055,-196.5 1055,-202.5 1049,-208.5 1043,-208.5"/>
<text text-anchor="middle" x="1028" y="-184.7" font-family="Helvetica,sans-Serif" font-size="14.00" fill="#c0caf5">redis</text>
</g>
<!-- supabase&#45;&gt;redis -->
<g id="edge34" class="edge">
<title>supabase&#45;&gt;redis</title>
<path fill="none" stroke="#3d4261" d="M984.87,-248.63C987.34,-246.14 989.78,-243.55 992,-241 998.28,-233.79 1004.6,-225.53 1010.15,-217.85"/>
<polygon fill="#3d4261" stroke="#3d4261" points="1012.93,-219.99 1015.83,-209.8 1007.21,-215.95 1012.93,-219.99"/>
</g>
<!-- weaviate -->
<g id="node8" class="node">
<title>weaviate</title>
<path fill="#7dcfff" fill-opacity="0.200000" stroke="#2b2f4a" d="M1130.62,-208.5C1130.62,-208.5 1085.38,-208.5 1085.38,-208.5 1079.38,-208.5 1073.38,-202.5 1073.38,-196.5 1073.38,-196.5 1073.38,-184.5 1073.38,-184.5 1073.38,-178.5 1079.38,-172.5 1085.38,-172.5 1085.38,-172.5 1130.62,-172.5 1130.62,-172.5 1136.62,-172.5 1142.62,-178.5 1142.62,-184.5 1142.62,-184.5 1142.62,-196.5 1142.62,-196.5 1142.62,-202.5 1136.62,-208.5 1130.62,-208.5"/>
<text text-anchor="middle" x="1108" y="-184.7" font-family="Helvetica,sans-Serif" font-size="14.00" fill="#c0caf5">weaviate</text>
</g>
<!-- supabase&#45;&gt;weaviate -->
<g id="edge40" class="edge">
<title>supabase&#45;&gt;weaviate</title>
<path fill="none" stroke="#3d4261" d="M1003.4,-261.78C1022.59,-258.34 1045.7,-252.14 1064,-241 1073.81,-235.03 1082.66,-226.18 1089.81,-217.61"/>
<polygon fill="#3d4261" stroke="#3d4261" points="1092.54,-219.8 1095.93,-209.76 1087.02,-215.5 1092.54,-219.8"/>
</g>
<!-- litellm -->
<g id="node9" class="node">
<title>litellm</title>
<path fill="#e0af68" fill-opacity="0.200000" stroke="#2b2f4a" d="M186,-208.5C186,-208.5 156,-208.5 156,-208.5 150,-208.5 144,-202.5 144,-196.5 144,-196.5 144,-184.5 144,-184.5 144,-178.5 150,-172.5 156,-172.5 156,-172.5 186,-172.5 186,-172.5 192,-172.5 198,-178.5 198,-184.5 198,-184.5 198,-196.5 198,-196.5 198,-202.5 192,-208.5 186,-208.5"/>
<text text-anchor="middle" x="171" y="-184.7" font-family="Helvetica,sans-Serif" font-size="14.00" fill="#c0caf5">litellm</text>
</g>
<!-- supabase&#45;&gt;litellm -->
<g id="edge15" class="edge">
<title>supabase&#45;&gt;litellm</title>
<path fill="none" stroke="#3d4261" d="M928.34,-264.44C857.23,-261.32 698.34,-253.52 565,-241 434.26,-228.72 279.95,-207.31 209.52,-197.16"/>
<polygon fill="#3d4261" stroke="#3d4261" points="210.06,-193.7 199.66,-195.73 209.06,-200.62 210.06,-193.7"/>
</g>
<!-- ollama -->
<g id="node11" class="node">
<title>ollama</title>
<path fill="#e0af68" fill-opacity="0.200000" stroke="#2b2f4a" d="M60.25,-124C60.25,-124 27.75,-124 27.75,-124 21.75,-124 15.75,-118 15.75,-112 15.75,-112 15.75,-100 15.75,-100 15.75,-94 21.75,-88 27.75,-88 27.75,-88 60.25,-88 60.25,-88 66.25,-88 72.25,-94 72.25,-100 72.25,-100 72.25,-112 72.25,-112 72.25,-118 66.25,-124 60.25,-124"/>
<text text-anchor="middle" x="44" y="-100.2" font-family="Helvetica,sans-Serif" font-size="14.00" fill="#c0caf5">ollama</text>
</g>
<!-- supabase&#45;&gt;ollama -->
<g id="edge25" class="edge">
<title>supabase&#45;&gt;ollama</title>
<path fill="none" stroke="#3d4261" d="M928.31,-265.82C770.6,-264.93 170.15,-260.3 135,-241 93.33,-218.12 67.01,-167.01 53.94,-134.95"/>
<polygon fill="#3d4261" stroke="#3d4261" points="57.3,-133.94 50.41,-125.89 50.78,-136.47 57.3,-133.94"/>
</g>
<!-- comfyui -->
<g id="node13" class="node">
<title>comfyui</title>
<path fill="#7aa2f7" fill-opacity="0.200000" stroke="#2b2f4a" d="M786.62,-124C786.62,-124 747.38,-124 747.38,-124 741.38,-124 735.38,-118 735.38,-112 735.38,-112 735.38,-100 735.38,-100 735.38,-94 741.38,-88 747.38,-88 747.38,-88 786.62,-88 786.62,-88 792.62,-88 798.62,-94 798.62,-100 798.62,-100 798.62,-112 798.62,-112 798.62,-118 792.62,-124 786.62,-124"/>
<text text-anchor="middle" x="767" y="-100.2" font-family="Helvetica,sans-Serif" font-size="14.00" fill="#c0caf5">comfyui</text>
</g>
<!-- supabase&#45;&gt;comfyui -->
<g id="edge6" class="edge">
<title>supabase&#45;&gt;comfyui</title>
<path fill="none" stroke="#3d4261" d="M928.52,-262.19C896.33,-258.28 852.96,-251.31 839,-241 803.58,-214.85 783.76,-165.93 774.24,-134.99"/>
<polygon fill="#3d4261" stroke="#3d4261" points="777.65,-134.18 771.51,-125.55 770.93,-136.13 777.65,-134.18"/>
</g>
<!-- searxng -->
<g id="node15" class="node">
<title>searxng</title>
<path fill="#7aa2f7" fill-opacity="0.200000" stroke="#2b2f4a" d="M869,-124C869,-124 829,-124 829,-124 823,-124 817,-118 817,-112 817,-112 817,-100 817,-100 817,-94 823,-88 829,-88 829,-88 869,-88 869,-88 875,-88 881,-94 881,-100 881,-100 881,-112 881,-112 881,-118 875,-124 869,-124"/>
<text text-anchor="middle" x="849" y="-100.2" font-family="Helvetica,sans-Serif" font-size="14.00" fill="#c0caf5">searxng</text>
</g>
<!-- supabase&#45;&gt;searxng -->
<g id="edge35" class="edge">
<title>supabase&#45;&gt;searxng</title>
<path fill="none" stroke="#3d4261" d="M928.27,-260.91C903.89,-256.82 875.23,-250.23 867,-241 841.45,-212.37 841.19,-165.66 844.34,-135.64"/>
<polygon fill="#3d4261" stroke="#3d4261" points="847.81,-136.13 845.59,-125.77 840.86,-135.25 847.81,-136.13"/>
</g>
<!-- n8n -->
<g id="node20" class="node">
<title>n8n</title>
<path fill="#9ece6a" fill-opacity="0.200000" stroke="#2b2f4a" d="M435,-124C435,-124 405,-124 405,-124 399,-124 393,-118 393,-112 393,-112 393,-100 393,-100 393,-94 399,-88 405,-88 405,-88 435,-88 435,-88 441,-88 447,-94 447,-100 447,-100 447,-112 447,-112 447,-118 441,-124 435,-124"/>
<text text-anchor="middle" x="420" y="-100.2" font-family="Helvetica,sans-Serif" font-size="14.00" fill="#c0caf5">n8n</text>
</g>
<!-- supabase&#45;&gt;n8n -->
<g id="edge21" class="edge">
<title>supabase&#45;&gt;n8n</title>
<path fill="none" stroke="#3d4261" d="M928.57,-262.3C891.04,-258.27 831.71,-251.04 781,-241 635.86,-212.26 582.76,-237.59 459,-156.5 449.96,-150.57 442.09,-141.85 435.83,-133.37"/>
<polygon fill="#3d4261" stroke="#3d4261" points="438.85,-131.59 430.32,-125.31 433.07,-135.54 438.85,-131.59"/>
</g>
<!-- backend -->
<g id="node22" class="node">
<title>backend</title>
<path fill="#bb9af7" fill-opacity="0.200000" stroke="#2b2f4a" d="M1552.5,-124C1552.5,-124 1509.5,-124 1509.5,-124 1503.5,-124 1497.5,-118 1497.5,-112 1497.5,-112 1497.5,-100 1497.5,-100 1497.5,-94 1503.5,-88 1509.5,-88 1509.5,-88 1552.5,-88 1552.5,-88 1558.5,-88 1564.5,-94 1564.5,-100 1564.5,-100 1564.5,-112 1564.5,-112 1564.5,-118 1558.5,-124 1552.5,-124"/>
<text text-anchor="middle" x="1531" y="-100.2" font-family="Helvetica,sans-Serif" font-size="14.00" fill="#c0caf5">backend</text>
</g>
<!-- supabase&#45;&gt;backend -->
<g id="edge1" class="edge">
<title>supabase&#45;&gt;backend</title>
<path fill="none" stroke="#3d4261" d="M1003.71,-265.98C1088.55,-265.55 1292.12,-262.26 1357,-241 1423.19,-219.31 1436.55,-202.34 1489,-156.5 1497.02,-149.49 1504.83,-140.92 1511.51,-132.89"/>
<polygon fill="#3d4261" stroke="#3d4261" points="1514.03,-135.33 1517.56,-125.34 1508.57,-130.95 1514.03,-135.33"/>
</g>
<!-- jupyterhub -->
<g id="node23" class="node">
<title>jupyterhub</title>
<path fill="#bb9af7" fill-opacity="0.200000" stroke="#2b2f4a" d="M1467.5,-124C1467.5,-124 1412.5,-124 1412.5,-124 1406.5,-124 1400.5,-118 1400.5,-112 1400.5,-112 1400.5,-100 1400.5,-100 1400.5,-94 1406.5,-88 1412.5,-88 1412.5,-88 1467.5,-88 1467.5,-88 1473.5,-88 1479.5,-94 1479.5,-100 1479.5,-100 1479.5,-112 1479.5,-112 1479.5,-118 1473.5,-124 1467.5,-124"/>
<text text-anchor="middle" x="1440" y="-100.2" font-family="Helvetica,sans-Serif" font-size="14.00" fill="#c0caf5">jupyterhub</text>
</g>
<!-- supabase&#45;&gt;jupyterhub -->
<g id="edge10" class="edge">
<title>supabase&#45;&gt;jupyterhub</title>
<path fill="none" stroke="#3d4261" d="M1003.54,-266.03C1077.98,-265.62 1241.55,-262.23 1293,-241 1348.2,-218.22 1395.9,-165.07 1421.05,-132.98"/>
<polygon fill="#3d4261" stroke="#3d4261" points="1423.6,-135.4 1426.9,-125.34 1418.04,-131.15 1423.6,-135.4"/>
</g>
<!-- open&#45;webui -->
<g id="node24" class="node">
<title>open&#45;webui</title>
<path fill="#bb9af7" fill-opacity="0.200000" stroke="#2b2f4a" d="M1370.88,-124C1370.88,-124 1309.12,-124 1309.12,-124 1303.12,-124 1297.12,-118 1297.12,-112 1297.12,-112 1297.12,-100 1297.12,-100 1297.12,-94 1303.12,-88 1309.12,-88 1309.12,-88 1370.88,-88 1370.88,-88 1376.88,-88 1382.88,-94 1382.88,-100 1382.88,-100 1382.88,-112 1382.88,-112 1382.88,-118 1376.88,-124 1370.88,-124"/>
<text text-anchor="middle" x="1340" y="-100.2" font-family="Helvetica,sans-Serif" font-size="14.00" fill="#c0caf5">open&#45;webui</text>
</g>
<!-- supabase&#45;&gt;open&#45;webui -->
<g id="edge27" class="edge">
<title>supabase&#45;&gt;open&#45;webui</title>
<path fill="none" stroke="#3d4261" d="M1003.56,-266.46C1069.95,-266.66 1204.84,-264.09 1245,-241 1286.8,-216.97 1314.82,-166.24 1329.04,-134.55"/>
<polygon fill="#3d4261" stroke="#3d4261" points="1332.15,-136.17 1332.89,-125.6 1325.72,-133.4 1332.15,-136.17"/>
</g>
<!-- local&#45;deep&#45;researcher -->
<g id="node25" class="node">
<title>local&#45;deep&#45;researcher</title>
<path fill="#bb9af7" fill-opacity="0.200000" stroke="#2b2f4a" d="M1266.62,-124C1266.62,-124 1143.38,-124 1143.38,-124 1137.38,-124 1131.38,-118 1131.38,-112 1131.38,-112 1131.38,-100 1131.38,-100 1131.38,-94 1137.38,-88 1143.38,-88 1143.38,-88 1266.62,-88 1266.62,-88 1272.62,-88 1278.62,-94 1278.62,-100 1278.62,-100 1278.62,-112 1278.62,-112 1278.62,-118 1272.62,-124 1266.62,-124"/>
<text text-anchor="middle" x="1205" y="-100.2" font-family="Helvetica,sans-Serif" font-size="14.00" fill="#c0caf5">local&#45;deep&#45;researcher</text>
</g>
<!-- supabase&#45;&gt;local&#45;deep&#45;researcher -->
<g id="edge17" class="edge">
<title>supabase&#45;&gt;local&#45;deep&#45;researcher</title>
<path fill="none" stroke="#3d4261" d="M1003.59,-265.09C1071.62,-263.06 1209.48,-256.99 1224,-241 1250.16,-212.18 1234.51,-164.55 1220.2,-134.52"/>
<polygon fill="#3d4261" stroke="#3d4261" points="1223.37,-133.03 1215.75,-125.67 1217.12,-136.18 1223.37,-133.03"/>
</g>
<!-- redis&#45;&gt;kong -->
<g id="edge14" class="edge">
<title>redis&#45;&gt;kong</title>
<path fill="none" stroke="#3d4261" d="M1023.76,-172C1021.19,-161.39 1017.84,-147.6 1014.9,-135.46"/>
<polygon fill="#3d4261" stroke="#3d4261" points="1018.35,-134.84 1012.59,-125.94 1011.55,-136.48 1018.35,-134.84"/>
</g>
<!-- redis&#45;&gt;ray -->
<g id="edge33" class="edge">
<title>redis&#45;&gt;ray</title>
<path fill="none" stroke="#3d4261" d="M1039.03,-172C1045.99,-160.96 1055.13,-146.46 1063.01,-133.96"/>
<polygon fill="#3d4261" stroke="#3d4261" points="1065.81,-136.08 1068.18,-125.75 1059.89,-132.34 1065.81,-136.08"/>
</g>
<!-- redis&#45;&gt;litellm -->
<g id="edge16" class="edge">
<title>redis&#45;&gt;litellm</title>
<path fill="none" stroke="#3d4261" d="M1020.5,-208.83C1013.36,-223.12 1001,-241.18 983,-245 947.57,-252.52 856.19,-246.52 820,-245 587.96,-235.27 310.47,-206.07 209.85,-194.91"/>
<polygon fill="#3d4261" stroke="#3d4261" points="210.3,-191.43 199.97,-193.8 209.52,-198.39 210.3,-191.43"/>
</g>
<!-- redis&#45;&gt;searxng -->
<g id="edge36" class="edge">
<title>redis&#45;&gt;searxng</title>
<path fill="none" stroke="#3d4261" d="M1006.94,-172.18C1002.26,-169.13 997.16,-166.35 992,-164.5 950.44,-149.62 932.51,-176.19 893,-156.5 882.46,-151.25 873.31,-142.27 866.13,-133.4"/>
<polygon fill="#3d4261" stroke="#3d4261" points="869.06,-131.48 860.28,-125.56 863.45,-135.67 869.06,-131.48"/>
</g>
<!-- redis&#45;&gt;n8n -->
<g id="edge22" class="edge">
<title>redis&#45;&gt;n8n</title>
<path fill="none" stroke="#3d4261" d="M1007.41,-172.17C1002.63,-169.04 997.36,-166.22 992,-164.5 963.81,-155.44 485.55,-169.63 459,-156.5 448.92,-151.51 440.64,-142.55 434.35,-133.6"/>
<polygon fill="#3d4261" stroke="#3d4261" points="437.44,-131.94 429.12,-125.38 431.53,-135.69 437.44,-131.94"/>
</g>
<!-- redis&#45;&gt;backend -->
<g id="edge2" class="edge">
<title>redis&#45;&gt;backend</title>
<path fill="none" stroke="#3d4261" d="M1048.59,-172.19C1053.37,-169.05 1058.64,-166.23 1064,-164.5 1108.94,-149.96 1446.33,-176.75 1489,-156.5 1499.58,-151.48 1508.49,-142.38 1515.34,-133.34"/>
<polygon fill="#3d4261" stroke="#3d4261" points="1518.05,-135.57 1520.86,-125.36 1512.3,-131.59 1518.05,-135.57"/>
</g>
<!-- redis&#45;&gt;jupyterhub -->
<g id="edge11" class="edge">
<title>redis&#45;&gt;jupyterhub</title>
<path fill="none" stroke="#3d4261" d="M1048.6,-172.21C1053.38,-169.07 1058.65,-166.25 1064,-164.5 1098.65,-153.18 1358.6,-171.12 1392,-156.5 1403.51,-151.46 1413.66,-142.23 1421.62,-133.09"/>
<polygon fill="#3d4261" stroke="#3d4261" points="1424.33,-135.3 1427.87,-125.32 1418.88,-130.91 1424.33,-135.3"/>
</g>
<!-- redis&#45;&gt;open&#45;webui -->
<g id="edge28" class="edge">
<title>redis&#45;&gt;open&#45;webui</title>
<path fill="none" stroke="#3d4261" d="M1049,-172C1053.68,-168.96 1058.8,-166.23 1064,-164.5 1111.26,-148.77 1242.09,-175.82 1288,-156.5 1300.31,-151.32 1311.43,-141.8 1320.2,-132.48"/>
<polygon fill="#3d4261" stroke="#3d4261" points="1322.58,-135.07 1326.55,-125.25 1317.32,-130.45 1322.58,-135.07"/>
</g>
<!-- litellm&#45;&gt;weaviate -->
<g id="edge41" class="edge">
<title>litellm&#45;&gt;weaviate</title>
<path fill="none" stroke="#3d4261" d="M198.44,-193.46C291.1,-203.3 600.96,-234.82 858,-245 879.87,-245.87 1033.59,-249.54 1055,-245 1070.18,-241.78 1082.59,-230.02 1091.58,-218.25"/>
<polygon fill="#3d4261" stroke="#3d4261" points="1094.34,-220.41 1097.18,-210.21 1088.59,-216.41 1094.34,-220.41"/>
</g>
<!-- cloud&#45;providers -->
<g id="node10" class="node">
<title>cloud&#45;providers</title>
<path fill="#e0af68" fill-opacity="0.200000" stroke="#2b2f4a" d="M186.12,-124C186.12,-124 101.88,-124 101.88,-124 95.88,-124 89.88,-118 89.88,-112 89.88,-112 89.88,-100 89.88,-100 89.88,-94 95.88,-88 101.88,-88 101.88,-88 186.12,-88 186.12,-88 192.12,-88 198.12,-94 198.12,-100 198.12,-100 198.12,-112 198.12,-112 198.12,-118 192.12,-124 186.12,-124"/>
<text text-anchor="middle" x="144" y="-100.2" font-family="Helvetica,sans-Serif" font-size="14.00" fill="#c0caf5">cloud&#45;providers</text>
</g>
<!-- litellm&#45;&gt;cloud&#45;providers -->
<g id="edge5" class="edge">
<title>litellm&#45;&gt;cloud&#45;providers</title>
<path fill="none" stroke="#3d4261" d="M165.27,-172C161.77,-161.28 157.2,-147.32 153.19,-135.08"/>
<polygon fill="#3d4261" stroke="#3d4261" points="156.63,-134.32 150.19,-125.91 149.97,-136.5 156.63,-134.32"/>
</g>
<!-- litellm&#45;&gt;ollama -->
<g id="edge26" class="edge">
<title>litellm&#45;&gt;ollama</title>
<path fill="none" stroke="#3d4261" d="M143.53,-181.33C120.97,-174.27 91.14,-164.06 81,-156.5 72.71,-150.33 65.42,-141.79 59.56,-133.55"/>
<polygon fill="#3d4261" stroke="#3d4261" points="62.62,-131.83 54.18,-125.42 56.78,-135.69 62.62,-131.83"/>
</g>
<!-- litellm&#45;&gt;comfyui -->
<g id="edge7" class="edge">
<title>litellm&#45;&gt;comfyui</title>
<path fill="none" stroke="#3d4261" d="M198.45,-189.16C303.93,-187.7 679.76,-180.81 727,-156.5 736.96,-151.38 745.3,-142.55 751.74,-133.76"/>
<polygon fill="#3d4261" stroke="#3d4261" points="754.5,-135.93 757.14,-125.67 748.68,-132.05 754.5,-135.93"/>
</g>
<!-- parakeet -->
<g id="node14" class="node">
<title>parakeet</title>
<path fill="#7aa2f7" fill-opacity="0.200000" stroke="#2b2f4a" d="M604.25,-124C604.25,-124 559.75,-124 559.75,-124 553.75,-124 547.75,-118 547.75,-112 547.75,-112 547.75,-100 547.75,-100 547.75,-94 553.75,-88 559.75,-88 559.75,-88 604.25,-88 604.25,-88 610.25,-88 616.25,-94 616.25,-100 616.25,-100 616.25,-112 616.25,-112 616.25,-118 610.25,-124 604.25,-124"/>
<text text-anchor="middle" x="582" y="-100.2" font-family="Helvetica,sans-Serif" font-size="14.00" fill="#c0caf5">parakeet</text>
</g>
<!-- litellm&#45;&gt;parakeet -->
<g id="edge31" class="edge">
<title>litellm&#45;&gt;parakeet</title>
<path fill="none" stroke="#3d4261" d="M198.33,-189.61C272.95,-189.52 478.52,-186.48 538,-156.5 548.52,-151.2 557.66,-142.22 564.85,-133.35"/>
<polygon fill="#3d4261" stroke="#3d4261" points="567.52,-135.62 570.7,-125.52 561.91,-131.43 567.52,-135.62"/>
</g>
<!-- tts&#45;provider -->
<g id="node16" class="node">
<title>tts&#45;provider</title>
<path fill="#7aa2f7" fill-opacity="0.200000" stroke="#2b2f4a" d="M705.75,-124C705.75,-124 646.25,-124 646.25,-124 640.25,-124 634.25,-118 634.25,-112 634.25,-112 634.25,-100 634.25,-100 634.25,-94 640.25,-88 646.25,-88 646.25,-88 705.75,-88 705.75,-88 711.75,-88 717.75,-94 717.75,-100 717.75,-100 717.75,-112 717.75,-112 717.75,-118 711.75,-124 705.75,-124"/>
<text text-anchor="middle" x="676" y="-100.2" font-family="Helvetica,sans-Serif" font-size="14.00" fill="#c0caf5">tts&#45;provider</text>
</g>
<!-- litellm&#45;&gt;tts&#45;provider -->
<g id="edge39" class="edge">
<title>litellm&#45;&gt;tts&#45;provider</title>
<path fill="none" stroke="#3d4261" d="M198.32,-189.93C284.29,-190.91 548.11,-190.98 625,-156.5 636.77,-151.22 647.44,-141.99 655.94,-132.93"/>
<polygon fill="#3d4261" stroke="#3d4261" points="658.44,-135.38 662.39,-125.55 653.17,-130.77 658.44,-135.38"/>
</g>
<!-- hermes -->
<g id="node19" class="node">
<title>hermes</title>
<path fill="#9ece6a" fill-opacity="0.200000" stroke="#2b2f4a" d="M362.88,-124C362.88,-124 325.12,-124 325.12,-124 319.12,-124 313.12,-118 313.12,-112 313.12,-112 313.12,-100 313.12,-100 313.12,-94 319.12,-88 325.12,-88 325.12,-88 362.88,-88 362.88,-88 368.88,-88 374.88,-94 374.88,-100 374.88,-100 374.88,-112 374.88,-112 374.88,-118 368.88,-124 362.88,-124"/>
<text text-anchor="middle" x="344" y="-100.2" font-family="Helvetica,sans-Serif" font-size="14.00" fill="#c0caf5">hermes</text>
</g>
<!-- litellm&#45;&gt;hermes -->
<g id="edge9" class="edge">
<title>litellm&#45;&gt;hermes</title>
<path fill="none" stroke="#3d4261" d="M198.47,-187.95C227.1,-185.2 272.27,-177.59 305,-156.5 314.09,-150.64 321.97,-141.93 328.22,-133.45"/>
<polygon fill="#3d4261" stroke="#3d4261" points="330.99,-135.61 333.72,-125.37 325.2,-131.67 330.99,-135.61"/>
</g>
<!-- litellm&#45;&gt;n8n -->
<g id="edge23" class="edge">
<title>litellm&#45;&gt;n8n</title>
<path fill="none" stroke="#3d4261" d="M198.14,-187.88C248.31,-184.47 353.25,-175.26 384,-156.5 392.87,-151.09 400.21,-142.59 405.9,-134.16"/>
<polygon fill="#3d4261" stroke="#3d4261" points="408.8,-136.12 411.03,-125.76 402.83,-132.47 408.8,-136.12"/>
</g>
<!-- openclaw -->
<g id="node21" class="node">
<title>openclaw</title>
<path fill="#9ece6a" fill-opacity="0.200000" stroke="#2b2f4a" d="M283.5,-124C283.5,-124 234.5,-124 234.5,-124 228.5,-124 222.5,-118 222.5,-112 222.5,-112 222.5,-100 222.5,-100 222.5,-94 228.5,-88 234.5,-88 234.5,-88 283.5,-88 283.5,-88 289.5,-88 295.5,-94 295.5,-100 295.5,-100 295.5,-112 295.5,-112 295.5,-118 289.5,-124 283.5,-124"/>
<text text-anchor="middle" x="259" y="-100.2" font-family="Helvetica,sans-Serif" font-size="14.00" fill="#c0caf5">openclaw</text>
</g>
<!-- litellm&#45;&gt;openclaw -->
<g id="edge30" class="edge">
<title>litellm&#45;&gt;openclaw</title>
<path fill="none" stroke="#3d4261" d="M192.34,-172.02C198.16,-167.1 204.4,-161.68 210,-156.5 218.21,-148.9 226.89,-140.33 234.63,-132.48"/>
<polygon fill="#3d4261" stroke="#3d4261" points="237.05,-135.01 241.52,-125.41 232.03,-130.12 237.05,-135.01"/>
</g>
<!-- litellm&#45;&gt;backend -->
<g id="edge3" class="edge">
<title>litellm&#45;&gt;backend</title>
<path fill="none" stroke="#3d4261" d="M198.43,-188.39C296.11,-184.47 636.2,-171.17 917,-164.5 932.89,-164.12 1474.63,-163.28 1489,-156.5 1499.59,-151.51 1508.51,-142.41 1515.36,-133.37"/>
<polygon fill="#3d4261" stroke="#3d4261" points="1518.07,-135.6 1520.88,-125.38 1512.31,-131.62 1518.07,-135.6"/>
</g>
<!-- litellm&#45;&gt;jupyterhub -->
<g id="edge12" class="edge">
<title>litellm&#45;&gt;jupyterhub</title>
<path fill="none" stroke="#3d4261" d="M198.43,-188.42C296.12,-184.59 636.21,-171.57 917,-164.5 943.38,-163.84 1367.78,-166.99 1392,-156.5 1403.53,-151.5 1413.68,-142.28 1421.64,-133.13"/>
<polygon fill="#3d4261" stroke="#3d4261" points="1424.35,-135.34 1427.89,-125.36 1418.9,-130.96 1424.35,-135.34"/>
</g>
<!-- litellm&#45;&gt;open&#45;webui -->
<g id="edge29" class="edge">
<title>litellm&#45;&gt;open&#45;webui</title>
<path fill="none" stroke="#3d4261" d="M198.43,-188.46C296.12,-184.79 636.23,-172.23 917,-164.5 937.61,-163.93 1268.94,-164.36 1288,-156.5 1300.35,-151.41 1311.48,-141.9 1320.23,-132.57"/>
<polygon fill="#3d4261" stroke="#3d4261" points="1322.63,-135.15 1326.58,-125.32 1317.36,-130.54 1322.63,-135.15"/>
</g>
<!-- litellm&#45;&gt;local&#45;deep&#45;researcher -->
<g id="edge19" class="edge">
<title>litellm&#45;&gt;local&#45;deep&#45;researcher</title>
<path fill="none" stroke="#3d4261" d="M198.43,-188.59C353.45,-183.44 1113.31,-158.13 1119,-156.5 1137.89,-151.1 1157.01,-140.69 1172.41,-130.8"/>
<polygon fill="#3d4261" stroke="#3d4261" points="1174.32,-133.74 1180.7,-125.28 1170.43,-127.92 1174.32,-133.74"/>
</g>
<!-- ollama&#45;&gt;comfyui -->
<g id="edge8" class="edge">
<title>ollama&#45;&gt;comfyui</title>
<path fill="none" stroke="#3d4261" d="M51.78,-124.31C59.16,-138.6 71.83,-156.64 90,-160.5 107.06,-164.12 700.94,-164.12 718,-160.5 732.59,-157.4 744.09,-145.72 752.27,-133.96"/>
<polygon fill="#3d4261" stroke="#3d4261" points="755.21,-135.87 757.55,-125.54 749.27,-132.15 755.21,-135.87"/>
</g>
<!-- docling -->
<g id="node12" class="node">
<title>docling</title>
<path fill="#7aa2f7" fill-opacity="0.200000" stroke="#2b2f4a" d="M517.38,-124C517.38,-124 482.62,-124 482.62,-124 476.62,-124 470.62,-118 470.62,-112 470.62,-112 470.62,-100 470.62,-100 470.62,-94 476.62,-88 482.62,-88 482.62,-88 517.38,-88 517.38,-88 523.38,-88 529.38,-94 529.38,-100 529.38,-100 529.38,-112 529.38,-112 529.38,-118 523.38,-124 517.38,-124"/>
<text text-anchor="middle" x="500" y="-100.2" font-family="Helvetica,sans-Serif" font-size="14.00" fill="#c0caf5">docling</text>
</g>
<!-- speaches -->
<g id="node18" class="node">
<title>speaches</title>
<path fill="#7aa2f7" fill-opacity="0.200000" stroke="#2b2f4a" d="M606.88,-52C606.88,-52 557.12,-52 557.12,-52 551.12,-52 545.12,-46 545.12,-40 545.12,-40 545.12,-28 545.12,-28 545.12,-22 551.12,-16 557.12,-16 557.12,-16 606.88,-16 606.88,-16 612.88,-16 618.88,-22 618.88,-28 618.88,-28 618.88,-40 618.88,-40 618.88,-46 612.88,-52 606.88,-52"/>
<text text-anchor="middle" x="582" y="-28.2" font-family="Helvetica,sans-Serif" font-size="14.00" fill="#c0caf5">speaches</text>
</g>
<!-- parakeet&#45;&gt;speaches -->
<g id="edge37" class="edge">
<title>parakeet&#45;&gt;speaches</title>
<path fill="none" stroke="#3d4261" d="M582,-87.7C582,-80.41 582,-71.73 582,-63.54"/>
<polygon fill="#3d4261" stroke="#3d4261" points="585.5,-63.62 582,-53.62 578.5,-63.62 585.5,-63.62"/>
</g>
<!-- searxng&#45;&gt;local&#45;deep&#45;researcher -->
<g id="edge18" class="edge">
<title>searxng&#45;&gt;local&#45;deep&#45;researcher</title>
<path fill="none" stroke="#3d4261" d="M858.96,-124.46C867.96,-138.62 882.76,-156.42 902,-160.5 924.61,-165.3 1087.39,-165.3 1110,-160.5 1132.91,-155.64 1155.77,-142.83 1173.32,-130.86"/>
<polygon fill="#3d4261" stroke="#3d4261" points="1175.13,-133.87 1181.26,-125.22 1171.08,-128.16 1175.13,-133.87"/>
</g>
<!-- chatterbox -->
<g id="node17" class="node">
<title>chatterbox</title>
<path fill="#7aa2f7" fill-opacity="0.200000" stroke="#2b2f4a" d="M703.5,-52C703.5,-52 648.5,-52 648.5,-52 642.5,-52 636.5,-46 636.5,-40 636.5,-40 636.5,-28 636.5,-28 636.5,-22 642.5,-16 648.5,-16 648.5,-16 703.5,-16 703.5,-16 709.5,-16 715.5,-22 715.5,-28 715.5,-28 715.5,-40 715.5,-40 715.5,-46 709.5,-52 703.5,-52"/>
<text text-anchor="middle" x="676" y="-28.2" font-family="Helvetica,sans-Serif" font-size="14.00" fill="#c0caf5">chatterbox</text>
</g>
<!-- tts&#45;provider&#45;&gt;chatterbox -->
<g id="edge4" class="edge">
<title>tts&#45;provider&#45;&gt;chatterbox</title>
<path fill="none" stroke="#3d4261" d="M676,-87.7C676,-80.41 676,-71.73 676,-63.54"/>
<polygon fill="#3d4261" stroke="#3d4261" points="679.5,-63.62 676,-53.62 672.5,-63.62 679.5,-63.62"/>
</g>
<!-- tts&#45;provider&#45;&gt;speaches -->
<g id="edge38" class="edge">
<title>tts&#45;provider&#45;&gt;speaches</title>
<path fill="none" stroke="#3d4261" d="M652.76,-87.7C641.13,-79.03 626.85,-68.4 614.18,-58.96"/>
<polygon fill="#3d4261" stroke="#3d4261" points="616.62,-56.42 606.51,-53.25 612.44,-62.03 616.62,-56.42"/>
</g>
</g>
</svg>
