<?xml version="1.0" encoding="UTF-8" standalone="no"?>
<!DOCTYPE svg PUBLIC "-//W3C//DTD SVG 1.1//EN"
 "http://www.w3.org/Graphics/SVG/1.1/DTD/svg11.dtd">
<!-- Generated by graphviz version 12.2.1 (20241206.2353)
 -->
<!-- Title: stack Pages: 1 -->
<svg width="1517pt" height="334pt"
 viewBox="0.00 0.00 1517.00 333.50" xmlns="http://www.w3.org/2000/svg" xmlns:xlink="http://www.w3.org/1999/xlink">
<g id="graph0" class="graph" transform="scale(1 1) rotate(0) translate(4 329.5)">
<title>stack</title>
<polygon fill="#0e0f18" stroke="none" points="-4,4 -4,-329.5 1513,-329.5 1513,4 -4,4"/>
<g id="clust1" class="cluster">
<title>cluster_infra</title>
<polygon fill="#0e0f18" stroke="#f7768e" points="897,-80 897,-156.5 1043,-156.5 1043,-80 897,-80"/>
<text text-anchor="middle" x="970" y="-139.2" font-family="Times,serif" font-size="14.00" fill="#f7768e">Infrastructure</text>
</g>
<g id="clust2" class="cluster">
<title>cluster_data</title>
<polygon fill="#0e0f18" stroke="#7dcfff" points="846,-164.5 846,-317.5 1148,-317.5 1148,-164.5 846,-164.5"/>
<text text-anchor="middle" x="997" y="-300.2" font-family="Times,serif" font-size="14.00" fill="#7dcfff">Data</text>
</g>
<g id="clust3" class="cluster">
<title>cluster_llm</title>
<polygon fill="#0e0f18" stroke="#e0af68" points="8,-80 8,-241 206,-241 206,-80 8,-80"/>
<text text-anchor="middle" x="107" y="-223.7" font-family="Times,serif" font-size="14.00" fill="#e0af68">LLM Core</text>
</g>
<g id="clust4" class="cluster">
<title>cluster_media</title>
<polygon fill="#0e0f18" stroke="#7aa2f7" points="463,-8 463,-156.5 889,-156.5 889,-8 463,-8"/>
<text text-anchor="middle" x="676" y="-139.2" font-family="Times,serif" font-size="14.00" fill="#7aa2f7">Media</text>
</g>
<g id="clust5" class="cluster">
<title>cluster_agents</title>
<polygon fill="#0e0f18" stroke="#9ece6a" points="214,-80 214,-156.5 455,-156.5 455,-80 214,-80"/>
<text text-anchor="middle" x="334.5" y="-139.2" font-family="Times,serif" font-size="14.00" fill="#9ece6a">Agents &amp; Workflows</text>
</g>
<g id="clust6" class="cluster">
<title>cluster_apps</title>
<polygon fill="#0e0f18" stroke="#bb9af7" points="1051,-80 1051,-156.5 1501,-156.5 1501,-80 1051,-80"/>
<text text-anchor="middle" x="1276" y="-139.2" font-family="Times,serif" font-size="14.00" fill="#bb9af7">Apps &amp; UIs</text>
</g>
<!-- globals -->
<g id="node1" class="node">
<title>globals</title>
<path fill="#f7768e" fill-opacity="0.200000" stroke="#2b2f4a" d="M951.38,-124C951.38,-124 916.62,-124 916.62,-124 910.62,-124 904.62,-118 904.62,-112 904.62,-112 904.62,-100 904.62,-100 904.62,-94 910.62,-88 916.62,-88 916.62,-88 951.38,-88 951.38,-88 957.38,-88 963.38,-94 963.38,-100 963.38,-100 963.38,-112 963.38,-112 963.38,-118 957.38,-124 951.38,-124"/>
<text text-anchor="middle" x="934" y="-100.2" font-family="Helvetica,sans-Serif" font-size="14.00" fill="#c0caf5">globals</text>
</g>
<!-- kong -->
<g id="node2" class="node">
<title>kong</title>
<path fill="#f7768e" fill-opacity="0.200000" stroke="#2b2f4a" d="M1023,-124C1023,-124 993,-124 993,-124 987,-124 981,-118 981,-112 981,-112 981,-100 981,-100 981,-94 987,-88 993,-88 993,-88 1023,-88 1023,-88 1029,-88 1035,-94 1035,-100 1035,-100 1035,-112 1035,-112 1035,-118 1029,-124 1023,-124"/>
<text text-anchor="middle" x="1008" y="-100.2" font-family="Helvetica,sans-Serif" font-size="14.00" fill="#c0caf5">kong</text>
</g>
<!-- supabase -->
<g id="node3" class="node">
<title>supabase</title>
<path fill="#7dcfff" fill-opacity="0.200000" stroke="#2b2f4a" d="M947.25,-285C947.25,-285 896.75,-285 896.75,-285 890.75,-285 884.75,-279 884.75,-273 884.75,-273 884.75,-261 884.75,-261 884.75,-255 890.75,-249 896.75,-249 896.75,-249 947.25,-249 947.25,-249 953.25,-249 959.25,-255 959.25,-261 959.25,-261 959.25,-273 959.25,-273 959.25,-279 953.25,-285 947.25,-285"/>
<text text-anchor="middle" x="922" y="-261.2" font-family="Helvetica,sans-Serif" font-size="14.00" fill="#c0caf5">supabase</text>
</g>
<!-- supabase&#45;&gt;kong -->
<g id="edge13" class="edge">
<title>supabase&#45;&gt;kong</title>
<path fill="none" stroke="#3d4261" d="M884.3,-263.08C869.58,-259.88 854.09,-253.51 845,-241 825.01,-213.5 821.73,-189.29 845,-164.5 854.68,-154.19 959.61,-163.31 972,-156.5 981.24,-151.42 988.72,-142.85 994.42,-134.25"/>
<polygon fill="#3d4261" stroke="#3d4261" points="997.43,-136.04 999.52,-125.66 991.41,-132.47 997.43,-136.04"/>
</g>
<!-- minio -->
<g id="node4" class="node">
<title>minio</title>
<path fill="#7dcfff" fill-opacity="0.200000" stroke="#2b2f4a" d="M896,-208.5C896,-208.5 866,-208.5 866,-208.5 860,-208.5 854,-202.5 854,-196.5 854,-196.5 854,-184.5 854,-184.5 854,-178.5 860,-172.5 866,-172.5 866,-172.5 896,-172.5 896,-172.5 902,-172.5 908,-178.5 908,-184.5 908,-184.5 908,-196.5 908,-196.5 908,-202.5 902,-208.5 896,-208.5"/>
<text text-anchor="middle" x="881" y="-184.7" font-family="Helvetica,sans-Serif" font-size="14.00" fill="#c0caf5">minio</text>
</g>
<!-- supabase&#45;&gt;minio -->
<g id="edge20" class="edge">
<title>supabase&#45;&gt;minio</title>
<path fill="none" stroke="#3d4261" d="M912.49,-248.72C907.61,-239.85 901.55,-228.84 896.05,-218.85"/>
<polygon fill="#3d4261" stroke="#3d4261" points="899.22,-217.34 891.33,-210.27 893.08,-220.72 899.22,-217.34"/>
</g>
<!-- neo4j -->
<g id="node5" class="node">
<title>neo4j</title>
<path fill="#7dcfff" fill-opacity="0.200000" stroke="#2b2f4a" d="M968,-208.5C968,-208.5 938,-208.5 938,-208.5 932,-208.5 926,-202.5 926,-196.5 926,-196.5 926,-184.5 926,-184.5 926,-178.5 932,-172.5 938,-172.5 938,-172.5 968,-172.5 968,-172.5 974,-172.5 980,-178.5 980,-184.5 980,-184.5 980,-196.5 980,-196.5 980,-202.5 974,-208.5 968,-208.5"/>
<text text-anchor="middle" x="953" y="-184.7" font-family="Helvetica,sans-Serif" font-size="14.00" fill="#c0caf5">neo4j</text>
</g>
<!-- supabase&#45;&gt;neo4j -->
<g id="edge24" class="edge">
<title>supabase&#45;&gt;neo4j</title>
<path fill="none" stroke="#3d4261" d="M929.19,-248.72C932.8,-240.04 937.27,-229.3 941.36,-219.48"/>
<polygon fill="#3d4261" stroke="#3d4261" points="944.55,-220.92 945.16,-210.34 938.09,-218.23 944.55,-220.92"/>
</g>
<!-- redis -->
<g id="node6" class="node">
<title>redis</title>
<path fill="#7dcfff" fill-opacity="0.200000" stroke="#2b2f4a" d="M1040,-208.5C1040,-208.5 1010,-208.5 1010,-208.5 1004,-208.5 998,-202.5 998,-196.5 998,-196.5 998,-184.5 998,-184.5 998,-178.5 1004,-172.5 1010,-172.5 1010,-172.5 1040,-172.5 1040,-172.5 1046,-172.5 1052,-178.5 1052,-184.5 1052,-184.5 1052,-196.5 1052,-196.5 1052,-202.5 1046,-208.5 1040,-208.5"/>
<text text-anchor="middle" x="1025" y="-184.7" font-family="Helvetica,sans-Serif" font-size="14.00" fill="#c0caf5">redis</text>
</g>
<!-- supabase&#45;&gt;redis -->
<g id="edge32" class="edge">
<title>supabase&#45;&gt;redis</title>
<path fill="none" stroke="#3d4261" d="M959.45,-256.37C969.66,-252.63 980.3,-247.61 989,-241 997.06,-234.88 1004.11,-226.46 1009.78,-218.3"/>
<polygon fill="#3d4261" stroke="#3d4261" points="1012.7,-220.22 1015.17,-209.92 1006.82,-216.43 1012.7,-220.22"/>
</g>
<!-- weaviate -->
<g id="node7" class="node">
<title>weaviate</title>
<path fill="#7dcfff" fill-opacity="0.200000" stroke="#2b2f4a" d="M1127.62,-208.5C1127.62,-208.5 1082.38,-208.5 1082.38,-208.5 1076.38,-208.5 1070.38,-202.5 1070.38,-196.5 1070.38,-196.5 1070.38,-184.5 1070.38,-184.5 1070.38,-178.5 1076.38,-172.5 1082.38,-172.5 1082.38,-172.5 1127.62,-172.5 1127.62,-172.5 1133.62,-172.5 1139.62,-178.5 1139.62,-184.5 1139.62,-184.5 1139.62,-196.5 1139.62,-196.5 1139.62,-202.5 1133.62,-208.5 1127.62,-208.5"/>
<text text-anchor="middle" x="1105" y="-184.7" font-family="Helvetica,sans-Serif" font-size="14.00" fill="#c0caf5">weaviate</text>
</g>
<!-- supabase&#45;&gt;weaviate -->
<g id="edge38" class="edge">
<title>supabase&#45;&gt;weaviate</title>
<path fill="none" stroke="#3d4261" d="M959.64,-265.82C988.96,-264.18 1029.78,-258.51 1061,-241 1071.02,-235.38 1079.91,-226.62 1087.04,-218.01"/>
<polygon fill="#3d4261" stroke="#3d4261" points="1089.81,-220.15 1093.13,-210.09 1084.26,-215.89 1089.81,-220.15"/>
</g>
<!-- litellm -->
<g id="node8" class="node">
<title>litellm</title>
<path fill="#e0af68" fill-opacity="0.200000" stroke="#2b2f4a" d="M186,-208.5C186,-208.5 156,-208.5 156,-208.5 150,-208.5 144,-202.5 144,-196.5 144,-196.5 144,-184.5 144,-184.5 144,-178.5 150,-172.5 156,-172.5 156,-172.5 186,-172.5 186,-172.5 192,-172.5 198,-178.5 198,-184.5 198,-184.5 198,-196.5 198,-196.5 198,-202.5 192,-208.5 186,-208.5"/>
<text text-anchor="middle" x="171" y="-184.7" font-family="Helvetica,sans-Serif" font-size="14.00" fill="#c0caf5">litellm</text>
</g>
<!-- supabase&#45;&gt;litellm -->
<g id="edge15" class="edge">
<title>supabase&#45;&gt;litellm</title>
<path fill="none" stroke="#3d4261" d="M884.38,-264.23C817.44,-260.9 673.26,-252.96 552,-241 426.19,-228.59 277.83,-207.42 209.27,-197.27"/>
<polygon fill="#3d4261" stroke="#3d4261" points="210.09,-193.85 199.69,-195.84 209.06,-200.78 210.09,-193.85"/>
</g>
<!-- ollama -->
<g id="node10" class="node">
<title>ollama</title>
<path fill="#e0af68" fill-opacity="0.200000" stroke="#2b2f4a" d="M60.25,-124C60.25,-124 27.75,-124 27.75,-124 21.75,-124 15.75,-118 15.75,-112 15.75,-112 15.75,-100 15.75,-100 15.75,-94 21.75,-88 27.75,-88 27.75,-88 60.25,-88 60.25,-88 66.25,-88 72.25,-94 72.25,-100 72.25,-100 72.25,-112 72.25,-112 72.25,-118 66.25,-124 60.25,-124"/>
<text text-anchor="middle" x="44" y="-100.2" font-family="Helvetica,sans-Serif" font-size="14.00" fill="#c0caf5">ollama</text>
</g>
<!-- supabase&#45;&gt;ollama -->
<g id="edge25" class="edge">
<title>supabase&#45;&gt;ollama</title>
<path fill="none" stroke="#3d4261" d="M884.26,-265.75C731.84,-264.62 168.12,-259.22 135,-241 93.35,-218.08 67.02,-166.99 53.94,-134.93"/>
<polygon fill="#3d4261" stroke="#3d4261" points="57.31,-133.93 50.42,-125.88 50.78,-136.47 57.31,-133.93"/>
</g>
<!-- comfyui -->
<g id="node12" class="node">
<title>comfyui</title>
<path fill="#7aa2f7" fill-opacity="0.200000" stroke="#2b2f4a" d="M786.62,-124C786.62,-124 747.38,-124 747.38,-124 741.38,-124 735.38,-118 735.38,-112 735.38,-112 735.38,-100 735.38,-100 735.38,-94 741.38,-88 747.38,-88 747.38,-88 786.62,-88 786.62,-88 792.62,-88 798.62,-94 798.62,-100 798.62,-100 798.62,-112 798.62,-112 798.62,-118 792.62,-124 786.62,-124"/>
<text text-anchor="middle" x="767" y="-100.2" font-family="Helvetica,sans-Serif" font-size="14.00" fill="#c0caf5">comfyui</text>
</g>
<!-- supabase&#45;&gt;comfyui -->
<g id="edge6" class="edge">
<title>supabase&#45;&gt;comfyui</title>
<path fill="none" stroke="#3d4261" d="M884.4,-262.96C852.22,-259.58 809.23,-252.95 797,-241 768.85,-213.49 764.53,-165.74 765.01,-135.29"/>
<polygon fill="#3d4261" stroke="#3d4261" points="768.5,-135.8 765.36,-125.68 761.5,-135.55 768.5,-135.8"/>
</g>
<!-- searxng -->
<g id="node14" class="node">
<title>searxng</title>
<path fill="#7aa2f7" fill-opacity="0.200000" stroke="#2b2f4a" d="M869,-124C869,-124 829,-124 829,-124 823,-124 817,-118 817,-112 817,-112 817,-100 817,-100 817,-94 823,-88 829,-88 829,-88 869,-88 869,-88 875,-88 881,-94 881,-100 881,-100 881,-112 881,-112 881,-118 875,-124 869,-124"/>
<text text-anchor="middle" x="849" y="-100.2" font-family="Helvetica,sans-Serif" font-size="14.00" fill="#c0caf5">searxng</text>
</g>
<!-- supabase&#45;&gt;searxng -->
<g id="edge33" class="edge">
<title>supabase&#45;&gt;searxng</title>
<path fill="none" stroke="#3d4261" d="M884.33,-262.42C856.15,-258.87 821.01,-252.29 812,-241 786.97,-209.65 810.04,-162.52 829.3,-133.32"/>
<polygon fill="#3d4261" stroke="#3d4261" points="831.97,-135.62 834.75,-125.4 826.2,-131.65 831.97,-135.62"/>
</g>
<!-- n8n -->
<g id="node19" class="node">
<title>n8n</title>
<path fill="#9ece6a" fill-opacity="0.200000" stroke="#2b2f4a" d="M435,-124C435,-124 405,-124 405,-124 399,-124 393,-118 393,-112 393,-112 393,-100 393,-100 393,-94 399,-88 405,-88 405,-88 435,-88 435,-88 441,-88 447,-94 447,-100 447,-100 447,-112 447,-112 447,-118 441,-124 435,-124"/>
<text text-anchor="middle" x="420" y="-100.2" font-family="Helvetica,sans-Serif" font-size="14.00" fill="#c0caf5">n8n</text>
</g>
<!-- supabase&#45;&gt;n8n -->
<g id="edge21" class="edge">
<title>supabase&#45;&gt;n8n</title>
<path fill="none" stroke="#3d4261" d="M884.27,-261.37C851.7,-257.08 803.49,-249.99 762,-241 625.37,-211.38 575.35,-234.02 459,-156.5 450.23,-150.66 442.54,-142.2 436.36,-133.93"/>
<polygon fill="#3d4261" stroke="#3d4261" points="439.24,-131.95 430.68,-125.72 433.49,-135.93 439.24,-131.95"/>
</g>
<!-- backend -->
<g id="node21" class="node">
<title>backend</title>
<path fill="#bb9af7" fill-opacity="0.200000" stroke="#2b2f4a" d="M1480.5,-124C1480.5,-124 1437.5,-124 1437.5,-124 1431.5,-124 1425.5,-118 1425.5,-112 1425.5,-112 1425.5,-100 1425.5,-100 1425.5,-94 1431.5,-88 1437.5,-88 1437.5,-88 1480.5,-88 1480.5,-88 1486.5,-88 1492.5,-94 1492.5,-100 1492.5,-100 1492.5,-112 1492.5,-112 1492.5,-118 1486.5,-124 1480.5,-124"/>
<text text-anchor="middle" x="1459" y="-100.2" font-family="Helvetica,sans-Serif" font-size="14.00" fill="#c0caf5">backend</text>
</g>
<!-- supabase&#45;&gt;backend -->
<g id="edge1" class="edge">
<title>supabase&#45;&gt;backend</title>
<path fill="none" stroke="#3d4261" d="M959.49,-265.71C1039.33,-264.73 1223.73,-260.37 1283,-241 1349.92,-219.13 1363.83,-202.66 1417,-156.5 1425.04,-149.52 1432.86,-140.95 1439.54,-132.92"/>
<polygon fill="#3d4261" stroke="#3d4261" points="1442.06,-135.36 1445.59,-125.37 1436.6,-130.99 1442.06,-135.36"/>
</g>
<!-- jupyterhub -->
<g id="node22" class="node">
<title>jupyterhub</title>
<path fill="#bb9af7" fill-opacity="0.200000" stroke="#2b2f4a" d="M1395.5,-124C1395.5,-124 1340.5,-124 1340.5,-124 1334.5,-124 1328.5,-118 1328.5,-112 1328.5,-112 1328.5,-100 1328.5,-100 1328.5,-94 1334.5,-88 1340.5,-88 1340.5,-88 1395.5,-88 1395.5,-88 1401.5,-88 1407.5,-94 1407.5,-100 1407.5,-100 1407.5,-112 1407.5,-112 1407.5,-118 1401.5,-124 1395.5,-124"/>
<text text-anchor="middle" x="1368" y="-100.2" font-family="Helvetica,sans-Serif" font-size="14.00" fill="#c0caf5">jupyterhub</text>
</g>
<!-- supabase&#45;&gt;jupyterhub -->
<g id="edge10" class="edge">
<title>supabase&#45;&gt;jupyterhub</title>
<path fill="none" stroke="#3d4261" d="M959.66,-265.61C1028.59,-264.43 1172.17,-259.73 1218,-241 1273.9,-218.15 1322.72,-165.03 1348.52,-132.95"/>
<polygon fill="#3d4261" stroke="#3d4261" points="1351.11,-135.33 1354.54,-125.31 1345.61,-131 1351.11,-135.33"/>
</g>
<!-- open&#45;webui -->
<g id="node23" class="node">
<title>open&#45;webui</title>
<path fill="#bb9af7" fill-opacity="0.200000" stroke="#2b2f4a" d="M1298.88,-124C1298.88,-124 1237.12,-124 1237.12,-124 1231.12,-124 1225.12,-118 1225.12,-112 1225.12,-112 1225.12,-100 1225.12,-100 1225.12,-94 1231.12,-88 1237.12,-88 1237.12,-88 1298.88,-88 1298.88,-88 1304.88,-88 1310.88,-94 1310.88,-100 1310.88,-100 1310.88,-112 1310.88,-112 1310.88,-118 1304.88,-124 1298.88,-124"/>
<text text-anchor="middle" x="1268" y="-100.2" font-family="Helvetica,sans-Serif" font-size="14.00" fill="#c0caf5">open&#45;webui</text>
</g>
<!-- supabase&#45;&gt;open&#45;webui -->
<g id="edge27" class="edge">
<title>supabase&#45;&gt;open&#45;webui</title>
<path fill="none" stroke="#3d4261" d="M959.65,-265.9C1019.98,-265.13 1135.07,-260.99 1170,-241 1212.29,-216.79 1241.46,-166.11 1256.4,-134.49"/>
<polygon fill="#3d4261" stroke="#3d4261" points="1259.51,-136.1 1260.46,-125.55 1253.14,-133.2 1259.51,-136.1"/>
</g>
<!-- local&#45;deep&#45;researcher -->
<g id="node24" class="node">
<title>local&#45;deep&#45;researcher</title>
<path fill="#bb9af7" fill-opacity="0.200000" stroke="#2b2f4a" d="M1194.62,-124C1194.62,-124 1071.38,-124 1071.38,-124 1065.38,-124 1059.38,-118 1059.38,-112 1059.38,-112 1059.38,-100 1059.38,-100 1059.38,-94 1065.38,-88 1071.38,-88 1071.38,-88 1194.62,-88 1194.62,-88 1200.62,-88 1206.62,-94 1206.62,-100 1206.62,-100 1206.62,-112 1206.62,-112 1206.62,-118 1200.62,-124 1194.62,-124"/>
<text text-anchor="middle" x="1133" y="-100.2" font-family="Helvetica,sans-Serif" font-size="14.00" fill="#c0caf5">local&#45;deep&#45;researcher</text>
</g>
<!-- supabase&#45;&gt;local&#45;deep&#45;researcher -->
<g id="edge17" class="edge">
<title>supabase&#45;&gt;local&#45;deep&#45;researcher</title>
<path fill="none" stroke="#3d4261" d="M959.4,-264.56C1020.59,-261.82 1136.6,-254.84 1149,-241 1174.9,-212.09 1160.58,-164.49 1147.25,-134.49"/>
<polygon fill="#3d4261" stroke="#3d4261" points="1150.52,-133.23 1143.1,-125.67 1144.19,-136.21 1150.52,-133.23"/>
</g>
<!-- redis&#45;&gt;kong -->
<g id="edge14" class="edge">
<title>redis&#45;&gt;kong</title>
<path fill="none" stroke="#3d4261" d="M1021.39,-172C1019.21,-161.39 1016.37,-147.6 1013.86,-135.46"/>
<polygon fill="#3d4261" stroke="#3d4261" points="1017.35,-135.04 1011.91,-125.95 1010.5,-136.45 1017.35,-135.04"/>
</g>
<!-- redis&#45;&gt;litellm -->
<g id="edge16" class="edge">
<title>redis&#45;&gt;litellm</title>
<path fill="none" stroke="#3d4261" d="M1017.5,-208.83C1010.36,-223.12 998,-241.18 980,-245 958.59,-249.54 804.87,-245.97 783,-245 565.62,-235.34 306.08,-206.47 209.6,-195.14"/>
<polygon fill="#3d4261" stroke="#3d4261" points="210.24,-191.69 199.89,-193.99 209.41,-198.64 210.24,-191.69"/>
</g>
<!-- redis&#45;&gt;searxng -->
<g id="edge34" class="edge">
<title>redis&#45;&gt;searxng</title>
<path fill="none" stroke="#3d4261" d="M1003.93,-172.19C999.26,-169.14 994.16,-166.35 989,-164.5 948.71,-150.02 931.29,-175.65 893,-156.5 882.47,-151.23 873.32,-142.26 866.13,-133.38"/>
<polygon fill="#3d4261" stroke="#3d4261" points="869.07,-131.47 860.29,-125.55 863.46,-135.65 869.07,-131.47"/>
</g>
<!-- redis&#45;&gt;n8n -->
<g id="edge22" class="edge">
<title>redis&#45;&gt;n8n</title>
<path fill="none" stroke="#3d4261" d="M1004.41,-172.17C999.63,-169.04 994.36,-166.22 989,-164.5 960.97,-155.49 485.4,-169.55 459,-156.5 448.92,-151.51 440.64,-142.55 434.35,-133.6"/>
<polygon fill="#3d4261" stroke="#3d4261" points="437.44,-131.94 429.12,-125.37 431.53,-135.69 437.44,-131.94"/>
</g>
<!-- redis&#45;&gt;backend -->
<g id="edge2" class="edge">
<title>redis&#45;&gt;backend</title>
<path fill="none" stroke="#3d4261" d="M1045.6,-172.2C1050.38,-169.07 1055.65,-166.24 1061,-164.5 1098.62,-152.25 1381.28,-173.53 1417,-156.5 1427.57,-151.46 1436.48,-142.36 1443.33,-133.32"/>
<polygon fill="#3d4261" stroke="#3d4261" points="1446.04,-135.56 1448.86,-125.34 1440.29,-131.57 1446.04,-135.56"/>
</g>
<!-- redis&#45;&gt;jupyterhub -->
<g id="edge11" class="edge">
<title>redis&#45;&gt;jupyterhub</title>
<path fill="none" stroke="#3d4261" d="M1045.61,-172.24C1050.39,-169.1 1055.65,-166.27 1061,-164.5 1088.34,-155.47 1293.66,-168.13 1320,-156.5 1331.5,-151.42 1341.64,-142.18 1349.6,-133.05"/>
<polygon fill="#3d4261" stroke="#3d4261" points="1352.31,-135.27 1355.86,-125.29 1346.86,-130.88 1352.31,-135.27"/>
</g>
<!-- redis&#45;&gt;open&#45;webui -->
<g id="edge28" class="edge">
<title>redis&#45;&gt;open&#45;webui</title>
<path fill="none" stroke="#3d4261" d="M1046.02,-172.07C1050.7,-169.02 1055.82,-166.27 1061,-164.5 1093.64,-153.35 1184.32,-170.13 1216,-156.5 1228.27,-151.22 1239.38,-141.69 1248.16,-132.38"/>
<polygon fill="#3d4261" stroke="#3d4261" points="1250.53,-134.98 1254.52,-125.17 1245.28,-130.35 1250.53,-134.98"/>
</g>
<!-- litellm&#45;&gt;weaviate -->
<g id="edge39" class="edge">
<title>litellm&#45;&gt;weaviate</title>
<path fill="none" stroke="#3d4261" d="M198.19,-193.6C287.34,-203.59 578.87,-234.87 821,-245 846.64,-246.07 1026.89,-250.33 1052,-245 1067.18,-241.78 1079.59,-230.02 1088.58,-218.25"/>
<polygon fill="#3d4261" stroke="#3d4261" points="1091.34,-220.41 1094.18,-210.21 1085.59,-216.41 1091.34,-220.41"/>
</g>
<!-- cloud&#45;providers -->
<g id="node9" class="node">
<title>cloud&#45;providers</title>
<path fill="#e0af68" fill-opacity="0.200000" stroke="#2b2f4a" d="M186.12,-124C186.12,-124 101.88,-124 101.88,-124 95.88,-124 89.88,-118 89.88,-112 89.88,-112 89.88,-100 89.88,-100 89.88,-94 95.88,-88 101.88,-88 101.88,-88 186.12,-88 186.12,-88 192.12,-88 198.12,-94 198.12,-100 198.12,-100 198.12,-112 198.12,-112 198.12,-118 192.12,-124 186.12,-124"/>
<text text-anchor="middle" x="144" y="-100.2" font-family="Helvetica,sans-Serif" font-size="14.00" fill="#c0caf5">cloud&#45;providers</text>
</g>
<!-- litellm&#45;&gt;cloud&#45;providers -->
<g id="edge5" class="edge">
<title>litellm&#45;&gt;cloud&#45;providers</title>
<path fill="none" stroke="#3d4261" d="M165.27,-172C161.77,-161.28 157.2,-147.32 153.19,-135.08"/>
<polygon fill="#3d4261" stroke="#3d4261" points="156.63,-134.32 150.19,-125.91 149.97,-136.5 156.63,-134.32"/>
</g>
<!-- litellm&#45;&gt;ollama -->
<g id="edge26" class="edge">
<title>litellm&#45;&gt;ollama</title>
<path fill="none" stroke="#3d4261" d="M143.53,-181.33C120.97,-174.27 91.14,-164.06 81,-156.5 72.71,-150.33 65.42,-141.79 59.56,-133.55"/>
<polygon fill="#3d4261" stroke="#3d4261" points="62.62,-131.83 54.18,-125.42 56.78,-135.69 62.62,-131.83"/>
</g>
<!-- litellm&#45;&gt;comfyui -->
<g id="edge7" class="edge">
<title>litellm&#45;&gt;comfyui</title>
<path fill="none" stroke="#3d4261" d="M198.39,-189.14C303.65,-187.61 678.7,-180.48 726,-156.5 736.09,-151.39 744.61,-142.56 751.23,-133.77"/>
<polygon fill="#3d4261" stroke="#3d4261" points="754.02,-135.89 756.8,-125.67 748.25,-131.93 754.02,-135.89"/>
</g>
<!-- parakeet -->
<g id="node13" class="node">
<title>parakeet</title>
<path fill="#7aa2f7" fill-opacity="0.200000" stroke="#2b2f4a" d="M705.25,-124C705.25,-124 660.75,-124 660.75,-124 654.75,-124 648.75,-118 648.75,-112 648.75,-112 648.75,-100 648.75,-100 648.75,-94 654.75,-88 660.75,-88 660.75,-88 705.25,-88 705.25,-88 711.25,-88 717.25,-94 717.25,-100 717.25,-100 717.25,-112 717.25,-112 717.25,-118 711.25,-124 705.25,-124"/>
<text text-anchor="middle" x="683" y="-100.2" font-family="Helvetica,sans-Serif" font-size="14.00" fill="#c0caf5">parakeet</text>
</g>
<!-- litellm&#45;&gt;parakeet -->
<g id="edge31" class="edge">
<title>litellm&#45;&gt;parakeet</title>
<path fill="none" stroke="#3d4261" d="M198.23,-188.79C292.37,-186.19 600.47,-176.23 640,-156.5 650.43,-151.29 659.4,-142.33 666.4,-133.45"/>
<polygon fill="#3d4261" stroke="#3d4261" points="669.05,-135.76 672.09,-125.61 663.38,-131.65 669.05,-135.76"/>
</g>
<!-- tts&#45;provider -->
<g id="node15" class="node">
<title>tts&#45;provider</title>
<path fill="#7aa2f7" fill-opacity="0.200000" stroke="#2b2f4a" d="M618.75,-124C618.75,-124 559.25,-124 559.25,-124 553.25,-124 547.25,-118 547.25,-112 547.25,-112 547.25,-100 547.25,-100 547.25,-94 553.25,-88 559.25,-88 559.25,-88 618.75,-88 618.75,-88 624.75,-88 630.75,-94 630.75,-100 630.75,-100 630.75,-112 630.75,-112 630.75,-118 624.75,-124 618.75,-124"/>
<text text-anchor="middle" x="589" y="-100.2" font-family="Helvetica,sans-Serif" font-size="14.00" fill="#c0caf5">tts&#45;provider</text>
</g>
<!-- litellm&#45;&gt;tts&#45;provider -->
<g id="edge37" class="edge">
<title>litellm&#45;&gt;tts&#45;provider</title>
<path fill="none" stroke="#3d4261" d="M198.49,-189.38C273.05,-188.69 477.53,-184.24 538,-156.5 549.73,-151.12 560.39,-141.87 568.89,-132.82"/>
<polygon fill="#3d4261" stroke="#3d4261" points="571.38,-135.29 575.35,-125.47 566.12,-130.67 571.38,-135.29"/>
</g>
<!-- hermes -->
<g id="node18" class="node">
<title>hermes</title>
<path fill="#9ece6a" fill-opacity="0.200000" stroke="#2b2f4a" d="M271.88,-124C271.88,-124 234.12,-124 234.12,-124 228.12,-124 222.12,-118 222.12,-112 222.12,-112 222.12,-100 222.12,-100 222.12,-94 228.12,-88 234.12,-88 234.12,-88 271.88,-88 271.88,-88 277.88,-88 283.88,-94 283.88,-100 283.88,-100 283.88,-112 283.88,-112 283.88,-118 277.88,-124 271.88,-124"/>
<text text-anchor="middle" x="253" y="-100.2" font-family="Helvetica,sans-Serif" font-size="14.00" fill="#c0caf5">hermes</text>
</g>
<!-- litellm&#45;&gt;hermes -->
<g id="edge9" class="edge">
<title>litellm&#45;&gt;hermes</title>
<path fill="none" stroke="#3d4261" d="M192.57,-172.26C198.39,-167.34 204.57,-161.86 210,-156.5 217.45,-149.14 225.1,-140.68 231.85,-132.86"/>
<polygon fill="#3d4261" stroke="#3d4261" points="234.51,-135.12 238.3,-125.23 229.17,-130.6 234.51,-135.12"/>
</g>
<!-- litellm&#45;&gt;n8n -->
<g id="edge23" class="edge">
<title>litellm&#45;&gt;n8n</title>
<path fill="none" stroke="#3d4261" d="M198.14,-187.88C248.31,-184.47 353.25,-175.26 384,-156.5 392.87,-151.09 400.21,-142.59 405.9,-134.16"/>
<polygon fill="#3d4261" stroke="#3d4261" points="408.8,-136.12 411.03,-125.76 402.83,-132.47 408.8,-136.12"/>
</g>
<!-- openclaw -->
<g id="node20" class="node">
<title>openclaw</title>
<path fill="#9ece6a" fill-opacity="0.200000" stroke="#2b2f4a" d="M362.5,-124C362.5,-124 313.5,-124 313.5,-124 307.5,-124 301.5,-118 301.5,-112 301.5,-112 301.5,-100 301.5,-100 301.5,-94 307.5,-88 313.5,-88 313.5,-88 362.5,-88 362.5,-88 368.5,-88 374.5,-94 374.5,-100 374.5,-100 374.5,-112 374.5,-112 374.5,-118 368.5,-124 362.5,-124"/>
<text text-anchor="middle" x="338" y="-100.2" font-family="Helvetica,sans-Serif" font-size="14.00" fill="#c0caf5">openclaw</text>
</g>
<!-- litellm&#45;&gt;openclaw -->
<g id="edge30" class="edge">
<title>litellm&#45;&gt;openclaw</title>
<path fill="none" stroke="#3d4261" d="M198.44,-186.57C224.38,-182.81 263.61,-174.46 293,-156.5 302.75,-150.54 311.66,-141.85 318.92,-133.4"/>
<polygon fill="#3d4261" stroke="#3d4261" points="321.62,-135.64 325.18,-125.66 316.17,-131.24 321.62,-135.64"/>
</g>
<!-- litellm&#45;&gt;backend -->
<g id="edge3" class="edge">
<title>litellm&#45;&gt;backend</title>
<path fill="none" stroke="#3d4261" d="M198.48,-188.25C289.87,-184.12 592.03,-170.89 842,-164.5 857.97,-164.09 1402.55,-163.31 1417,-156.5 1427.59,-151.51 1436.51,-142.41 1443.36,-133.37"/>
<polygon fill="#3d4261" stroke="#3d4261" points="1446.07,-135.6 1448.88,-125.38 1440.31,-131.62 1446.07,-135.6"/>
</g>
<!-- litellm&#45;&gt;jupyterhub -->
<g id="edge12" class="edge">
<title>litellm&#45;&gt;jupyterhub</title>
<path fill="none" stroke="#3d4261" d="M198.48,-188.27C289.88,-184.24 592.04,-171.25 842,-164.5 868.55,-163.78 1295.63,-167.06 1320,-156.5 1331.53,-151.5 1341.68,-142.28 1349.64,-133.13"/>
<polygon fill="#3d4261" stroke="#3d4261" points="1352.35,-135.34 1355.89,-125.36 1346.9,-130.96 1352.35,-135.34"/>
</g>
<!-- litellm&#45;&gt;open&#45;webui -->
<g id="edge29" class="edge">
<title>litellm&#45;&gt;open&#45;webui</title>
<path fill="none" stroke="#3d4261" d="M198.48,-188.32C289.88,-184.43 592.06,-171.83 842,-164.5 862.77,-163.89 1196.79,-164.42 1216,-156.5 1228.35,-151.41 1239.48,-141.9 1248.24,-132.57"/>
<polygon fill="#3d4261" stroke="#3d4261" points="1250.63,-135.15 1254.59,-125.32 1245.36,-130.54 1250.63,-135.15"/>
</g>
<!-- litellm&#45;&gt;local&#45;deep&#45;researcher -->
<g id="edge19" class="edge">
<title>litellm&#45;&gt;local&#45;deep&#45;researcher</title>
<path fill="none" stroke="#3d4261" d="M198.13,-188.49C345.76,-182.99 1045.69,-156.88 1047,-156.5 1065.88,-151.07 1085,-140.66 1100.4,-130.78"/>
<polygon fill="#3d4261" stroke="#3d4261" points="1102.31,-133.72 1108.69,-125.26 1098.43,-127.89 1102.31,-133.72"/>
</g>
<!-- ollama&#45;&gt;comfyui -->
<g id="edge8" class="edge">
<title>ollama&#45;&gt;comfyui</title>
<path fill="none" stroke="#3d4261" d="M51.78,-124.31C59.16,-138.6 71.83,-156.64 90,-160.5 107.04,-164.12 699.96,-164.12 717,-160.5 731.87,-157.35 743.67,-145.46 752.07,-133.59"/>
<polygon fill="#3d4261" stroke="#3d4261" points="754.8,-135.82 757.26,-125.51 748.91,-132.04 754.8,-135.82"/>
</g>
<!-- docling -->
<g id="node11" class="node">
<title>docling</title>
<path fill="#7aa2f7" fill-opacity="0.200000" stroke="#2b2f4a" d="M517.38,-124C517.38,-124 482.62,-124 482.62,-124 476.62,-124 470.62,-118 470.62,-112 470.62,-112 470.62,-100 470.62,-100 470.62,-94 476.62,-88 482.62,-88 482.62,-88 517.38,-88 517.38,-88 523.38,-88 529.38,-94 529.38,-100 529.38,-100 529.38,-112 529.38,-112 529.38,-118 523.38,-124 517.38,-124"/>
<text text-anchor="middle" x="500" y="-100.2" font-family="Helvetica,sans-Serif" font-size="14.00" fill="#c0caf5">docling</text>
</g>
<!-- speaches -->
<g id="node17" class="node">
<title>speaches</title>
<path fill="#7aa2f7" fill-opacity="0.200000" stroke="#2b2f4a" d="M707.88,-52C707.88,-52 658.12,-52 658.12,-52 652.12,-52 646.12,-46 646.12,-40 646.12,-40 646.12,-28 646.12,-28 646.12,-22 652.12,-16 658.12,-16 658.12,-16 707.88,-16 707.88,-16 713.88,-16 719.88,-22 719.88,-28 719.88,-28 719.88,-40 719.88,-40 719.88,-46 713.88,-52 707.88,-52"/>
<text text-anchor="middle" x="683" y="-28.2" font-family="Helvetica,sans-Serif" font-size="14.00" fill="#c0caf5">speaches</text>
</g>
<!-- parakeet&#45;&gt;speaches -->
<g id="edge35" class="edge">
<title>parakeet&#45;&gt;speaches</title>
<path fill="none" stroke="#3d4261" d="M683,-87.7C683,-80.41 683,-71.73 683,-63.54"/>
<polygon fill="#3d4261" stroke="#3d4261" points="686.5,-63.62 683,-53.62 679.5,-63.62 686.5,-63.62"/>
</g>
<!-- searxng&#45;&gt;local&#45;deep&#45;researcher -->
<g id="edge18" class="edge">
<title>searxng&#45;&gt;local&#45;deep&#45;researcher</title>
<path fill="none" stroke="#3d4261" d="M858.96,-124.46C867.96,-138.62 882.76,-156.42 902,-160.5 916.78,-163.64 1023.22,-163.64 1038,-160.5 1060.91,-155.64 1083.77,-142.83 1101.32,-130.86"/>
<polygon fill="#3d4261" stroke="#3d4261" points="1103.13,-133.87 1109.26,-125.22 1099.08,-128.16 1103.13,-133.87"/>
</g>
<!-- chatterbox -->
<g id="node16" class="node">
<title>chatterbox</title>
<path fill="#7aa2f7" fill-opacity="0.200000" stroke="#2b2f4a" d="M616.5,-52C616.5,-52 561.5,-52 561.5,-52 555.5,-52 549.5,-46 549.5,-40 549.5,-40 549.5,-28 549.5,-28 549.5,-22 555.5,-16 561.5,-16 561.5,-16 616.5,-16 616.5,-16 622.5,-16 628.5,-22 628.5,-28 628.5,-28 628.5,-40 628.5,-40 628.5,-46 622.5,-52 616.5,-52"/>
<text text-anchor="middle" x="589" y="-28.2" font-family="Helvetica,sans-Serif" font-size="14.00" fill="#c0caf5">chatterbox</text>
</g>
<!-- tts&#45;provider&#45;&gt;chatterbox -->
<g id="edge4" class="edge">
<title>tts&#45;provider&#45;&gt;chatterbox</title>
<path fill="none" stroke="#3d4261" d="M589,-87.7C589,-80.41 589,-71.73 589,-63.54"/>
<polygon fill="#3d4261" stroke="#3d4261" points="592.5,-63.62 589,-53.62 585.5,-63.62 592.5,-63.62"/>
</g>
<!-- tts&#45;provider&#45;&gt;speaches -->
<g id="edge36" class="edge">
<title>tts&#45;provider&#45;&gt;speaches</title>
<path fill="none" stroke="#3d4261" d="M612.24,-87.7C623.87,-79.03 638.15,-68.4 650.82,-58.96"/>
<polygon fill="#3d4261" stroke="#3d4261" points="652.56,-62.03 658.49,-53.25 648.38,-56.42 652.56,-62.03"/>
</g>
</g>
</svg>
