<?xml version="1.0" encoding="UTF-8"?>
<svg xmlns="http://www.w3.org/2000/svg" viewBox="0 0 1400 1100" preserveAspectRatio="xMidYMid meet" font-family="'JetBrains Mono', 'Fira Code', Menlo, Consolas, monospace">
  <title>GenAI Vanilla Stack — Architecture</title>
  <desc>Topologically-ordered architecture diagram of the GenAI Vanilla stack: external clients enter via Kong, the gateway routes to Apps and Agents, which call the LLM Core (LiteLLM → Ollama + cloud) and the Media + Data layers; Ray supplies distributed compute.</desc>

  <defs>
    <pattern id="grid" width="40" height="40" patternUnits="userSpaceOnUse">
      <path d="M 40 0 L 0 0 0 40" fill="none" stroke="#1e293b" stroke-width="0.5"/>
    </pattern>

    <marker id="arrow" markerWidth="10" markerHeight="7" refX="9" refY="3.5" orient="auto">
      <polygon points="0 0, 10 3.5, 0 7" fill="#64748b"/>
    </marker>
    <marker id="arrow-cyan" markerWidth="10" markerHeight="7" refX="9" refY="3.5" orient="auto">
      <polygon points="0 0, 10 3.5, 0 7" fill="#22d3ee"/>
    </marker>
    <marker id="arrow-emerald" markerWidth="10" markerHeight="7" refX="9" refY="3.5" orient="auto">
      <polygon points="0 0, 10 3.5, 0 7" fill="#34d399"/>
    </marker>
    <marker id="arrow-amber" markerWidth="10" markerHeight="7" refX="9" refY="3.5" orient="auto">
      <polygon points="0 0, 10 3.5, 0 7" fill="#fbbf24"/>
    </marker>
    <marker id="arrow-rose" markerWidth="10" markerHeight="7" refX="9" refY="3.5" orient="auto">
      <polygon points="0 0, 10 3.5, 0 7" fill="#fb7185"/>
    </marker>
  </defs>

  <!-- Background -->
  <rect width="1400" height="1100" fill="#020617"/>
  <rect width="1400" height="1100" fill="url(#grid)"/>

  <!-- ─────────────────  HEADER  ───────────────── -->
  <g transform="translate(60, 30)">
    <circle cx="0" cy="22" r="6" fill="#22d3ee">
      <animate attributeName="opacity" values="0.4;1;0.4" dur="2s" repeatCount="indefinite"/>
    </circle>
    <text x="20" y="22" fill="#e2e8f0" font-size="22" font-weight="700" dominant-baseline="middle">GenAI Vanilla Stack — Architecture</text>
    <text x="20" y="46" fill="#94a3b8" font-size="11" dominant-baseline="middle">Topologically-ordered • SOURCE-configurable • Kong-fronted • LiteLLM-routed</text>
  </g>

  <!-- ─────────────────  FLOW ARROWS (drawn first)  ───────────────── -->

  <!-- External clients → Kong -->
  <line x1="450" y1="160" x2="610" y2="208" stroke="#94a3b8" stroke-width="1.5" marker-end="url(#arrow)"/>
  <line x1="700" y1="160" x2="700" y2="208" stroke="#94a3b8" stroke-width="1.5" marker-end="url(#arrow)"/>
  <line x1="950" y1="160" x2="790" y2="208" stroke="#94a3b8" stroke-width="1.5" marker-end="url(#arrow)"/>

  <!-- Kong → Apps (rose trunk + dashed tee fan-out) -->
  <line x1="700" y1="258" x2="700" y2="295" stroke="#fb7185" stroke-width="2" marker-end="url(#arrow-rose)"/>
  <line x1="210" y1="295" x2="1140" y2="295" stroke="#fb7185" stroke-width="1" stroke-dasharray="3,3" opacity="0.55"/>
  <line x1="210" y1="295" x2="210" y2="308" stroke="#fb7185" stroke-width="1" stroke-dasharray="3,3" opacity="0.55"/>
  <line x1="500" y1="295" x2="500" y2="308" stroke="#fb7185" stroke-width="1" stroke-dasharray="3,3" opacity="0.55"/>
  <line x1="790" y1="295" x2="790" y2="308" stroke="#fb7185" stroke-width="1" stroke-dasharray="3,3" opacity="0.55"/>
  <line x1="1140" y1="295" x2="1140" y2="308" stroke="#fb7185" stroke-width="1" stroke-dasharray="3,3" opacity="0.55"/>

  <!-- Apps → Agents (cyan, partial) -->
  <line x1="500" y1="360" x2="500" y2="428" stroke="#22d3ee" stroke-width="1.5" marker-end="url(#arrow-cyan)" opacity="0.55"/>
  <line x1="900" y1="360" x2="900" y2="428" stroke="#22d3ee" stroke-width="1.5" marker-end="url(#arrow-cyan)" opacity="0.55"/>

  <!-- Apps → LLM (long cyan trunks: Open WebUI + Backend) -->
  <line x1="210" y1="360" x2="210" y2="548" stroke="#22d3ee" stroke-width="1.5" marker-end="url(#arrow-cyan)" opacity="0.6"/>
  <!-- Agents → LLM (emerald) -->
  <line x1="320" y1="480" x2="320" y2="548" stroke="#34d399" stroke-width="1.5" marker-end="url(#arrow-emerald)" opacity="0.65"/>
  <line x1="700" y1="480" x2="700" y2="548" stroke="#34d399" stroke-width="1.5" marker-end="url(#arrow-emerald)" opacity="0.65"/>

  <!-- LiteLLM → Ollama + Cloud (within LLM band) -->
  <line x1="420" y1="574" x2="480" y2="574" stroke="#fbbf24" stroke-width="1.5" marker-end="url(#arrow-amber)"/>
  <line x1="760" y1="574" x2="820" y2="574" stroke="#fbbf24" stroke-width="1.5" marker-end="url(#arrow-amber)"/>

  <!-- Apps → Media (Open WebUI tools, Backend RAG) -->
  <line x1="450" y1="360" x2="450" y2="668" stroke="#22d3ee" stroke-width="1.5" marker-end="url(#arrow-cyan)" opacity="0.55"/>
  <!-- Agents → Media (Hermes media skills) -->
  <line x1="450" y1="480" x2="450" y2="668" stroke="#34d399" stroke-width="1.5" marker-end="url(#arrow-emerald)" opacity="0.55"/>

  <!-- Apps → Data (Backend writes to data tier) -->
  <line x1="790" y1="360" x2="790" y2="788" stroke="#22d3ee" stroke-width="1.5" marker-end="url(#arrow-cyan)" opacity="0.5"/>
  <!-- Agents → Data (n8n writes) -->
  <line x1="1080" y1="480" x2="1080" y2="788" stroke="#34d399" stroke-width="1.5" marker-end="url(#arrow-emerald)" opacity="0.5"/>

  <!-- Apps → Compute (Backend dispatches Ray jobs) -->
  <line x1="790" y1="360" x2="790" y2="928" stroke="#22d3ee" stroke-width="1.5" marker-end="url(#arrow-cyan)" opacity="0.4"/>

  <!-- ─────────────────  EXTERNAL CLIENTS  ───────────────── -->
  <g>
    <rect x="60" y="92" width="1280" height="76" rx="8" fill="none" stroke="#334155" stroke-width="1" stroke-dasharray="6,4"/>
    <text x="76" y="108" fill="#64748b" font-size="10" font-weight="600" letter-spacing="2">EXTERNAL CLIENTS</text>

    <rect x="350" y="116" width="200" height="44" rx="6" fill="#0f172a"/>
    <rect x="350" y="116" width="200" height="44" rx="6" fill="rgba(30, 41, 59, 0.5)" stroke="#94a3b8" stroke-width="1.5"/>
    <text x="450" y="135" fill="#e2e8f0" font-size="12" font-weight="600" text-anchor="middle">Browser</text>
    <text x="450" y="151" fill="#94a3b8" font-size="9" text-anchor="middle">*.localhost UIs</text>

    <rect x="600" y="116" width="200" height="44" rx="6" fill="#0f172a"/>
    <rect x="600" y="116" width="200" height="44" rx="6" fill="rgba(30, 41, 59, 0.5)" stroke="#94a3b8" stroke-width="1.5"/>
    <text x="700" y="135" fill="#e2e8f0" font-size="12" font-weight="600" text-anchor="middle">Python / IDE</text>
    <text x="700" y="151" fill="#94a3b8" font-size="9" text-anchor="middle">OpenAI SDK ▸ LiteLLM</text>

    <rect x="850" y="116" width="200" height="44" rx="6" fill="#0f172a"/>
    <rect x="850" y="116" width="200" height="44" rx="6" fill="rgba(30, 41, 59, 0.5)" stroke="#94a3b8" stroke-width="1.5"/>
    <text x="950" y="135" fill="#e2e8f0" font-size="12" font-weight="600" text-anchor="middle">CLI</text>
    <text x="950" y="151" fill="#94a3b8" font-size="9" text-anchor="middle">./start.sh wizard</text>
  </g>

  <!-- ─────────────────  INFRASTRUCTURE / KONG  ───────────────── -->
  <g>
    <rect x="60" y="180" width="1280" height="92" rx="10" fill="none" stroke="#fb7185" stroke-width="1" stroke-dasharray="6,4" opacity="0.6"/>
    <text x="76" y="198" fill="#fb7185" font-size="10" font-weight="600" letter-spacing="2">INFRASTRUCTURE — API GATEWAY</text>

    <rect x="400" y="208" width="600" height="50" rx="6" fill="#0f172a"/>
    <rect x="400" y="208" width="600" height="50" rx="6" fill="rgba(136, 19, 55, 0.4)" stroke="#fb7185" stroke-width="1.5"/>
    <text x="700" y="227" fill="#fecdd3" font-size="13" font-weight="700" text-anchor="middle">Kong API Gateway</text>
    <text x="700" y="244" fill="#fda4af" font-size="9" text-anchor="middle">dynamic routes • *.localhost aliases • basic-auth + ACLs</text>
  </g>

  <!-- ─────────────────  APPS & UIs  ───────────────── -->
  <g>
    <rect x="60" y="280" width="1280" height="92" rx="10" fill="none" stroke="#22d3ee" stroke-width="1" stroke-dasharray="6,4" opacity="0.5"/>
    <text x="76" y="298" fill="#22d3ee" font-size="10" font-weight="600" letter-spacing="2">APPS &amp; UIs</text>

    <rect x="90" y="308" width="240" height="52" rx="6" fill="#0f172a"/>
    <rect x="90" y="308" width="240" height="52" rx="6" fill="rgba(8, 51, 68, 0.4)" stroke="#22d3ee" stroke-width="1.5"/>
    <text x="210" y="328" fill="#cffafe" font-size="12" font-weight="600" text-anchor="middle">Open WebUI</text>
    <text x="210" y="346" fill="#67e8f9" font-size="9" text-anchor="middle">main chat UI ▸ LiteLLM models</text>

    <rect x="380" y="308" width="240" height="52" rx="6" fill="#0f172a"/>
    <rect x="380" y="308" width="240" height="52" rx="6" fill="rgba(8, 51, 68, 0.4)" stroke="#22d3ee" stroke-width="1.5"/>
    <text x="500" y="328" fill="#cffafe" font-size="12" font-weight="600" text-anchor="middle">JupyterHub</text>
    <text x="500" y="346" fill="#67e8f9" font-size="9" text-anchor="middle">notebooks ▸ data science IDE</text>

    <rect x="670" y="308" width="240" height="52" rx="6" fill="#0f172a"/>
    <rect x="670" y="308" width="240" height="52" rx="6" fill="rgba(8, 51, 68, 0.4)" stroke="#22d3ee" stroke-width="1.5"/>
    <text x="790" y="328" fill="#cffafe" font-size="12" font-weight="600" text-anchor="middle">Backend API</text>
    <text x="790" y="346" fill="#67e8f9" font-size="9" text-anchor="middle">FastAPI orchestrator (33 routes)</text>

    <rect x="960" y="308" width="350" height="52" rx="6" fill="#0f172a"/>
    <rect x="960" y="308" width="350" height="52" rx="6" fill="rgba(8, 51, 68, 0.4)" stroke="#22d3ee" stroke-width="1.5"/>
    <text x="1135" y="328" fill="#cffafe" font-size="12" font-weight="600" text-anchor="middle">Local Deep Researcher</text>
    <text x="1135" y="346" fill="#67e8f9" font-size="9" text-anchor="middle">LangGraph research workflows ▸ SearxNG + LiteLLM</text>
  </g>

  <!-- ─────────────────  AGENTS & WORKFLOWS  ───────────────── -->
  <g>
    <rect x="60" y="400" width="1280" height="92" rx="10" fill="none" stroke="#34d399" stroke-width="1" stroke-dasharray="6,4" opacity="0.5"/>
    <text x="76" y="418" fill="#34d399" font-size="10" font-weight="600" letter-spacing="2">AGENTS &amp; WORKFLOWS</text>

    <rect x="170" y="428" width="300" height="52" rx="6" fill="#0f172a"/>
    <rect x="170" y="428" width="300" height="52" rx="6" fill="rgba(6, 78, 59, 0.4)" stroke="#34d399" stroke-width="1.5"/>
    <text x="320" y="448" fill="#d1fae5" font-size="12" font-weight="600" text-anchor="middle">Hermes Agent</text>
    <text x="320" y="466" fill="#6ee7b7" font-size="9" text-anchor="middle">Nous Research runtime ▸ /v1 + dashboard</text>

    <rect x="540" y="428" width="320" height="52" rx="6" fill="#0f172a"/>
    <rect x="540" y="428" width="320" height="52" rx="6" fill="rgba(6, 78, 59, 0.4)" stroke="#34d399" stroke-width="1.5"/>
    <text x="700" y="448" fill="#d1fae5" font-size="12" font-weight="600" text-anchor="middle">OpenClaw</text>
    <text x="700" y="466" fill="#6ee7b7" font-size="9" text-anchor="middle">messaging-platform AI agent</text>

    <rect x="930" y="428" width="300" height="52" rx="6" fill="#0f172a"/>
    <rect x="930" y="428" width="300" height="52" rx="6" fill="rgba(6, 78, 59, 0.4)" stroke="#34d399" stroke-width="1.5"/>
    <text x="1080" y="448" fill="#d1fae5" font-size="12" font-weight="600" text-anchor="middle">n8n + Workers</text>
    <text x="1080" y="466" fill="#6ee7b7" font-size="9" text-anchor="middle">workflow automation ▸ 400+ integrations</text>
  </g>

  <!-- ─────────────────  LLM CORE  ───────────────── -->
  <g>
    <rect x="60" y="520" width="1280" height="92" rx="10" fill="none" stroke="#fbbf24" stroke-width="1" stroke-dasharray="6,4" opacity="0.5"/>
    <text x="76" y="538" fill="#fbbf24" font-size="10" font-weight="600" letter-spacing="2">LLM CORE</text>

    <rect x="120" y="548" width="300" height="52" rx="6" fill="#0f172a"/>
    <rect x="120" y="548" width="300" height="52" rx="6" fill="rgba(120, 53, 15, 0.3)" stroke="#fbbf24" stroke-width="1.5"/>
    <text x="270" y="568" fill="#fde68a" font-size="12" font-weight="600" text-anchor="middle">LiteLLM Gateway</text>
    <text x="270" y="586" fill="#fcd34d" font-size="9" text-anchor="middle">OpenAI-compatible router ▸ model_list from public.llms</text>

    <rect x="480" y="548" width="280" height="52" rx="6" fill="#0f172a"/>
    <rect x="480" y="548" width="280" height="52" rx="6" fill="rgba(120, 53, 15, 0.3)" stroke="#fbbf24" stroke-width="1.5"/>
    <text x="620" y="568" fill="#fde68a" font-size="12" font-weight="600" text-anchor="middle">Ollama</text>
    <text x="620" y="586" fill="#fcd34d" font-size="9" text-anchor="middle">local engine ▸ qwen3 / nomic-embed / custom</text>

    <rect x="820" y="548" width="400" height="52" rx="6" fill="#0f172a"/>
    <rect x="820" y="548" width="400" height="52" rx="6" fill="rgba(120, 53, 15, 0.3)" stroke="#fbbf24" stroke-width="1.5" stroke-dasharray="3,3"/>
    <text x="1020" y="568" fill="#fde68a" font-size="12" font-weight="600" text-anchor="middle">Cloud Providers</text>
    <text x="1020" y="586" fill="#fcd34d" font-size="9" text-anchor="middle">OpenAI · Anthropic · OpenRouter  (external APIs)</text>
  </g>

  <!-- ─────────────────  MEDIA  ───────────────── -->
  <g>
    <rect x="60" y="640" width="1280" height="92" rx="10" fill="none" stroke="#fb923c" stroke-width="1" stroke-dasharray="6,4" opacity="0.5"/>
    <text x="76" y="658" fill="#fb923c" font-size="10" font-weight="600" letter-spacing="2">MEDIA</text>

    <rect x="90" y="668" width="220" height="52" rx="6" fill="#0f172a"/>
    <rect x="90" y="668" width="220" height="52" rx="6" fill="rgba(251, 146, 60, 0.3)" stroke="#fb923c" stroke-width="1.5"/>
    <text x="200" y="688" fill="#fed7aa" font-size="12" font-weight="600" text-anchor="middle">STT Provider</text>
    <text x="200" y="706" fill="#fdba74" font-size="9" text-anchor="middle">Speaches · Parakeet · whisper.cpp</text>

    <rect x="330" y="668" width="240" height="52" rx="6" fill="#0f172a"/>
    <rect x="330" y="668" width="240" height="52" rx="6" fill="rgba(251, 146, 60, 0.3)" stroke="#fb923c" stroke-width="1.5"/>
    <text x="450" y="688" fill="#fed7aa" font-size="12" font-weight="600" text-anchor="middle">TTS Provider</text>
    <text x="450" y="706" fill="#fdba74" font-size="9" text-anchor="middle">Speaches (Kokoro/Piper) · Chatterbox</text>

    <rect x="590" y="668" width="180" height="52" rx="6" fill="#0f172a"/>
    <rect x="590" y="668" width="180" height="52" rx="6" fill="rgba(251, 146, 60, 0.3)" stroke="#fb923c" stroke-width="1.5"/>
    <text x="680" y="688" fill="#fed7aa" font-size="12" font-weight="600" text-anchor="middle">Docling</text>
    <text x="680" y="706" fill="#fdba74" font-size="9" text-anchor="middle">PDF / docs ▸ markdown + JSON</text>

    <rect x="790" y="668" width="200" height="52" rx="6" fill="#0f172a"/>
    <rect x="790" y="668" width="200" height="52" rx="6" fill="rgba(251, 146, 60, 0.3)" stroke="#fb923c" stroke-width="1.5"/>
    <text x="890" y="688" fill="#fed7aa" font-size="12" font-weight="600" text-anchor="middle">ComfyUI</text>
    <text x="890" y="706" fill="#fdba74" font-size="9" text-anchor="middle">node-graph image generation</text>

    <rect x="1010" y="668" width="280" height="52" rx="6" fill="#0f172a"/>
    <rect x="1010" y="668" width="280" height="52" rx="6" fill="rgba(251, 146, 60, 0.3)" stroke="#fb923c" stroke-width="1.5"/>
    <text x="1150" y="688" fill="#fed7aa" font-size="12" font-weight="600" text-anchor="middle">SearxNG</text>
    <text x="1150" y="706" fill="#fdba74" font-size="9" text-anchor="middle">privacy metasearch ▸ web RAG source</text>
  </g>

  <!-- ─────────────────  DATA  ───────────────── -->
  <g>
    <rect x="60" y="760" width="1280" height="112" rx="10" fill="none" stroke="#a78bfa" stroke-width="1" stroke-dasharray="6,4" opacity="0.5"/>
    <text x="76" y="778" fill="#a78bfa" font-size="10" font-weight="600" letter-spacing="2">DATA</text>

    <rect x="90" y="788" width="440" height="72" rx="6" fill="#0f172a"/>
    <rect x="90" y="788" width="440" height="72" rx="6" fill="rgba(76, 29, 149, 0.4)" stroke="#a78bfa" stroke-width="1.5"/>
    <text x="310" y="810" fill="#ddd6fe" font-size="12" font-weight="600" text-anchor="middle">Supabase Ecosystem</text>
    <text x="310" y="828" fill="#c4b5fd" font-size="9" text-anchor="middle">Postgres + pgvector · Auth (GoTrue) · Storage · Realtime · Studio</text>
    <text x="310" y="848" fill="#a78bfa" font-size="8" text-anchor="middle" opacity="0.85">single source of truth for public.llms model catalog</text>

    <rect x="550" y="788" width="170" height="72" rx="6" fill="#0f172a"/>
    <rect x="550" y="788" width="170" height="72" rx="6" fill="rgba(76, 29, 149, 0.4)" stroke="#a78bfa" stroke-width="1.5"/>
    <text x="635" y="816" fill="#ddd6fe" font-size="12" font-weight="600" text-anchor="middle">Weaviate</text>
    <text x="635" y="834" fill="#c4b5fd" font-size="9" text-anchor="middle">vector DB</text>
    <text x="635" y="848" fill="#a78bfa" font-size="8" text-anchor="middle" opacity="0.85">RAG · semantic search</text>

    <rect x="740" y="788" width="170" height="72" rx="6" fill="#0f172a"/>
    <rect x="740" y="788" width="170" height="72" rx="6" fill="rgba(76, 29, 149, 0.4)" stroke="#a78bfa" stroke-width="1.5"/>
    <text x="825" y="816" fill="#ddd6fe" font-size="12" font-weight="600" text-anchor="middle">Neo4j</text>
    <text x="825" y="834" fill="#c4b5fd" font-size="9" text-anchor="middle">graph DB</text>
    <text x="825" y="848" fill="#a78bfa" font-size="8" text-anchor="middle" opacity="0.85">knowledge graphs</text>

    <rect x="930" y="788" width="160" height="72" rx="6" fill="#0f172a"/>
    <rect x="930" y="788" width="160" height="72" rx="6" fill="rgba(76, 29, 149, 0.4)" stroke="#a78bfa" stroke-width="1.5"/>
    <text x="1010" y="816" fill="#ddd6fe" font-size="12" font-weight="600" text-anchor="middle">Redis</text>
    <text x="1010" y="834" fill="#c4b5fd" font-size="9" text-anchor="middle">cache + queue</text>
    <text x="1010" y="848" fill="#a78bfa" font-size="8" text-anchor="middle" opacity="0.85">sessions · websockets</text>

    <rect x="1110" y="788" width="200" height="72" rx="6" fill="#0f172a"/>
    <rect x="1110" y="788" width="200" height="72" rx="6" fill="rgba(76, 29, 149, 0.4)" stroke="#a78bfa" stroke-width="1.5"/>
    <text x="1210" y="816" fill="#ddd6fe" font-size="12" font-weight="600" text-anchor="middle">MinIO</text>
    <text x="1210" y="834" fill="#c4b5fd" font-size="9" text-anchor="middle">S3-compatible blob</text>
    <text x="1210" y="848" fill="#a78bfa" font-size="8" text-anchor="middle" opacity="0.85">artifacts · ComfyUI outputs</text>
  </g>

  <!-- ─────────────────  COMPUTE / RAY  ───────────────── -->
  <g>
    <rect x="60" y="900" width="1280" height="72" rx="10" fill="none" stroke="#64748b" stroke-width="1" stroke-dasharray="6,4" opacity="0.5"/>
    <text x="76" y="918" fill="#94a3b8" font-size="10" font-weight="600" letter-spacing="2">DISTRIBUTED COMPUTE  (opt-in via RAY_SOURCE)</text>

    <rect x="400" y="928" width="600" height="36" rx="6" fill="#0f172a"/>
    <rect x="400" y="928" width="600" height="36" rx="6" fill="rgba(30, 41, 59, 0.5)" stroke="#94a3b8" stroke-width="1.5"/>
    <text x="700" y="952" fill="#e2e8f0" font-size="12" font-weight="600" text-anchor="middle">Ray Head + Workers (1..N)</text>
  </g>

  <!-- ─────────────────  LEGEND  ───────────────── -->
  <g transform="translate(60, 995)">
    <text x="0" y="0" fill="#64748b" font-size="10" font-weight="600" letter-spacing="2">CATEGORY LEGEND</text>

    <g transform="translate(0, 16)">
      <rect x="0" y="0" width="14" height="14" rx="3" fill="rgba(136, 19, 55, 0.4)" stroke="#fb7185" stroke-width="1.5"/>
      <text x="22" y="11" fill="#e2e8f0" font-size="10">Infra — Kong gateway</text>

      <rect x="200" y="0" width="14" height="14" rx="3" fill="rgba(8, 51, 68, 0.4)" stroke="#22d3ee" stroke-width="1.5"/>
      <text x="222" y="11" fill="#e2e8f0" font-size="10">Apps &amp; UIs</text>

      <rect x="360" y="0" width="14" height="14" rx="3" fill="rgba(6, 78, 59, 0.4)" stroke="#34d399" stroke-width="1.5"/>
      <text x="382" y="11" fill="#e2e8f0" font-size="10">Agents &amp; Workflows</text>

      <rect x="560" y="0" width="14" height="14" rx="3" fill="rgba(120, 53, 15, 0.3)" stroke="#fbbf24" stroke-width="1.5"/>
      <text x="582" y="11" fill="#e2e8f0" font-size="10">LLM Core</text>

      <rect x="700" y="0" width="14" height="14" rx="3" fill="rgba(251, 146, 60, 0.3)" stroke="#fb923c" stroke-width="1.5"/>
      <text x="722" y="11" fill="#e2e8f0" font-size="10">Media</text>

      <rect x="810" y="0" width="14" height="14" rx="3" fill="rgba(76, 29, 149, 0.4)" stroke="#a78bfa" stroke-width="1.5"/>
      <text x="832" y="11" fill="#e2e8f0" font-size="10">Data</text>

      <rect x="910" y="0" width="14" height="14" rx="3" fill="rgba(30, 41, 59, 0.5)" stroke="#94a3b8" stroke-width="1.5"/>
      <text x="932" y="11" fill="#e2e8f0" font-size="10">Compute / External</text>
    </g>

    <g transform="translate(0, 46)">
      <line x1="0" y1="7" x2="40" y2="7" stroke="#94a3b8" stroke-width="1.5" marker-end="url(#arrow)"/>
      <text x="50" y="11" fill="#94a3b8" font-size="9">user request</text>

      <line x1="180" y1="7" x2="220" y2="7" stroke="#22d3ee" stroke-width="1.5" marker-end="url(#arrow-cyan)"/>
      <text x="230" y="11" fill="#94a3b8" font-size="9">apps → downstream</text>

      <line x1="380" y1="7" x2="420" y2="7" stroke="#34d399" stroke-width="1.5" marker-end="url(#arrow-emerald)"/>
      <text x="430" y="11" fill="#94a3b8" font-size="9">agents → downstream</text>

      <line x1="600" y1="7" x2="640" y2="7" stroke="#fbbf24" stroke-width="1.5" marker-end="url(#arrow-amber)"/>
      <text x="650" y="11" fill="#94a3b8" font-size="9">LLM routing</text>

      <line x1="770" y1="7" x2="810" y2="7" stroke="#fb7185" stroke-width="2" marker-end="url(#arrow-rose)"/>
      <text x="820" y="11" fill="#94a3b8" font-size="9">Kong route fan-out</text>
    </g>

    <text x="0" y="78" fill="#475569" font-size="9">All edges are runtime / request-path. Init-time bootstrap calls (LiteLLM-init reading public.llms, Ollama-pull warming models) are omitted for clarity.</text>
  </g>
</svg>
