<?xml version="1.0" encoding="UTF-8" standalone="no"?>
<!DOCTYPE svg PUBLIC "-//W3C//DTD SVG 1.1//EN"
 "http://www.w3.org/Graphics/SVG/1.1/DTD/svg11.dtd">
<!-- Generated by graphviz version 12.2.1 (20241206.2353)
 -->
<!-- Title: stack Pages: 1 -->
<svg width="1605pt" height="346pt"
 viewBox="0.00 0.00 1605.03 346.00" xmlns="http://www.w3.org/2000/svg" xmlns:xlink="http://www.w3.org/1999/xlink">
<g id="graph0" class="graph" transform="scale(1 1) rotate(0) translate(4 342)">
<title>stack</title>
<polygon fill="#0e0f18" stroke="none" points="-4,4 -4,-342 1601.03,-342 1601.03,4 -4,4"/>
<g id="clust1" class="cluster">
<title>cluster_infra</title>
<polygon fill="#0e0f18" stroke="#f7768e" points="589,-8 589,-84.5 735,-84.5 735,-8 589,-8"/>
<text text-anchor="middle" x="662" y="-67.2" font-family="Times,serif" font-size="14.00" fill="#f7768e">Infrastructure</text>
</g>
<g id="clust2" class="cluster">
<title>cluster_data</title>
<polygon fill="#0e0f18" stroke="#7dcfff" points="528,-177 528,-330 830,-330 830,-177 528,-177"/>
<text text-anchor="middle" x="679" y="-312.7" font-family="Times,serif" font-size="14.00" fill="#7dcfff">Data</text>
</g>
<g id="clust3" class="cluster">
<title>cluster_llm</title>
<polygon fill="#0e0f18" stroke="#e0af68" points="870,-92.5 870,-253.5 1068,-253.5 1068,-92.5 870,-92.5"/>
<text text-anchor="middle" x="969" y="-236.2" font-family="Times,serif" font-size="14.00" fill="#e0af68">LLM Core</text>
</g>
<g id="clust4" class="cluster">
<title>cluster_media</title>
<polygon fill="#0e0f18" stroke="#7aa2f7" points="8,-8 8,-169 435,-169 435,-8 8,-8"/>
<text text-anchor="middle" x="221.5" y="-151.7" font-family="Times,serif" font-size="14.00" fill="#7aa2f7">Media</text>
</g>
<g id="clust5" class="cluster">
<title>cluster_agents</title>
<polygon fill="#0e0f18" stroke="#9ece6a" points="589,-92.5 589,-169 830,-169 830,-92.5 589,-92.5"/>
<text text-anchor="middle" x="709.5" y="-151.7" font-family="Times,serif" font-size="14.00" fill="#9ece6a">Agents &amp; Workflows</text>
</g>
<g id="clust6" class="cluster">
<title>cluster_apps</title>
<polygon fill="#0e0f18" stroke="#bb9af7" points="1076,-92.5 1076,-169 1526,-169 1526,-92.5 1076,-92.5"/>
<text text-anchor="middle" x="1301" y="-151.7" font-family="Times,serif" font-size="14.00" fill="#bb9af7">Apps &amp; UIs</text>
</g>
<!-- globals -->
<g id="node1" class="node">
<title>globals</title>
<path fill="#f7768e" fill-opacity="0.200000" stroke="#2b2f4a" d="M715.38,-52C715.38,-52 680.62,-52 680.62,-52 674.62,-52 668.62,-46 668.62,-40 668.62,-40 668.62,-28 668.62,-28 668.62,-22 674.62,-16 680.62,-16 680.62,-16 715.38,-16 715.38,-16 721.38,-16 727.38,-22 727.38,-28 727.38,-28 727.38,-40 727.38,-40 727.38,-46 721.38,-52 715.38,-52"/>
<text text-anchor="middle" x="698" y="-28.2" font-family="Helvetica,sans-Serif" font-size="14.00" fill="#c0caf5">globals</text>
</g>
<!-- supabase -->
<g id="node3" class="node">
<title>supabase</title>
<path fill="#7dcfff" fill-opacity="0.200000" stroke="#2b2f4a" d="M810.25,-297.5C810.25,-297.5 759.75,-297.5 759.75,-297.5 753.75,-297.5 747.75,-291.5 747.75,-285.5 747.75,-285.5 747.75,-273.5 747.75,-273.5 747.75,-267.5 753.75,-261.5 759.75,-261.5 759.75,-261.5 810.25,-261.5 810.25,-261.5 816.25,-261.5 822.25,-267.5 822.25,-273.5 822.25,-273.5 822.25,-285.5 822.25,-285.5 822.25,-291.5 816.25,-297.5 810.25,-297.5"/>
<text text-anchor="middle" x="785" y="-273.7" font-family="Helvetica,sans-Serif" font-size="14.00" fill="#c0caf5">supabase</text>
</g>
<!-- globals&#45;&gt;supabase -->
<g id="edge55" class="edge">
<title>globals&#45;&gt;supabase</title>
<path fill="none" stroke="#3d4261" d="M727.87,-34.64C873.24,-33.19 1502.04,-30.55 1560,-92.5 1608.88,-144.75 1609.78,-202.09 1560,-253.5 1534.71,-279.62 1000.05,-279.46 833.85,-278.77"/>
<polygon fill="#3d4261" stroke="#3d4261" points="834.06,-275.27 824.05,-278.73 834.03,-282.27 834.06,-275.27"/>
</g>
<!-- docling -->
<g id="node11" class="node">
<title>docling</title>
<path fill="#7aa2f7" fill-opacity="0.200000" stroke="#2b2f4a" d="M415.38,-136.5C415.38,-136.5 380.62,-136.5 380.62,-136.5 374.62,-136.5 368.62,-130.5 368.62,-124.5 368.62,-124.5 368.62,-112.5 368.62,-112.5 368.62,-106.5 374.62,-100.5 380.62,-100.5 380.62,-100.5 415.38,-100.5 415.38,-100.5 421.38,-100.5 427.38,-106.5 427.38,-112.5 427.38,-112.5 427.38,-124.5 427.38,-124.5 427.38,-130.5 421.38,-136.5 415.38,-136.5"/>
<text text-anchor="middle" x="398" y="-112.7" font-family="Helvetica,sans-Serif" font-size="14.00" fill="#c0caf5">docling</text>
</g>
<!-- globals&#45;&gt;docling -->
<g id="edge8" class="edge">
<title>globals&#45;&gt;docling</title>
<path fill="none" stroke="#3d4261" d="M689.53,-52.19C683.06,-63.37 673.04,-77.19 660,-84.5 645.38,-92.7 601.64,-90.5 585,-92.5 534.6,-98.56 476.7,-106.44 438.84,-111.72"/>
<polygon fill="#3d4261" stroke="#3d4261" points="438.68,-108.21 429.26,-113.06 439.65,-115.14 438.68,-108.21"/>
</g>
<!-- kong -->
<g id="node2" class="node">
<title>kong</title>
<path fill="#f7768e" fill-opacity="0.200000" stroke="#2b2f4a" d="M639,-52C639,-52 609,-52 609,-52 603,-52 597,-46 597,-40 597,-40 597,-28 597,-28 597,-22 603,-16 609,-16 609,-16 639,-16 639,-16 645,-16 651,-22 651,-28 651,-28 651,-40 651,-40 651,-46 645,-52 639,-52"/>
<text text-anchor="middle" x="624" y="-28.2" font-family="Helvetica,sans-Serif" font-size="14.00" fill="#c0caf5">kong</text>
</g>
<!-- supabase&#45;&gt;kong -->
<g id="edge13" class="edge">
<title>supabase&#45;&gt;kong</title>
<path fill="none" stroke="#3d4261" d="M822.53,-278.26C926.51,-277.35 1216.79,-273.09 1310,-253.5 1428.57,-228.58 1615.28,-178.57 1530,-92.5 1512.99,-75.33 681.49,-95.57 660,-84.5 650.39,-79.55 642.73,-70.72 637,-61.87"/>
<polygon fill="#3d4261" stroke="#3d4261" points="640.13,-60.3 632.09,-53.39 634.07,-63.8 640.13,-60.3"/>
</g>
<!-- minio -->
<g id="node4" class="node">
<title>minio</title>
<path fill="#7dcfff" fill-opacity="0.200000" stroke="#2b2f4a" d="M578,-221C578,-221 548,-221 548,-221 542,-221 536,-215 536,-209 536,-209 536,-197 536,-197 536,-191 542,-185 548,-185 548,-185 578,-185 578,-185 584,-185 590,-191 590,-197 590,-197 590,-209 590,-209 590,-215 584,-221 578,-221"/>
<text text-anchor="middle" x="563" y="-197.2" font-family="Helvetica,sans-Serif" font-size="14.00" fill="#c0caf5">minio</text>
</g>
<!-- supabase&#45;&gt;minio -->
<g id="edge37" class="edge">
<title>supabase&#45;&gt;minio</title>
<path fill="none" stroke="#3d4261" d="M747.47,-276.92C700.52,-274.35 623.34,-268.02 599,-253.5 589.95,-248.1 582.51,-239.45 576.79,-230.89"/>
<polygon fill="#3d4261" stroke="#3d4261" points="579.81,-229.12 571.65,-222.36 573.81,-232.74 579.81,-229.12"/>
</g>
<!-- neo4j -->
<g id="node5" class="node">
<title>neo4j</title>
<path fill="#7dcfff" fill-opacity="0.200000" stroke="#2b2f4a" d="M650,-221C650,-221 620,-221 620,-221 614,-221 608,-215 608,-209 608,-209 608,-197 608,-197 608,-191 614,-185 620,-185 620,-185 650,-185 650,-185 656,-185 662,-191 662,-197 662,-197 662,-209 662,-209 662,-215 656,-221 650,-221"/>
<text text-anchor="middle" x="635" y="-197.2" font-family="Helvetica,sans-Serif" font-size="14.00" fill="#c0caf5">neo4j</text>
</g>
<!-- supabase&#45;&gt;neo4j -->
<g id="edge41" class="edge">
<title>supabase&#45;&gt;neo4j</title>
<path fill="none" stroke="#3d4261" d="M747.49,-277C723.9,-274.51 693.73,-268.36 671,-253.5 662.31,-247.82 655,-239.26 649.29,-230.85"/>
<polygon fill="#3d4261" stroke="#3d4261" points="652.37,-229.17 644.14,-222.51 646.42,-232.85 652.37,-229.17"/>
</g>
<!-- redis -->
<g id="node6" class="node">
<title>redis</title>
<path fill="#7dcfff" fill-opacity="0.200000" stroke="#2b2f4a" d="M810,-221C810,-221 780,-221 780,-221 774,-221 768,-215 768,-209 768,-209 768,-197 768,-197 768,-191 774,-185 780,-185 780,-185 810,-185 810,-185 816,-185 822,-191 822,-197 822,-197 822,-209 822,-209 822,-215 816,-221 810,-221"/>
<text text-anchor="middle" x="795" y="-197.2" font-family="Helvetica,sans-Serif" font-size="14.00" fill="#c0caf5">redis</text>
</g>
<!-- supabase&#45;&gt;redis -->
<g id="edge50" class="edge">
<title>supabase&#45;&gt;redis</title>
<path fill="none" stroke="#3d4261" d="M787.32,-261.22C788.46,-252.73 789.86,-242.26 791.16,-232.62"/>
<polygon fill="#3d4261" stroke="#3d4261" points="794.6,-233.32 792.46,-222.94 787.66,-232.39 794.6,-233.32"/>
</g>
<!-- weaviate -->
<g id="node7" class="node">
<title>weaviate</title>
<path fill="#7dcfff" fill-opacity="0.200000" stroke="#2b2f4a" d="M737.62,-221C737.62,-221 692.38,-221 692.38,-221 686.38,-221 680.38,-215 680.38,-209 680.38,-209 680.38,-197 680.38,-197 680.38,-191 686.38,-185 692.38,-185 692.38,-185 737.62,-185 737.62,-185 743.62,-185 749.62,-191 749.62,-197 749.62,-197 749.62,-209 749.62,-209 749.62,-215 743.62,-221 737.62,-221"/>
<text text-anchor="middle" x="715" y="-197.2" font-family="Helvetica,sans-Serif" font-size="14.00" fill="#c0caf5">weaviate</text>
</g>
<!-- supabase&#45;&gt;weaviate -->
<g id="edge57" class="edge">
<title>supabase&#45;&gt;weaviate</title>
<path fill="none" stroke="#3d4261" d="M766.64,-261.19C764.04,-258.65 761.43,-256.03 759,-253.5 751.78,-245.99 744.17,-237.6 737.33,-229.89"/>
<polygon fill="#3d4261" stroke="#3d4261" points="739.97,-227.6 730.75,-222.39 734.71,-232.21 739.97,-227.6"/>
</g>
<!-- litellm -->
<g id="node8" class="node">
<title>litellm</title>
<path fill="#e0af68" fill-opacity="0.200000" stroke="#2b2f4a" d="M920,-221C920,-221 890,-221 890,-221 884,-221 878,-215 878,-209 878,-209 878,-197 878,-197 878,-191 884,-185 890,-185 890,-185 920,-185 920,-185 926,-185 932,-191 932,-197 932,-197 932,-209 932,-209 932,-215 926,-221 920,-221"/>
<text text-anchor="middle" x="905" y="-197.2" font-family="Helvetica,sans-Serif" font-size="14.00" fill="#c0caf5">litellm</text>
</g>
<!-- supabase&#45;&gt;litellm -->
<g id="edge32" class="edge">
<title>supabase&#45;&gt;litellm</title>
<path fill="none" stroke="#3d4261" d="M822.36,-271.37C836.23,-267.55 851.59,-261.86 864,-253.5 873.01,-247.43 881.1,-238.82 887.66,-230.48"/>
<polygon fill="#3d4261" stroke="#3d4261" points="890.39,-232.67 893.49,-222.54 884.75,-228.52 890.39,-232.67"/>
</g>
<!-- ollama -->
<g id="node10" class="node">
<title>ollama</title>
<path fill="#e0af68" fill-opacity="0.200000" stroke="#2b2f4a" d="M1048.25,-136.5C1048.25,-136.5 1015.75,-136.5 1015.75,-136.5 1009.75,-136.5 1003.75,-130.5 1003.75,-124.5 1003.75,-124.5 1003.75,-112.5 1003.75,-112.5 1003.75,-106.5 1009.75,-100.5 1015.75,-100.5 1015.75,-100.5 1048.25,-100.5 1048.25,-100.5 1054.25,-100.5 1060.25,-106.5 1060.25,-112.5 1060.25,-112.5 1060.25,-124.5 1060.25,-124.5 1060.25,-130.5 1054.25,-136.5 1048.25,-136.5"/>
<text text-anchor="middle" x="1032" y="-112.7" font-family="Helvetica,sans-Serif" font-size="14.00" fill="#c0caf5">ollama</text>
</g>
<!-- supabase&#45;&gt;ollama -->
<g id="edge42" class="edge">
<title>supabase&#45;&gt;ollama</title>
<path fill="none" stroke="#3d4261" d="M822.52,-275.9C862.26,-272.56 921.85,-265.68 941,-253.5 980.73,-228.23 1007.42,-178.69 1021.13,-147.44"/>
<polygon fill="#3d4261" stroke="#3d4261" points="1024.35,-148.8 1025,-138.23 1017.9,-146.09 1024.35,-148.8"/>
</g>
<!-- comfyui -->
<g id="node12" class="node">
<title>comfyui</title>
<path fill="#7aa2f7" fill-opacity="0.200000" stroke="#2b2f4a" d="M251.62,-136.5C251.62,-136.5 212.38,-136.5 212.38,-136.5 206.38,-136.5 200.38,-130.5 200.38,-124.5 200.38,-124.5 200.38,-112.5 200.38,-112.5 200.38,-106.5 206.38,-100.5 212.38,-100.5 212.38,-100.5 251.62,-100.5 251.62,-100.5 257.62,-100.5 263.62,-106.5 263.62,-112.5 263.62,-112.5 263.62,-124.5 263.62,-124.5 263.62,-130.5 257.62,-136.5 251.62,-136.5"/>
<text text-anchor="middle" x="232" y="-112.7" font-family="Helvetica,sans-Serif" font-size="14.00" fill="#c0caf5">comfyui</text>
</g>
<!-- supabase&#45;&gt;comfyui -->
<g id="edge5" class="edge">
<title>supabase&#45;&gt;comfyui</title>
<path fill="none" stroke="#3d4261" d="M747.43,-277.5C696.84,-275.55 604.26,-269.88 527,-253.5 410.61,-228.83 371.18,-236.19 273,-169 264.03,-162.86 255.96,-154.24 249.39,-145.9"/>
<polygon fill="#3d4261" stroke="#3d4261" points="252.3,-143.95 243.55,-137.98 246.67,-148.1 252.3,-143.95"/>
</g>
<!-- searxng -->
<g id="node14" class="node">
<title>searxng</title>
<path fill="#7aa2f7" fill-opacity="0.200000" stroke="#2b2f4a" d="M170,-136.5C170,-136.5 130,-136.5 130,-136.5 124,-136.5 118,-130.5 118,-124.5 118,-124.5 118,-112.5 118,-112.5 118,-106.5 124,-100.5 130,-100.5 130,-100.5 170,-100.5 170,-100.5 176,-100.5 182,-106.5 182,-112.5 182,-112.5 182,-124.5 182,-124.5 182,-130.5 176,-136.5 170,-136.5"/>
<text text-anchor="middle" x="150" y="-112.7" font-family="Helvetica,sans-Serif" font-size="14.00" fill="#c0caf5">searxng</text>
</g>
<!-- supabase&#45;&gt;searxng -->
<g id="edge51" class="edge">
<title>supabase&#45;&gt;searxng</title>
<path fill="none" stroke="#3d4261" d="M747.32,-278.05C638.4,-276.55 328.25,-270.79 286,-253.5 233.18,-231.88 189.89,-178.72 167.2,-146.23"/>
<polygon fill="#3d4261" stroke="#3d4261" points="170.2,-144.42 161.69,-138.12 164.42,-148.36 170.2,-144.42"/>
</g>
<!-- n8n -->
<g id="node19" class="node">
<title>n8n</title>
<path fill="#9ece6a" fill-opacity="0.200000" stroke="#2b2f4a" d="M639,-136.5C639,-136.5 609,-136.5 609,-136.5 603,-136.5 597,-130.5 597,-124.5 597,-124.5 597,-112.5 597,-112.5 597,-106.5 603,-100.5 609,-100.5 609,-100.5 639,-100.5 639,-100.5 645,-100.5 651,-106.5 651,-112.5 651,-112.5 651,-124.5 651,-124.5 651,-130.5 645,-136.5 639,-136.5"/>
<text text-anchor="middle" x="624" y="-112.7" font-family="Helvetica,sans-Serif" font-size="14.00" fill="#c0caf5">n8n</text>
</g>
<!-- supabase&#45;&gt;n8n -->
<g id="edge38" class="edge">
<title>supabase&#45;&gt;n8n</title>
<path fill="none" stroke="#3d4261" d="M822.34,-263.23C825.76,-260.47 828.77,-257.25 831,-253.5 848.38,-224.28 854.47,-201.6 831,-177 817.95,-163.32 677.7,-177.87 661,-169 651.5,-163.96 643.76,-155.27 637.87,-146.57"/>
<polygon fill="#3d4261" stroke="#3d4261" points="640.98,-144.94 632.79,-138.22 635,-148.59 640.98,-144.94"/>
</g>
<!-- backend -->
<g id="node21" class="node">
<title>backend</title>
<path fill="#bb9af7" fill-opacity="0.200000" stroke="#2b2f4a" d="M1139.5,-136.5C1139.5,-136.5 1096.5,-136.5 1096.5,-136.5 1090.5,-136.5 1084.5,-130.5 1084.5,-124.5 1084.5,-124.5 1084.5,-112.5 1084.5,-112.5 1084.5,-106.5 1090.5,-100.5 1096.5,-100.5 1096.5,-100.5 1139.5,-100.5 1139.5,-100.5 1145.5,-100.5 1151.5,-106.5 1151.5,-112.5 1151.5,-112.5 1151.5,-124.5 1151.5,-124.5 1151.5,-130.5 1145.5,-136.5 1139.5,-136.5"/>
<text text-anchor="middle" x="1118" y="-112.7" font-family="Helvetica,sans-Serif" font-size="14.00" fill="#c0caf5">backend</text>
</g>
<!-- supabase&#45;&gt;backend -->
<g id="edge1" class="edge">
<title>supabase&#45;&gt;backend</title>
<path fill="none" stroke="#3d4261" d="M822.57,-277.48C895.92,-275.18 1052.77,-268.54 1072,-253.5 1104.16,-228.36 1113.96,-179.49 1116.87,-148.23"/>
<polygon fill="#3d4261" stroke="#3d4261" points="1120.35,-148.55 1117.59,-138.32 1113.37,-148.04 1120.35,-148.55"/>
</g>
<!-- jupyterhub -->
<g id="node22" class="node">
<title>jupyterhub</title>
<path fill="#bb9af7" fill-opacity="0.200000" stroke="#2b2f4a" d="M1236.5,-136.5C1236.5,-136.5 1181.5,-136.5 1181.5,-136.5 1175.5,-136.5 1169.5,-130.5 1169.5,-124.5 1169.5,-124.5 1169.5,-112.5 1169.5,-112.5 1169.5,-106.5 1175.5,-100.5 1181.5,-100.5 1181.5,-100.5 1236.5,-100.5 1236.5,-100.5 1242.5,-100.5 1248.5,-106.5 1248.5,-112.5 1248.5,-112.5 1248.5,-124.5 1248.5,-124.5 1248.5,-130.5 1242.5,-136.5 1236.5,-136.5"/>
<text text-anchor="middle" x="1209" y="-112.7" font-family="Helvetica,sans-Serif" font-size="14.00" fill="#c0caf5">jupyterhub</text>
</g>
<!-- supabase&#45;&gt;jupyterhub -->
<g id="edge10" class="edge">
<title>supabase&#45;&gt;jupyterhub</title>
<path fill="none" stroke="#3d4261" d="M822.62,-277.28C902.05,-274.47 1081.61,-266.72 1106,-253.5 1149.81,-229.76 1180.82,-178.56 1196.73,-146.77"/>
<polygon fill="#3d4261" stroke="#3d4261" points="1199.69,-148.69 1200.89,-138.16 1193.39,-145.65 1199.69,-148.69"/>
</g>
<!-- open&#45;webui -->
<g id="node23" class="node">
<title>open&#45;webui</title>
<path fill="#bb9af7" fill-opacity="0.200000" stroke="#2b2f4a" d="M1339.88,-136.5C1339.88,-136.5 1278.12,-136.5 1278.12,-136.5 1272.12,-136.5 1266.12,-130.5 1266.12,-124.5 1266.12,-124.5 1266.12,-112.5 1266.12,-112.5 1266.12,-106.5 1272.12,-100.5 1278.12,-100.5 1278.12,-100.5 1339.88,-100.5 1339.88,-100.5 1345.88,-100.5 1351.88,-106.5 1351.88,-112.5 1351.88,-112.5 1351.88,-124.5 1351.88,-124.5 1351.88,-130.5 1345.88,-136.5 1339.88,-136.5"/>
<text text-anchor="middle" x="1309" y="-112.7" font-family="Helvetica,sans-Serif" font-size="14.00" fill="#c0caf5">open&#45;webui</text>
</g>
<!-- supabase&#45;&gt;open&#45;webui -->
<g id="edge44" class="edge">
<title>supabase&#45;&gt;open&#45;webui</title>
<path fill="none" stroke="#3d4261" d="M822.5,-278.87C904.29,-279.21 1096.19,-277.36 1156,-253.5 1212.72,-230.88 1262.62,-177.67 1289.04,-145.53"/>
<polygon fill="#3d4261" stroke="#3d4261" points="1291.67,-147.84 1295.21,-137.85 1286.22,-143.45 1291.67,-147.84"/>
</g>
<!-- local&#45;deep&#45;researcher -->
<g id="node24" class="node">
<title>local&#45;deep&#45;researcher</title>
<path fill="#bb9af7" fill-opacity="0.200000" stroke="#2b2f4a" d="M1505.62,-136.5C1505.62,-136.5 1382.38,-136.5 1382.38,-136.5 1376.38,-136.5 1370.38,-130.5 1370.38,-124.5 1370.38,-124.5 1370.38,-112.5 1370.38,-112.5 1370.38,-106.5 1376.38,-100.5 1382.38,-100.5 1382.38,-100.5 1505.62,-100.5 1505.62,-100.5 1511.62,-100.5 1517.62,-106.5 1517.62,-112.5 1517.62,-112.5 1517.62,-124.5 1517.62,-124.5 1517.62,-130.5 1511.62,-136.5 1505.62,-136.5"/>
<text text-anchor="middle" x="1444" y="-112.7" font-family="Helvetica,sans-Serif" font-size="14.00" fill="#c0caf5">local&#45;deep&#45;researcher</text>
</g>
<!-- supabase&#45;&gt;local&#45;deep&#45;researcher -->
<g id="edge34" class="edge">
<title>supabase&#45;&gt;local&#45;deep&#45;researcher</title>
<path fill="none" stroke="#3d4261" d="M822.6,-278.66C914.42,-278.68 1147.95,-276.41 1222,-253.5 1297.61,-230.1 1374.07,-175.65 1414.55,-143.82"/>
<polygon fill="#3d4261" stroke="#3d4261" points="1416.51,-146.73 1422.16,-137.77 1412.15,-141.26 1416.51,-146.73"/>
</g>
<!-- minio&#45;&gt;kong -->
<g id="edge23" class="edge">
<title>minio&#45;&gt;kong</title>
<path fill="none" stroke="#3d4261" d="M535.52,-195.39C521.72,-190.54 506.21,-182.37 498,-169 480.21,-140.02 479.61,-121.1 498,-92.5 517.11,-62.77 555.82,-48.22 585.31,-41.23"/>
<polygon fill="#3d4261" stroke="#3d4261" points="585.98,-44.66 595.03,-39.14 584.51,-37.82 585.98,-44.66"/>
</g>
<!-- neo4j&#45;&gt;kong -->
<g id="edge26" class="edge">
<title>neo4j&#45;&gt;kong</title>
<path fill="none" stroke="#3d4261" d="M613.91,-184.75C609.24,-181.69 604.14,-178.89 599,-177 581.81,-170.69 529.3,-182.56 517,-169 494.16,-143.82 499.55,-121.68 517,-92.5 531.92,-67.54 561.81,-52.79 586.21,-44.49"/>
<polygon fill="#3d4261" stroke="#3d4261" points="587.03,-47.9 595.52,-41.57 584.93,-41.22 587.03,-47.9"/>
</g>
<!-- redis&#45;&gt;kong -->
<g id="edge14" class="edge">
<title>redis&#45;&gt;kong</title>
<path fill="none" stroke="#3d4261" d="M773.98,-184.54C769.31,-181.5 764.19,-178.76 759,-177 740.67,-170.79 598.37,-183 585,-169 556.91,-139.59 582.42,-91.15 603.32,-61.27"/>
<polygon fill="#3d4261" stroke="#3d4261" points="605.92,-63.64 608.97,-53.49 600.26,-59.52 605.92,-63.64"/>
</g>
<!-- redis&#45;&gt;litellm -->
<g id="edge33" class="edge">
<title>redis&#45;&gt;litellm</title>
<path fill="none" stroke="#3d4261" d="M822.5,-203C837.14,-203 851.78,-203 866.41,-203"/>
<polygon fill="#3d4261" stroke="#3d4261" points="866.09,-206.5 876.09,-203 866.09,-199.5 866.09,-206.5"/>
</g>
<!-- redis&#45;&gt;searxng -->
<g id="edge52" class="edge">
<title>redis&#45;&gt;searxng</title>
<path fill="none" stroke="#3d4261" d="M774.41,-184.67C769.63,-181.54 764.36,-178.72 759,-177 728.95,-167.36 219.46,-182.63 191,-169 180.65,-164.05 172,-155.09 165.36,-146.14"/>
<polygon fill="#3d4261" stroke="#3d4261" points="168.28,-144.22 159.79,-137.88 162.48,-148.13 168.28,-144.22"/>
</g>
<!-- redis&#45;&gt;n8n -->
<g id="edge39" class="edge">
<title>redis&#45;&gt;n8n</title>
<path fill="none" stroke="#3d4261" d="M773.93,-184.69C769.26,-181.64 764.16,-178.85 759,-177 738.43,-169.63 680.12,-179.57 661,-169 651.59,-163.79 643.87,-155.07 637.97,-146.39"/>
<polygon fill="#3d4261" stroke="#3d4261" points="641.08,-144.77 632.87,-138.08 635.12,-148.43 641.08,-144.77"/>
</g>
<!-- redis&#45;&gt;backend -->
<g id="edge2" class="edge">
<title>redis&#45;&gt;backend</title>
<path fill="none" stroke="#3d4261" d="M822.46,-190.17C835.41,-185.15 851.24,-179.82 866,-177 888.5,-172.7 1051.18,-178.56 1072,-169 1083.19,-163.86 1092.94,-154.61 1100.55,-145.48"/>
<polygon fill="#3d4261" stroke="#3d4261" points="1103.17,-147.82 1106.5,-137.76 1097.62,-143.55 1103.17,-147.82"/>
</g>
<!-- redis&#45;&gt;jupyterhub -->
<g id="edge11" class="edge">
<title>redis&#45;&gt;jupyterhub</title>
<path fill="none" stroke="#3d4261" d="M822.44,-190.09C835.39,-185.05 851.22,-179.73 866,-177 898.24,-171.04 1130.98,-182.19 1161,-169 1172.51,-163.94 1182.65,-154.71 1190.61,-145.57"/>
<polygon fill="#3d4261" stroke="#3d4261" points="1193.32,-147.79 1196.87,-137.81 1187.87,-143.4 1193.32,-147.79"/>
</g>
<!-- redis&#45;&gt;open&#45;webui -->
<g id="edge45" class="edge">
<title>redis&#45;&gt;open&#45;webui</title>
<path fill="none" stroke="#3d4261" d="M822.43,-190.04C835.38,-185 851.21,-179.68 866,-177 908.86,-169.22 1217.8,-185.78 1258,-169 1270.08,-163.96 1280.91,-154.59 1289.44,-145.35"/>
<polygon fill="#3d4261" stroke="#3d4261" points="1292.05,-147.7 1295.91,-137.83 1286.74,-143.13 1292.05,-147.7"/>
</g>
<!-- weaviate&#45;&gt;kong -->
<g id="edge27" class="edge">
<title>weaviate&#45;&gt;kong</title>
<path fill="none" stroke="#3d4261" d="M688.87,-184.65C683.19,-181.6 677.06,-178.83 671,-177 658.63,-173.27 563.82,-178.44 555,-169 531.8,-144.15 540.58,-123.29 555,-92.5 561.92,-77.73 574.7,-65.43 587.41,-56.04"/>
<polygon fill="#3d4261" stroke="#3d4261" points="589.07,-59.15 595.31,-50.59 585.09,-53.39 589.07,-59.15"/>
</g>
<!-- litellm&#45;&gt;kong -->
<g id="edge15" class="edge">
<title>litellm&#45;&gt;kong</title>
<path fill="none" stroke="#3d4261" d="M883.38,-184.78C878.25,-180.03 873.09,-174.62 869,-169 847,-138.77 864.99,-113.42 834,-92.5 801.92,-70.84 694.08,-102.85 660,-84.5 650.62,-79.45 643.06,-70.76 637.34,-62.06"/>
<polygon fill="#3d4261" stroke="#3d4261" points="640.53,-60.57 632.43,-53.73 634.5,-64.12 640.53,-60.57"/>
</g>
<!-- litellm&#45;&gt;weaviate -->
<g id="edge58" class="edge">
<title>litellm&#45;&gt;weaviate</title>
<path fill="none" stroke="#3d4261" d="M886.98,-221.44C871.96,-235.16 849.17,-252.37 825,-257.5 800.22,-262.76 792.78,-262.76 768,-257.5 763.72,-256.59 762.52,-256.1 759,-253.5 750.07,-246.9 741.68,-238.21 734.67,-229.89"/>
<polygon fill="#3d4261" stroke="#3d4261" points="737.58,-227.92 728.59,-222.31 732.12,-232.3 737.58,-227.92"/>
</g>
<!-- cloud&#45;providers -->
<g id="node9" class="node">
<title>cloud&#45;providers</title>
<path fill="#e0af68" fill-opacity="0.200000" stroke="#2b2f4a" d="M974.12,-136.5C974.12,-136.5 889.88,-136.5 889.88,-136.5 883.88,-136.5 877.88,-130.5 877.88,-124.5 877.88,-124.5 877.88,-112.5 877.88,-112.5 877.88,-106.5 883.88,-100.5 889.88,-100.5 889.88,-100.5 974.12,-100.5 974.12,-100.5 980.12,-100.5 986.12,-106.5 986.12,-112.5 986.12,-112.5 986.12,-124.5 986.12,-124.5 986.12,-130.5 980.12,-136.5 974.12,-136.5"/>
<text text-anchor="middle" x="932" y="-112.7" font-family="Helvetica,sans-Serif" font-size="14.00" fill="#c0caf5">cloud&#45;providers</text>
</g>
<!-- litellm&#45;&gt;cloud&#45;providers -->
<g id="edge4" class="edge">
<title>litellm&#45;&gt;cloud&#45;providers</title>
<path fill="none" stroke="#3d4261" d="M910.73,-184.5C914.23,-173.78 918.8,-159.82 922.81,-147.58"/>
<polygon fill="#3d4261" stroke="#3d4261" points="926.03,-149 925.81,-138.41 919.37,-146.82 926.03,-149"/>
</g>
<!-- litellm&#45;&gt;ollama -->
<g id="edge43" class="edge">
<title>litellm&#45;&gt;ollama</title>
<path fill="none" stroke="#3d4261" d="M932.47,-193.83C955.03,-186.77 984.86,-176.56 995,-169 1003.29,-162.83 1010.58,-154.29 1016.44,-146.05"/>
<polygon fill="#3d4261" stroke="#3d4261" points="1019.22,-148.19 1021.82,-137.92 1013.38,-144.33 1019.22,-148.19"/>
</g>
<!-- litellm&#45;&gt;comfyui -->
<g id="edge6" class="edge">
<title>litellm&#45;&gt;comfyui</title>
<path fill="none" stroke="#3d4261" d="M877.58,-190C864.63,-184.95 848.8,-179.64 834,-177 803.31,-171.53 301.11,-182.46 273,-169 262.65,-164.04 254,-155.09 247.36,-146.14"/>
<polygon fill="#3d4261" stroke="#3d4261" points="250.28,-144.22 241.79,-137.88 244.48,-148.13 250.28,-144.22"/>
</g>
<!-- parakeet -->
<g id="node13" class="node">
<title>parakeet</title>
<path fill="#7aa2f7" fill-opacity="0.200000" stroke="#2b2f4a" d="M338.25,-136.5C338.25,-136.5 293.75,-136.5 293.75,-136.5 287.75,-136.5 281.75,-130.5 281.75,-124.5 281.75,-124.5 281.75,-112.5 281.75,-112.5 281.75,-106.5 287.75,-100.5 293.75,-100.5 293.75,-100.5 338.25,-100.5 338.25,-100.5 344.25,-100.5 350.25,-106.5 350.25,-112.5 350.25,-112.5 350.25,-124.5 350.25,-124.5 350.25,-130.5 344.25,-136.5 338.25,-136.5"/>
<text text-anchor="middle" x="316" y="-112.7" font-family="Helvetica,sans-Serif" font-size="14.00" fill="#c0caf5">parakeet</text>
</g>
<!-- litellm&#45;&gt;parakeet -->
<g id="edge49" class="edge">
<title>litellm&#45;&gt;parakeet</title>
<path fill="none" stroke="#3d4261" d="M877.57,-190.02C864.62,-184.97 848.79,-179.66 834,-177 808.08,-172.34 383.93,-179.99 360,-169 349.14,-164.01 339.85,-154.92 332.64,-145.88"/>
<polygon fill="#3d4261" stroke="#3d4261" points="335.52,-143.88 326.8,-137.86 329.86,-148.01 335.52,-143.88"/>
</g>
<!-- tts&#45;provider -->
<g id="node15" class="node">
<title>tts&#45;provider</title>
<path fill="#7aa2f7" fill-opacity="0.200000" stroke="#2b2f4a" d="M87.75,-136.5C87.75,-136.5 28.25,-136.5 28.25,-136.5 22.25,-136.5 16.25,-130.5 16.25,-124.5 16.25,-124.5 16.25,-112.5 16.25,-112.5 16.25,-106.5 22.25,-100.5 28.25,-100.5 28.25,-100.5 87.75,-100.5 87.75,-100.5 93.75,-100.5 99.75,-106.5 99.75,-112.5 99.75,-112.5 99.75,-124.5 99.75,-124.5 99.75,-130.5 93.75,-136.5 87.75,-136.5"/>
<text text-anchor="middle" x="58" y="-112.7" font-family="Helvetica,sans-Serif" font-size="14.00" fill="#c0caf5">tts&#45;provider</text>
</g>
<!-- litellm&#45;&gt;tts&#45;provider -->
<g id="edge56" class="edge">
<title>litellm&#45;&gt;tts&#45;provider</title>
<path fill="none" stroke="#3d4261" d="M877.58,-189.98C864.63,-184.92 848.8,-179.61 834,-177 794.33,-170 146.24,-184.34 109,-169 96.9,-164.01 86.07,-154.66 77.53,-145.41"/>
<polygon fill="#3d4261" stroke="#3d4261" points="80.24,-143.19 71.07,-137.88 74.92,-147.75 80.24,-143.19"/>
</g>
<!-- hermes -->
<g id="node18" class="node">
<title>hermes</title>
<path fill="#9ece6a" fill-opacity="0.200000" stroke="#2b2f4a" d="M809.88,-136.5C809.88,-136.5 772.12,-136.5 772.12,-136.5 766.12,-136.5 760.12,-130.5 760.12,-124.5 760.12,-124.5 760.12,-112.5 760.12,-112.5 760.12,-106.5 766.12,-100.5 772.12,-100.5 772.12,-100.5 809.88,-100.5 809.88,-100.5 815.88,-100.5 821.88,-106.5 821.88,-112.5 821.88,-112.5 821.88,-124.5 821.88,-124.5 821.88,-130.5 815.88,-136.5 809.88,-136.5"/>
<text text-anchor="middle" x="791" y="-112.7" font-family="Helvetica,sans-Serif" font-size="14.00" fill="#c0caf5">hermes</text>
</g>
<!-- litellm&#45;&gt;hermes -->
<g id="edge9" class="edge">
<title>litellm&#45;&gt;hermes</title>
<path fill="none" stroke="#3d4261" d="M878.65,-184.52C873.89,-181.77 868.89,-179.14 864,-177 852.15,-171.81 847,-175.83 836,-169 826.29,-162.97 817.4,-154.26 810.13,-145.83"/>
<polygon fill="#3d4261" stroke="#3d4261" points="812.88,-143.66 803.86,-138.09 807.44,-148.07 812.88,-143.66"/>
</g>
<!-- litellm&#45;&gt;n8n -->
<g id="edge40" class="edge">
<title>litellm&#45;&gt;n8n</title>
<path fill="none" stroke="#3d4261" d="M880.81,-184.51C875.5,-181.47 869.75,-178.74 864,-177 842.39,-170.47 680.98,-179.51 661,-169 651.48,-163.99 643.74,-155.31 637.85,-146.61"/>
<polygon fill="#3d4261" stroke="#3d4261" points="640.96,-144.98 632.77,-138.26 634.97,-148.62 640.96,-144.98"/>
</g>
<!-- openclaw -->
<g id="node20" class="node">
<title>openclaw</title>
<path fill="#9ece6a" fill-opacity="0.200000" stroke="#2b2f4a" d="M730.5,-136.5C730.5,-136.5 681.5,-136.5 681.5,-136.5 675.5,-136.5 669.5,-130.5 669.5,-124.5 669.5,-124.5 669.5,-112.5 669.5,-112.5 669.5,-106.5 675.5,-100.5 681.5,-100.5 681.5,-100.5 730.5,-100.5 730.5,-100.5 736.5,-100.5 742.5,-106.5 742.5,-112.5 742.5,-112.5 742.5,-124.5 742.5,-124.5 742.5,-130.5 736.5,-136.5 730.5,-136.5"/>
<text text-anchor="middle" x="706" y="-112.7" font-family="Helvetica,sans-Serif" font-size="14.00" fill="#c0caf5">openclaw</text>
</g>
<!-- litellm&#45;&gt;openclaw -->
<g id="edge48" class="edge">
<title>litellm&#45;&gt;openclaw</title>
<path fill="none" stroke="#3d4261" d="M880.77,-184.65C875.46,-181.6 869.72,-178.83 864,-177 840.02,-169.34 773.65,-179.99 751,-169 740.3,-163.81 730.96,-154.85 723.6,-145.96"/>
<polygon fill="#3d4261" stroke="#3d4261" points="726.45,-143.92 717.6,-138.1 720.88,-148.17 726.45,-143.92"/>
</g>
<!-- litellm&#45;&gt;jupyterhub -->
<g id="edge12" class="edge">
<title>litellm&#45;&gt;jupyterhub</title>
<path fill="none" stroke="#3d4261" d="M932.36,-200.75C989.89,-197.75 1121.34,-188.87 1161,-169 1172.08,-163.45 1182.04,-154.3 1189.99,-145.36"/>
<polygon fill="#3d4261" stroke="#3d4261" points="1192.56,-147.73 1196.25,-137.8 1187.18,-143.27 1192.56,-147.73"/>
</g>
<!-- litellm&#45;&gt;open&#45;webui -->
<g id="edge46" class="edge">
<title>litellm&#45;&gt;open&#45;webui</title>
<path fill="none" stroke="#3d4261" d="M932.49,-201.77C1005.05,-200.78 1200.14,-195.66 1258,-169 1269.72,-163.6 1280.37,-154.35 1288.88,-145.3"/>
<polygon fill="#3d4261" stroke="#3d4261" points="1291.37,-147.77 1295.34,-137.95 1286.11,-143.15 1291.37,-147.77"/>
</g>
<!-- litellm&#45;&gt;local&#45;deep&#45;researcher -->
<g id="edge36" class="edge">
<title>litellm&#45;&gt;local&#45;deep&#45;researcher</title>
<path fill="none" stroke="#3d4261" d="M932.45,-201.67C1018.23,-200.37 1280.37,-194.38 1361,-169 1379.12,-163.3 1397.44,-152.96 1412.25,-143.2"/>
<polygon fill="#3d4261" stroke="#3d4261" points="1413.9,-146.31 1420.18,-137.78 1409.95,-140.53 1413.9,-146.31"/>
</g>
<!-- ollama&#45;&gt;kong -->
<g id="edge31" class="edge">
<title>ollama&#45;&gt;kong</title>
<path fill="none" stroke="#3d4261" d="M1010.77,-100.2C1005.86,-97.07 1000.47,-94.24 995,-92.5 959.53,-81.18 692.97,-101.79 660,-84.5 650.43,-79.48 642.78,-70.64 637.04,-61.8"/>
<polygon fill="#3d4261" stroke="#3d4261" points="640.17,-60.22 632.12,-53.33 634.12,-63.74 640.17,-60.22"/>
</g>
<!-- ollama&#45;&gt;comfyui -->
<g id="edge7" class="edge">
<title>ollama&#45;&gt;comfyui</title>
<path fill="none" stroke="#3d4261" d="M1024.22,-136.81C1016.84,-151.1 1004.17,-169.14 986,-173 966.87,-177.06 301.13,-177.06 282,-173 267.13,-169.85 255.33,-157.96 246.93,-146.09"/>
<polygon fill="#3d4261" stroke="#3d4261" points="250.09,-144.54 241.74,-138.01 244.2,-148.32 250.09,-144.54"/>
</g>
<!-- docling&#45;&gt;kong -->
<g id="edge30" class="edge">
<title>docling&#45;&gt;kong</title>
<path fill="none" stroke="#3d4261" d="M425.75,-100.17C430.73,-97.41 435.94,-94.73 441,-92.5 489.32,-71.18 548,-54.21 585.67,-44.38"/>
<polygon fill="#3d4261" stroke="#3d4261" points="586.36,-47.81 595.18,-41.94 584.62,-41.03 586.36,-47.81"/>
</g>
<!-- comfyui&#45;&gt;kong -->
<g id="edge24" class="edge">
<title>comfyui&#45;&gt;kong</title>
<path fill="none" stroke="#3d4261" d="M256.2,-100.05C261.51,-97.01 267.26,-94.26 273,-92.5 308.31,-81.66 402.51,-90.19 439,-84.5 490.65,-76.44 548.64,-59.61 585.7,-47.82"/>
<polygon fill="#3d4261" stroke="#3d4261" points="586.62,-51.2 595.06,-44.8 584.47,-44.54 586.62,-51.2"/>
</g>
<!-- parakeet&#45;&gt;kong -->
<g id="edge29" class="edge">
<title>parakeet&#45;&gt;kong</title>
<path fill="none" stroke="#3d4261" d="M342.65,-100.05C348.2,-97.09 354.14,-94.37 360,-92.5 393.62,-81.77 404.29,-90.86 439,-84.5 490.57,-75.05 548.8,-58.46 585.92,-47.11"/>
<polygon fill="#3d4261" stroke="#3d4261" points="586.76,-50.52 595.29,-44.22 584.7,-43.83 586.76,-50.52"/>
</g>
<!-- speaches -->
<g id="node17" class="node">
<title>speaches</title>
<path fill="#7aa2f7" fill-opacity="0.200000" stroke="#2b2f4a" d="M258.88,-52C258.88,-52 209.12,-52 209.12,-52 203.12,-52 197.12,-46 197.12,-40 197.12,-40 197.12,-28 197.12,-28 197.12,-22 203.12,-16 209.12,-16 209.12,-16 258.88,-16 258.88,-16 264.88,-16 270.88,-22 270.88,-28 270.88,-28 270.88,-40 270.88,-40 270.88,-46 264.88,-52 258.88,-52"/>
<text text-anchor="middle" x="234" y="-28.2" font-family="Helvetica,sans-Serif" font-size="14.00" fill="#c0caf5">speaches</text>
</g>
<!-- parakeet&#45;&gt;speaches -->
<g id="edge53" class="edge">
<title>parakeet&#45;&gt;speaches</title>
<path fill="none" stroke="#3d4261" d="M298.61,-100C287.19,-88.52 272.08,-73.31 259.33,-60.49"/>
<polygon fill="#3d4261" stroke="#3d4261" points="261.96,-58.17 252.43,-53.54 257,-63.1 261.96,-58.17"/>
</g>
<!-- searxng&#45;&gt;kong -->
<g id="edge22" class="edge">
<title>searxng&#45;&gt;kong</title>
<path fill="none" stroke="#3d4261" d="M173.74,-100.23C179.17,-97.1 185.09,-94.26 191,-92.5 243.84,-76.74 384.45,-92.57 439,-84.5 490.71,-76.85 548.69,-59.92 585.73,-48"/>
<polygon fill="#3d4261" stroke="#3d4261" points="586.66,-51.38 595.08,-44.95 584.49,-44.73 586.66,-51.38"/>
</g>
<!-- searxng&#45;&gt;local&#45;deep&#45;researcher -->
<g id="edge35" class="edge">
<title>searxng&#45;&gt;local&#45;deep&#45;researcher</title>
<path fill="none" stroke="#3d4261" d="M158.93,-136.74C167.23,-150.98 181.16,-169 200,-173 215.65,-176.32 1336.35,-176.32 1352,-173 1374.37,-168.25 1396.51,-155.45 1413.47,-143.45"/>
<polygon fill="#3d4261" stroke="#3d4261" points="1415.14,-146.57 1421.11,-137.82 1410.98,-140.94 1415.14,-146.57"/>
</g>
<!-- tts&#45;provider&#45;&gt;kong -->
<g id="edge28" class="edge">
<title>tts&#45;provider&#45;&gt;kong</title>
<path fill="none" stroke="#3d4261" d="M88.21,-100.06C94.86,-96.98 102.01,-94.21 109,-92.5 180.25,-75.06 366.39,-94.94 439,-84.5 490.74,-77.06 548.72,-60.08 585.74,-48.1"/>
<polygon fill="#3d4261" stroke="#3d4261" points="586.69,-51.47 595.1,-45.02 584.5,-44.82 586.69,-51.47"/>
</g>
<!-- chatterbox -->
<g id="node16" class="node">
<title>chatterbox</title>
<path fill="#7aa2f7" fill-opacity="0.200000" stroke="#2b2f4a" d="M85.5,-52C85.5,-52 30.5,-52 30.5,-52 24.5,-52 18.5,-46 18.5,-40 18.5,-40 18.5,-28 18.5,-28 18.5,-22 24.5,-16 30.5,-16 30.5,-16 85.5,-16 85.5,-16 91.5,-16 97.5,-22 97.5,-28 97.5,-28 97.5,-40 97.5,-40 97.5,-46 91.5,-52 85.5,-52"/>
<text text-anchor="middle" x="58" y="-28.2" font-family="Helvetica,sans-Serif" font-size="14.00" fill="#c0caf5">chatterbox</text>
</g>
<!-- tts&#45;provider&#45;&gt;chatterbox -->
<g id="edge3" class="edge">
<title>tts&#45;provider&#45;&gt;chatterbox</title>
<path fill="none" stroke="#3d4261" d="M58,-100C58,-89.5 58,-75.89 58,-63.83"/>
<polygon fill="#3d4261" stroke="#3d4261" points="61.5,-63.98 58,-53.98 54.5,-63.98 61.5,-63.98"/>
</g>
<!-- tts&#45;provider&#45;&gt;speaches -->
<g id="edge54" class="edge">
<title>tts&#45;provider&#45;&gt;speaches</title>
<path fill="none" stroke="#3d4261" d="M93.34,-100.04C98.58,-97.49 103.92,-94.91 109,-92.5 134.45,-80.41 162.98,-67.26 186.35,-56.59"/>
<polygon fill="#3d4261" stroke="#3d4261" points="187.67,-59.83 195.32,-52.5 184.77,-53.46 187.67,-59.83"/>
</g>
<!-- hermes&#45;&gt;kong -->
<g id="edge18" class="edge">
<title>hermes&#45;&gt;kong</title>
<path fill="none" stroke="#3d4261" d="M768.01,-100.21C762.96,-97.16 757.48,-94.37 752,-92.5 732.58,-85.88 677.87,-94.6 660,-84.5 650.82,-79.31 643.35,-70.72 637.65,-62.13"/>
<polygon fill="#3d4261" stroke="#3d4261" points="640.66,-60.35 632.53,-53.56 634.65,-63.94 640.66,-60.35"/>
</g>
<!-- hermes&#45;&gt;open&#45;webui -->
<g id="edge47" class="edge">
<title>hermes&#45;&gt;open&#45;webui</title>
<path fill="none" stroke="#3d4261" d="M810.12,-136.84C826.02,-150.51 850,-167.7 875,-173 895.33,-177.31 1228.67,-177.31 1249,-173 1265.34,-169.53 1279.43,-157.56 1289.85,-145.71"/>
<polygon fill="#3d4261" stroke="#3d4261" points="1292.52,-147.97 1296.11,-138 1287.09,-143.55 1292.52,-147.97"/>
</g>
<!-- n8n&#45;&gt;kong -->
<g id="edge17" class="edge">
<title>n8n&#45;&gt;kong</title>
<path fill="none" stroke="#3d4261" d="M624,-100C624,-89.5 624,-75.89 624,-63.83"/>
<polygon fill="#3d4261" stroke="#3d4261" points="627.5,-63.98 624,-53.98 620.5,-63.98 627.5,-63.98"/>
</g>
<!-- openclaw&#45;&gt;kong -->
<g id="edge19" class="edge">
<title>openclaw&#45;&gt;kong</title>
<path fill="none" stroke="#3d4261" d="M678.58,-100.01C672.16,-95.34 665.58,-90.04 660,-84.5 653.11,-77.65 646.55,-69.39 640.96,-61.58"/>
<polygon fill="#3d4261" stroke="#3d4261" points="643.85,-59.61 635.31,-53.34 638.08,-63.57 643.85,-59.61"/>
</g>
<!-- backend&#45;&gt;kong -->
<g id="edge21" class="edge">
<title>backend&#45;&gt;kong</title>
<path fill="none" stroke="#3d4261" d="M1091.17,-100.17C1085.09,-97.03 1078.5,-94.22 1072,-92.5 1049.87,-86.65 680.3,-95.09 660,-84.5 650.42,-79.5 642.76,-70.66 637.02,-61.82"/>
<polygon fill="#3d4261" stroke="#3d4261" points="640.16,-60.25 632.11,-53.35 634.1,-63.76 640.16,-60.25"/>
</g>
<!-- jupyterhub&#45;&gt;kong -->
<g id="edge20" class="edge">
<title>jupyterhub&#45;&gt;kong</title>
<path fill="none" stroke="#3d4261" d="M1180.68,-100.02C1174.41,-96.94 1167.65,-94.18 1161,-92.5 1134.02,-85.67 684.7,-97.33 660,-84.5 650.41,-79.52 642.75,-70.68 637.01,-61.84"/>
<polygon fill="#3d4261" stroke="#3d4261" points="640.15,-60.26 632.1,-53.37 634.09,-63.77 640.15,-60.26"/>
</g>
<!-- open&#45;webui&#45;&gt;kong -->
<g id="edge16" class="edge">
<title>open&#45;webui&#45;&gt;kong</title>
<path fill="none" stroke="#3d4261" d="M1278.81,-100C1272.16,-96.92 1265,-94.17 1258,-92.5 1225.68,-84.78 689.51,-99.77 660,-84.5 650.4,-79.53 642.75,-70.7 637.01,-61.85"/>
<polygon fill="#3d4261" stroke="#3d4261" points="640.14,-60.27 632.1,-53.38 634.08,-63.78 640.14,-60.27"/>
</g>
<!-- local&#45;deep&#45;researcher&#45;&gt;kong -->
<g id="edge25" class="edge">
<title>local&#45;deep&#45;researcher&#45;&gt;kong</title>
<path fill="none" stroke="#3d4261" d="M1394.49,-100.12C1383.59,-96.99 1372.01,-94.19 1361,-92.5 1341.75,-89.55 677.3,-93.44 660,-84.5 650.4,-79.54 642.74,-70.71 637,-61.86"/>
<polygon fill="#3d4261" stroke="#3d4261" points="640.13,-60.28 632.09,-53.38 634.08,-63.79 640.13,-60.28"/>
</g>
</g>
</svg>
