<svg xmlns="http://www.w3.org/2000/svg" viewBox="0 0 880 2020">
<defs>
  <pattern id="grid" width="40" height="40" patternUnits="userSpaceOnUse">
    <path d="M 40 0 L 0 0 0 40" fill="none" stroke="#1e293b" stroke-width="0.5"/>
  </pattern>
  <marker id="arrowhead-solid" markerWidth="10" markerHeight="7" refX="9" refY="3.5" orient="auto">
    <polygon points="0 0, 10 3.5, 0 7" fill="#64748b"/>
  </marker>
  <marker id="arrowhead-dashed" markerWidth="10" markerHeight="7" refX="9" refY="3.5" orient="auto">
    <polygon points="0 0, 10 3.5, 0 7" fill="#fbbf24"/>
  </marker>
</defs>

<rect width="880" height="2020" fill="url(#grid)"/>
<text x="100" y="36" fill="#94a3b8" font-size="11" font-weight="600" text-anchor="middle">UPSTREAM (deps)</text>
<text x="460" y="36" fill="#94a3b8" font-size="11" font-weight="600" text-anchor="middle">FOCUS</text>
<text x="720" y="36" fill="#94a3b8" font-size="11" font-weight="600" text-anchor="middle">DOWNSTREAM (consumers)</text>
<line x1="260" y1="110" x2="360" y2="1030" stroke="#64748b" stroke-width="1.5"  marker-end="url(#arrowhead-solid)"><title>required · http://minio:&lt;port&gt;</title></line>
<line x1="260" y1="210" x2="360" y2="1030" stroke="#64748b" stroke-width="1.5"  marker-end="url(#arrowhead-solid)"><title>required · http://neo4j:&lt;port&gt;</title></line>
<line x1="260" y1="310" x2="360" y2="1030" stroke="#64748b" stroke-width="1.5"  marker-end="url(#arrowhead-solid)"><title>required · http://redis:&lt;port&gt;</title></line>
<line x1="260" y1="410" x2="360" y2="1030" stroke="#64748b" stroke-width="1.5"  marker-end="url(#arrowhead-solid)"><title>required · http://supabase:&lt;port&gt;</title></line>
<line x1="260" y1="510" x2="360" y2="1030" stroke="#64748b" stroke-width="1.5"  marker-end="url(#arrowhead-solid)"><title>required · http://weaviate:&lt;port&gt;</title></line>
<line x1="260" y1="610" x2="360" y2="1030" stroke="#64748b" stroke-width="1.5"  marker-end="url(#arrowhead-solid)"><title>required · http://litellm:&lt;port&gt;</title></line>
<line x1="260" y1="710" x2="360" y2="1030" stroke="#64748b" stroke-width="1.5"  marker-end="url(#arrowhead-solid)"><title>required · http://ollama:&lt;port&gt;</title></line>
<line x1="260" y1="810" x2="360" y2="1030" stroke="#64748b" stroke-width="1.5"  marker-end="url(#arrowhead-solid)"><title>required · http://comfyui:&lt;port&gt;</title></line>
<line x1="260" y1="910" x2="360" y2="1030" stroke="#64748b" stroke-width="1.5"  marker-end="url(#arrowhead-solid)"><title>required · http://docling:&lt;port&gt;</title></line>
<line x1="260" y1="1010" x2="360" y2="1030" stroke="#64748b" stroke-width="1.5"  marker-end="url(#arrowhead-solid)"><title>required · http://parakeet:&lt;port&gt;</title></line>
<line x1="260" y1="1110" x2="360" y2="1030" stroke="#64748b" stroke-width="1.5"  marker-end="url(#arrowhead-solid)"><title>required · http://searxng:&lt;port&gt;</title></line>
<line x1="260" y1="1210" x2="360" y2="1030" stroke="#64748b" stroke-width="1.5"  marker-end="url(#arrowhead-solid)"><title>required · http://tts-provider:&lt;port&gt;</title></line>
<line x1="260" y1="1310" x2="360" y2="1030" stroke="#64748b" stroke-width="1.5"  marker-end="url(#arrowhead-solid)"><title>required · http://hermes:&lt;port&gt;</title></line>
<line x1="260" y1="1410" x2="360" y2="1030" stroke="#64748b" stroke-width="1.5"  marker-end="url(#arrowhead-solid)"><title>required · http://n8n:&lt;port&gt;</title></line>
<line x1="260" y1="1510" x2="360" y2="1030" stroke="#64748b" stroke-width="1.5"  marker-end="url(#arrowhead-solid)"><title>required · http://openclaw:&lt;port&gt;</title></line>
<line x1="260" y1="1610" x2="360" y2="1030" stroke="#64748b" stroke-width="1.5"  marker-end="url(#arrowhead-solid)"><title>required · http://backend:&lt;port&gt;</title></line>
<line x1="260" y1="1710" x2="360" y2="1030" stroke="#64748b" stroke-width="1.5"  marker-end="url(#arrowhead-solid)"><title>required · http://jupyterhub:&lt;port&gt;</title></line>
<line x1="260" y1="1810" x2="360" y2="1030" stroke="#64748b" stroke-width="1.5"  marker-end="url(#arrowhead-solid)"><title>required · http://local-deep-researcher:&lt;port&gt;</title></line>
<line x1="260" y1="1910" x2="360" y2="1030" stroke="#64748b" stroke-width="1.5"  marker-end="url(#arrowhead-solid)"><title>required · http://open-webui:&lt;port&gt;</title></line>
<g class="box-required">
  <rect x="60" y="80" width="200" height="60" rx="6" fill="#0f172a"/>
  <rect x="60" y="80" width="200" height="60" rx="6"
        fill="rgba(15, 23, 42, 0.7)" stroke="#7dcfff" stroke-width="1.5"/>
  <text x="160" y="102" fill="white" font-size="11" font-weight="600" text-anchor="middle">minio</text>
  <text x="160" y="118" fill="#94a3b8" font-size="9" text-anchor="middle">required</text>
</g>

<g class="box-required">
  <rect x="60" y="180" width="200" height="60" rx="6" fill="#0f172a"/>
  <rect x="60" y="180" width="200" height="60" rx="6"
        fill="rgba(15, 23, 42, 0.7)" stroke="#7dcfff" stroke-width="1.5"/>
  <text x="160" y="202" fill="white" font-size="11" font-weight="600" text-anchor="middle">neo4j</text>
  <text x="160" y="218" fill="#94a3b8" font-size="9" text-anchor="middle">required</text>
</g>

<g class="box-required">
  <rect x="60" y="280" width="200" height="60" rx="6" fill="#0f172a"/>
  <rect x="60" y="280" width="200" height="60" rx="6"
        fill="rgba(15, 23, 42, 0.7)" stroke="#7dcfff" stroke-width="1.5"/>
  <text x="160" y="302" fill="white" font-size="11" font-weight="600" text-anchor="middle">redis</text>
  <text x="160" y="318" fill="#94a3b8" font-size="9" text-anchor="middle">required</text>
</g>

<g class="box-required">
  <rect x="60" y="380" width="200" height="60" rx="6" fill="#0f172a"/>
  <rect x="60" y="380" width="200" height="60" rx="6"
        fill="rgba(15, 23, 42, 0.7)" stroke="#7dcfff" stroke-width="1.5"/>
  <text x="160" y="402" fill="white" font-size="11" font-weight="600" text-anchor="middle">supabase</text>
  <text x="160" y="418" fill="#94a3b8" font-size="9" text-anchor="middle">required</text>
</g>

<g class="box-required">
  <rect x="60" y="480" width="200" height="60" rx="6" fill="#0f172a"/>
  <rect x="60" y="480" width="200" height="60" rx="6"
        fill="rgba(15, 23, 42, 0.7)" stroke="#7dcfff" stroke-width="1.5"/>
  <text x="160" y="502" fill="white" font-size="11" font-weight="600" text-anchor="middle">weaviate</text>
  <text x="160" y="518" fill="#94a3b8" font-size="9" text-anchor="middle">required</text>
</g>

<g class="box-required">
  <rect x="60" y="580" width="200" height="60" rx="6" fill="#0f172a"/>
  <rect x="60" y="580" width="200" height="60" rx="6"
        fill="rgba(15, 23, 42, 0.7)" stroke="#e0af68" stroke-width="1.5"/>
  <text x="160" y="602" fill="white" font-size="11" font-weight="600" text-anchor="middle">litellm</text>
  <text x="160" y="618" fill="#94a3b8" font-size="9" text-anchor="middle">required</text>
</g>

<g class="box-required">
  <rect x="60" y="680" width="200" height="60" rx="6" fill="#0f172a"/>
  <rect x="60" y="680" width="200" height="60" rx="6"
        fill="rgba(15, 23, 42, 0.7)" stroke="#e0af68" stroke-width="1.5"/>
  <text x="160" y="702" fill="white" font-size="11" font-weight="600" text-anchor="middle">ollama</text>
  <text x="160" y="718" fill="#94a3b8" font-size="9" text-anchor="middle">required</text>
</g>

<g class="box-required">
  <rect x="60" y="780" width="200" height="60" rx="6" fill="#0f172a"/>
  <rect x="60" y="780" width="200" height="60" rx="6"
        fill="rgba(15, 23, 42, 0.7)" stroke="#7aa2f7" stroke-width="1.5"/>
  <text x="160" y="802" fill="white" font-size="11" font-weight="600" text-anchor="middle">comfyui</text>
  <text x="160" y="818" fill="#94a3b8" font-size="9" text-anchor="middle">required</text>
</g>

<g class="box-required">
  <rect x="60" y="880" width="200" height="60" rx="6" fill="#0f172a"/>
  <rect x="60" y="880" width="200" height="60" rx="6"
        fill="rgba(15, 23, 42, 0.7)" stroke="#7aa2f7" stroke-width="1.5"/>
  <text x="160" y="902" fill="white" font-size="11" font-weight="600" text-anchor="middle">docling</text>
  <text x="160" y="918" fill="#94a3b8" font-size="9" text-anchor="middle">required</text>
</g>

<g class="box-required">
  <rect x="60" y="980" width="200" height="60" rx="6" fill="#0f172a"/>
  <rect x="60" y="980" width="200" height="60" rx="6"
        fill="rgba(15, 23, 42, 0.7)" stroke="#7aa2f7" stroke-width="1.5"/>
  <text x="160" y="1002" fill="white" font-size="11" font-weight="600" text-anchor="middle">parakeet</text>
  <text x="160" y="1018" fill="#94a3b8" font-size="9" text-anchor="middle">required</text>
</g>

<g class="box-required">
  <rect x="60" y="1080" width="200" height="60" rx="6" fill="#0f172a"/>
  <rect x="60" y="1080" width="200" height="60" rx="6"
        fill="rgba(15, 23, 42, 0.7)" stroke="#7aa2f7" stroke-width="1.5"/>
  <text x="160" y="1102" fill="white" font-size="11" font-weight="600" text-anchor="middle">searxng</text>
  <text x="160" y="1118" fill="#94a3b8" font-size="9" text-anchor="middle">required</text>
</g>

<g class="box-required">
  <rect x="60" y="1180" width="200" height="60" rx="6" fill="#0f172a"/>
  <rect x="60" y="1180" width="200" height="60" rx="6"
        fill="rgba(15, 23, 42, 0.7)" stroke="#7aa2f7" stroke-width="1.5"/>
  <text x="160" y="1202" fill="white" font-size="11" font-weight="600" text-anchor="middle">tts-provider</text>
  <text x="160" y="1218" fill="#94a3b8" font-size="9" text-anchor="middle">required</text>
</g>

<g class="box-required">
  <rect x="60" y="1280" width="200" height="60" rx="6" fill="#0f172a"/>
  <rect x="60" y="1280" width="200" height="60" rx="6"
        fill="rgba(15, 23, 42, 0.7)" stroke="#9ece6a" stroke-width="1.5"/>
  <text x="160" y="1302" fill="white" font-size="11" font-weight="600" text-anchor="middle">hermes</text>
  <text x="160" y="1318" fill="#94a3b8" font-size="9" text-anchor="middle">required</text>
</g>

<g class="box-required">
  <rect x="60" y="1380" width="200" height="60" rx="6" fill="#0f172a"/>
  <rect x="60" y="1380" width="200" height="60" rx="6"
        fill="rgba(15, 23, 42, 0.7)" stroke="#9ece6a" stroke-width="1.5"/>
  <text x="160" y="1402" fill="white" font-size="11" font-weight="600" text-anchor="middle">n8n</text>
  <text x="160" y="1418" fill="#94a3b8" font-size="9" text-anchor="middle">required</text>
</g>

<g class="box-required">
  <rect x="60" y="1480" width="200" height="60" rx="6" fill="#0f172a"/>
  <rect x="60" y="1480" width="200" height="60" rx="6"
        fill="rgba(15, 23, 42, 0.7)" stroke="#9ece6a" stroke-width="1.5"/>
  <text x="160" y="1502" fill="white" font-size="11" font-weight="600" text-anchor="middle">openclaw</text>
  <text x="160" y="1518" fill="#94a3b8" font-size="9" text-anchor="middle">required</text>
</g>

<g class="box-required">
  <rect x="60" y="1580" width="200" height="60" rx="6" fill="#0f172a"/>
  <rect x="60" y="1580" width="200" height="60" rx="6"
        fill="rgba(15, 23, 42, 0.7)" stroke="#bb9af7" stroke-width="1.5"/>
  <text x="160" y="1602" fill="white" font-size="11" font-weight="600" text-anchor="middle">backend</text>
  <text x="160" y="1618" fill="#94a3b8" font-size="9" text-anchor="middle">required</text>
</g>

<g class="box-required">
  <rect x="60" y="1680" width="200" height="60" rx="6" fill="#0f172a"/>
  <rect x="60" y="1680" width="200" height="60" rx="6"
        fill="rgba(15, 23, 42, 0.7)" stroke="#bb9af7" stroke-width="1.5"/>
  <text x="160" y="1702" fill="white" font-size="11" font-weight="600" text-anchor="middle">jupyterhub</text>
  <text x="160" y="1718" fill="#94a3b8" font-size="9" text-anchor="middle">required</text>
</g>

<g class="box-required">
  <rect x="60" y="1780" width="200" height="60" rx="6" fill="#0f172a"/>
  <rect x="60" y="1780" width="200" height="60" rx="6"
        fill="rgba(15, 23, 42, 0.7)" stroke="#bb9af7" stroke-width="1.5"/>
  <text x="160" y="1802" fill="white" font-size="11" font-weight="600" text-anchor="middle">local-deep-researcher</text>
  <text x="160" y="1818" fill="#94a3b8" font-size="9" text-anchor="middle">required</text>
</g>

<g class="box-required">
  <rect x="60" y="1880" width="200" height="60" rx="6" fill="#0f172a"/>
  <rect x="60" y="1880" width="200" height="60" rx="6"
        fill="rgba(15, 23, 42, 0.7)" stroke="#bb9af7" stroke-width="1.5"/>
  <text x="160" y="1902" fill="white" font-size="11" font-weight="600" text-anchor="middle">open-webui</text>
  <text x="160" y="1918" fill="#94a3b8" font-size="9" text-anchor="middle">required</text>
</g>

<g class="box-focus">
  <rect x="360" y="970" width="200" height="120" rx="6" fill="#0f172a"/>
  <rect x="360" y="970" width="200" height="120" rx="6"
        fill="rgba(15, 23, 42, 0.7)" stroke="#f7768e" stroke-width="1.5"/>
  <text x="460" y="994" fill="white" font-size="14" font-weight="600" text-anchor="middle">KONG</text>
  <text x="460" y="1014" fill="#94a3b8" font-size="9" text-anchor="middle">infra · single</text>
</g>

<text x="720" y="110" fill="#475569" font-size="10" text-anchor="middle" font-style="italic">— no downstream consumers —</text>
</svg>