<svg xmlns="http://www.w3.org/2000/svg" viewBox="0 0 920 238" font-family="'JetBrains Mono', 'Fira Code', Menlo, Consolas, monospace">
<defs>
  <pattern id="grid" width="40" height="40" patternUnits="userSpaceOnUse">
    <path d="M 40 0 L 0 0 0 40" fill="none" stroke="#1e293b" stroke-width="0.5"/>
  </pattern>
  <marker id="arrowhead" markerWidth="9" markerHeight="6" refX="8" refY="3" orient="auto">
    <polygon points="0 0, 9 3, 0 6" fill="#64748b"/>
  </marker>
  <filter id="focus-glow" x="-50%" y="-50%" width="200%" height="200%">
    <feGaussianBlur in="SourceAlpha" stdDeviation="6"/>
    <feFlood flood-color="#a78bfa" flood-opacity="0.6"/>
    <feComposite in2="SourceAlpha" operator="in"/>
    <feMerge>
      <feMergeNode/>
      <feMergeNode in="SourceGraphic"/>
    </feMerge>
  </filter>
</defs>
<rect width="920" height="238" fill="#020617"/>
<rect width="920" height="238" fill="url(#grid)"/>
<text x="180" y="36" fill="#94a3b8" font-size="10" font-weight="600" text-anchor="middle" letter-spacing="0.08em">Upstream (calls)</text>
<text x="460" y="36" fill="#94a3b8" font-size="10" font-weight="600" text-anchor="middle" letter-spacing="0.08em">Focus</text>
<text x="740" y="36" fill="#94a3b8" font-size="10" font-weight="600" text-anchor="middle" letter-spacing="0.08em">Downstream (consumers)</text>
<line x1="300" y1="80" x2="360" y2="127" stroke="#64748b" stroke-width="1.5" marker-end="url(#arrowhead)"/>
<line x1="560" y1="127" x2="620" y2="80" stroke="#64748b" stroke-width="1.5" marker-end="url(#arrowhead)"/>
<line x1="560" y1="127" x2="620" y2="148" stroke="#64748b" stroke-width="1.5" marker-end="url(#arrowhead)"/>
<g>
<g class="cluster">
  <rect x="60" y="64" width="240" height="58" rx="8"
        fill="rgba(30,41,59,0.35)"
        stroke="#a78bfa" stroke-width="1" stroke-dasharray="4,4" stroke-opacity="0.4"/>
  <text x="70" y="78" fill="#a78bfa" font-size="9" font-weight="700"
        text-anchor="start" style="letter-spacing:0.06em;text-transform:uppercase;">data</text>
  <text x="290" y="78" fill="#a78bfa" font-size="9" font-weight="600"
        text-anchor="end">2</text>
</g>

<g><rect x="68" y="88" width="108" height="22" rx="4" fill="#0f172a"/><rect x="68" y="88" width="108" height="22" rx="4" fill="rgba(76, 29, 149, 0.4)" stroke="#a78bfa" stroke-width="1"/><text x="122" y="103" fill="white" font-size="10" text-anchor="middle">minio</text></g>
<g><rect x="180" y="88" width="108" height="22" rx="4" fill="#0f172a"/><rect x="180" y="88" width="108" height="22" rx="4" fill="rgba(76, 29, 149, 0.4)" stroke="#a78bfa" stroke-width="1"/><text x="234" y="103" fill="white" font-size="10" text-anchor="middle">supabase</text></g>
</g>
<g>
<g class="cluster">
  <rect x="620" y="64" width="240" height="58" rx="8"
        fill="rgba(30,41,59,0.35)"
        stroke="#34d399" stroke-width="1" stroke-dasharray="4,4" stroke-opacity="0.4"/>
  <text x="630" y="78" fill="#34d399" font-size="9" font-weight="700"
        text-anchor="start" style="letter-spacing:0.06em;text-transform:uppercase;">agents</text>
  <text x="850" y="78" fill="#34d399" font-size="9" font-weight="600"
        text-anchor="end">1</text>
</g>

<g><rect x="628" y="88" width="108" height="22" rx="4" fill="#0f172a"/><rect x="628" y="88" width="108" height="22" rx="4" fill="rgba(6, 78, 59, 0.4)" stroke="#34d399" stroke-width="1"/><text x="682" y="103" fill="white" font-size="10" text-anchor="middle">airflow</text></g>
<g class="cluster">
  <rect x="620" y="132" width="240" height="58" rx="8"
        fill="rgba(30,41,59,0.35)"
        stroke="#22d3ee" stroke-width="1" stroke-dasharray="4,4" stroke-opacity="0.4"/>
  <text x="630" y="146" fill="#22d3ee" font-size="9" font-weight="700"
        text-anchor="start" style="letter-spacing:0.06em;text-transform:uppercase;">apps</text>
  <text x="850" y="146" fill="#22d3ee" font-size="9" font-weight="600"
        text-anchor="end">1</text>
</g>

<g><rect x="628" y="156" width="108" height="22" rx="4" fill="#0f172a"/><rect x="628" y="156" width="108" height="22" rx="4" fill="rgba(8, 51, 68, 0.4)" stroke="#22d3ee" stroke-width="1"/><text x="682" y="171" fill="white" font-size="10" text-anchor="middle">zeppelin</text></g>
</g>
<g class="focus" filter="url(#focus-glow)">  <rect x="360" y="92" width="200" height="70" rx="8" fill="#0f172a"/>  <rect x="360" y="92" width="200" height="70" rx="8"         fill="rgba(76, 29, 149, 0.4)" stroke="#a78bfa" stroke-width="1.5"/>  <text x="460" y="120" fill="white" font-size="15" font-weight="700"         text-anchor="middle">SPARK</text>  <text x="460" y="140" fill="#94a3b8" font-size="10"         text-anchor="middle">data · disabled</text></g>
<g class="legend"><line x1="160" y1="196" x2="760" y2="196" stroke="#1e293b" stroke-width="1"/>
<circle cx="226" cy="208" r="4" fill="#fb7185"/>
<text x="236" y="211" fill="#94a3b8" font-size="9" font-weight="400" text-anchor="start">infra</text>
<circle cx="306" cy="208" r="4" fill="#a78bfa"/>
<text x="316" y="211" fill="#94a3b8" font-size="9" font-weight="400" text-anchor="start">data</text>
<circle cx="386" cy="208" r="4" fill="#fbbf24"/>
<text x="396" y="211" fill="#94a3b8" font-size="9" font-weight="400" text-anchor="start">llm</text>
<circle cx="466" cy="208" r="4" fill="#fb923c"/>
<text x="476" y="211" fill="#94a3b8" font-size="9" font-weight="400" text-anchor="start">media</text>
<circle cx="546" cy="208" r="4" fill="#34d399"/>
<text x="556" y="211" fill="#94a3b8" font-size="9" font-weight="400" text-anchor="start">agents</text>
<circle cx="626" cy="208" r="4" fill="#22d3ee"/>
<text x="636" y="211" fill="#94a3b8" font-size="9" font-weight="400" text-anchor="start">apps</text>
</g>
</svg>